<?xml version="1.0" standalone="no"?>
<!DOCTYPE svg PUBLIC "-//W3C//DTD SVG 1.1//EN" "http://www.w3.org/Graphics/SVG/1.1/DTD/svg11.dtd" >
<svg xmlns="http://www.w3.org/2000/svg">
<metadata>
This is a custom SVG webfont generated by Font Squirrel.
Designer    : David J. Perry
Foundry     : David J. Perry
Foundry URL : http://scholarsfonts.net
</metadata>
<defs>
<font id="webfonthKGy9bvL" horiz-adv-x="1049" >
<font-face units-per-em="2048" ascent="1638" descent="-410" />
<missing-glyph horiz-adv-x="550" />
<glyph unicode=" "  horiz-adv-x="550" />
<glyph unicode="&#x09;" horiz-adv-x="550" />
<glyph unicode="&#xa0;" horiz-adv-x="550" />
<glyph unicode="!" horiz-adv-x="489" d="M130 92q0 24 9 45t24.5 36.5t36 24.5t43.5 9q24 0 45.5 -10t37 -26.5t24.5 -38t9 -44.5q0 -24 -8.5 -44.5t-23.5 -36.5t-35.5 -25t-44.5 -9q-26 0 -47 9.5t-37 25.5t-24.5 38t-8.5 46zM273 463q-2 -17 -9 -28t-21 -11t-21.5 11t-9.5 28l-74 962v52q0 14 15 14 q12 0 39.5 1t50.5 1h37q20 0 38 -2q7 0 16.5 -2.5t12.5 -11.5v-52z" />
<glyph unicode="&#x22;" horiz-adv-x="834" d="M565 817q-2 40 -7.5 87t-13.5 96l-14 100l-14 92q-7 44 -11.5 79.5t-4.5 57.5q0 16 9.5 30.5t25 26t34.5 18t37 6.5q19 0 37.5 -6.5t33 -18t23.5 -26t9 -30.5q0 -34 -8 -96t-19 -135l-22 -146q-12 -75 -19 -135h-76zM199 816q-4 60 -15 135l-22 149l-20 135q-9 62 -9 95 q0 15 9.5 29.5t24.5 26t34 18t39 6.5q19 0 37.5 -6.5t32.5 -18t23 -26t9 -29.5q0 -34 -8 -96t-19 -135l-23 -148q-11 -75 -18 -135h-75z" />
<glyph unicode="#" horiz-adv-x="1188" d="M129 1065h272l101 473h127l-101 -473h252l101 473h127l-101 -473h273l-29 -121h-270l-72 -350h276l-28 -121h-275l-106 -508h-133l108 508h-248l-106 -508h-133l108 508h-270l31 121h266l76 350h-279zM430 594h248l74 350h-250z" />
<glyph unicode="$" d="M659 1422v-163q44 -10 87 -25.5t78 -38.5t58.5 -53t28.5 -69q0 -29 -20 -48t-45 -19q-24 0 -45 20.5t-42 49.5l-44 60q-23 31 -53 53q-1 0 -3 2v-499q14 -8 26 -14q54 -29 104 -65.5t89 -80.5t62.5 -94.5t23.5 -105.5q0 -72 -24 -129.5t-65 -100t-96.5 -70.5t-119.5 -43 v-208h-56v198q-23 -3 -47 -5t-47 -2q-25 0 -50 3v-194h-55v204q-49 11 -98 31.5t-88.5 50t-66.5 67.5t-31 84q0 35 23.5 56t53.5 21q24 0 38.5 -13t25 -34.5t20.5 -48.5t25.5 -55t38 -53.5t59.5 -44.5v611q-50 31 -94.5 65t-77.5 72.5t-52.5 82.5t-19.5 97q0 48 17.5 93.5 t49.5 83.5t77 67t100 44v160h55v-149q25 3 52 3q20 0 43 -1.5t49 -5.5v153h56zM603 540l-71 42l-73 42v-598q17 -5 37.5 -8t43.5 -4q17 0 32.5 1.5t30.5 3.5v521zM509 1230q-28 0 -50 -3v-409q65 -47 144 -94v495q-20 6 -43 8.5t-51 2.5zM834 268q0 36 -13.5 68.5 t-36.5 61.5t-55.5 55t-69.5 51v-470q77 28 123.5 89t51.5 145zM279 1048q0 -31 7.5 -54.5t23 -44.5t38.5 -42l56 -48v356q-38 -12 -62 -31.5t-38 -42.5t-19.5 -47.5t-5.5 -45.5z" />
<glyph unicode="%" horiz-adv-x="1750" d="M1101 409q0 74 24 147.5t63 132t87.5 95t98.5 36.5q72 0 126.5 -37t91 -97t55.5 -136.5t19 -155.5q0 -78 -20 -153t-57 -133.5t-89.5 -94.5t-116.5 -36q-58 0 -109 36t-89.5 91t-61 121.5t-22.5 127.5v56zM1202 394q0 -86 8.5 -158t29 -124.5t56.5 -81.5t92 -29 q57 0 92 34.5t53.5 90t24.5 126.5t6 145q0 38 -1 82t-6.5 88t-17 85t-32.5 72.5t-52.5 50.5t-77.5 19q-40 0 -68.5 -18.5t-47.5 -50t-31 -72.5t-18 -85.5t-8 -89.5t-2 -84zM1361 1480h130l-1101 -1535h-129zM84 1041q0 74 24 147.5t63 132t87.5 95t98.5 36.5q72 0 126.5 -37 t91 -97t55.5 -136.5t19 -155.5q0 -78 -20 -153t-57 -133.5t-89.5 -94.5t-116.5 -36q-58 0 -109 36t-89.5 91t-61 121.5t-22.5 127.5v56zM185 1026q0 -86 8.5 -158t29 -124.5t56.5 -81.5t92 -29q57 0 92 34.5t53.5 90t24.5 126.5t6 145q0 38 -1 82t-6.5 88t-17 85t-32.5 72.5 t-52.5 50.5t-77.5 19q-40 0 -68.5 -18.5t-47.5 -50t-31 -72.5t-18 -85.5t-8 -89.5t-2 -84z" />
<glyph unicode="&#x26;" horiz-adv-x="1522" d="M878 231q-48 -44 -106 -89.5t-122 -83t-132.5 -61.5t-138.5 -24q-75 0 -140 34t-113 88.5t-75.5 124.5t-27.5 142q0 78 29 139.5t80 111t120 88.5t149 71q-35 34 -62.5 66.5t-47.5 67t-30.5 72.5t-10.5 83q0 62 26.5 109t69 78.5t97.5 47t112 15.5q49 0 97.5 -17 t87.5 -47.5t63 -74t24 -97.5q0 -45 -18.5 -83t-47.5 -69.5t-65.5 -58t-72.5 -49.5q-7 -3 -9 -5t-2 -7q0 -8 7 -15l12 -12q4 -2 19 -15l30 -28l32 -28q14 -13 17 -17q9 -6 58 -59.5t141 -169.5q15 -19 19.5 -23t6.5 -4q11 0 15 8l229 346q12 18 18.5 32.5t6.5 31.5 q0 28 -17 38.5t-37.5 15t-37.5 9t-17 21.5q0 5 1 11.5t9 6.5h367q3 -5 3.5 -12t0.5 -10q0 -14 -5 -17.5t-13 -5.5q-26 -2 -53 -4.5t-52.5 -10t-47 -21.5t-36.5 -38l-295 -467l125 -215q23 -40 55 -69t82 -29q20 0 39 5t37 11.5t34.5 14t31.5 12.5q5 0 6.5 -9t1.5 -11 q0 -3 -0.5 -10t-5.5 -9q-54 -35 -115 -61.5t-127 -26.5q-35 0 -63.5 12t-52 32t-44 46.5t-39.5 55.5l-39 59q-19 30 -41 57zM475 92q50 0 99 16t94 40.5t85 54.5t72 57q17 16 17 33q-1 1 -1 3q-1 2 -1 5q-135 232 -332 390l-26 22q-15 13 -29 13t-30 -8.5t-26 -14.5 q-43 -25 -78.5 -61t-61 -79.5t-40 -92t-14.5 -97.5q0 -54 21.5 -105t58.5 -90t86.5 -62.5t105.5 -23.5zM397 1100q0 -38 11 -74.5t31 -69t48 -60t62 -48.5q34 6 61 30.5t46 56.5t28.5 67t9.5 63q0 40 -8 74t-27 59t-49 39t-73 14q-34 0 -60 -11.5t-44 -32t-27 -48t-9 -59.5z " />
<glyph unicode="'" horiz-adv-x="465" d="M195 814q-4 60 -15 136l-22 148l-20 135q-9 62 -9 95q0 16 9.5 31t24.5 26t33.5 18t36.5 7q20 0 39 -7t33.5 -18t23.5 -26t9 -31q0 -34 -8 -96t-19 -135l-23 -148q-11 -75 -18 -135h-75z" />
<glyph unicode="(" horiz-adv-x="650" d="M567 1722q5 6 7 8t7 2q6 0 14 -7t15 -17t11.5 -19.5t4.5 -13.5q0 -13 -6 -23q-77 -118 -136.5 -241t-100.5 -254t-62.5 -270.5t-21.5 -289.5q0 -290 83.5 -548t237.5 -493q6 -11 6 -23q0 -5 -4.5 -14t-11.5 -19t-15 -17t-14 -7q-5 0 -7 2t-7 8q-97 116 -170.5 248 t-123.5 274.5t-76 292.5t-26 302q0 151 25.5 301t75.5 293.5t124 276t171 248.5z" />
<glyph unicode=")" horiz-adv-x="650" d="M83 1722q97 -116 171 -248.5t124 -276t75.5 -293.5t25.5 -301q0 -152 -26 -302t-76 -292.5t-123.5 -274.5t-170.5 -248q-5 -6 -7 -8t-7 -2q-6 0 -14 7t-15 17t-11.5 19t-4.5 14q0 12 6 23q154 235 237.5 493t83.5 548q0 150 -21.5 289.5t-62.5 270.5t-100.5 254 t-136.5 241q-6 10 -6 23q0 4 4.5 13.5t11.5 19.5t15 17t14 7q5 0 7 -2t7 -8z" />
<glyph unicode="*" horiz-adv-x="741" d="M687 1377l14 -42l-228 -118l113 -230l-35 -26l-181 182l-184 -178l-37 24l117 228l-226 120l11 43l253 -39l44 253h44l41 -253z" />
<glyph unicode="+" d="M88 689h375v389h127v-389h370v-127h-370v-385h-127v385h-375v127z" />
<glyph unicode="," horiz-adv-x="520" d="M149 -260q0 8 6 15.5t14 13.5t15.5 11t11.5 9q17 15 36 34t34.5 41t26 45.5t10.5 49.5q0 6 -0.5 13t-4 13.5t-11 10.5t-21.5 4q-29 0 -55 6.5t-46 20.5t-32 37.5t-12 58.5q0 24 10 44.5t26.5 35.5t38 24t43.5 9q40 0 70 -18t50 -47t30 -64.5t10 -69.5q0 -46 -13 -87.5 t-36 -78.5t-54.5 -69t-69.5 -59q-14 -10 -31 -20t-31 -10q-10 0 -12.5 9.5t-2.5 17.5z" />
<glyph unicode="-" horiz-adv-x="913" d="M828 578v-137h-743v137h743z" />
<glyph unicode="." horiz-adv-x="520" d="M130 103q0 26 10.5 49.5t28 41.5t41 28.5t50.5 10.5t50.5 -10.5t41.5 -28.5t28 -42t10 -50q0 -28 -10 -51.5t-28 -41t-41.5 -27t-50.5 -9.5t-50.5 10t-41 27t-28 41t-10.5 52z" />
<glyph unicode="/" horiz-adv-x="664" d="M529 1452h130l-525 -1479h-129z" />
<glyph unicode="0" d="M76 693q0 83 17.5 165.5t48.5 159t72.5 142.5t89.5 114.5t100.5 76.5t104.5 28q76 0 140 -28.5t115.5 -78t90.5 -117t65 -146.5t39.5 -166t13.5 -174t-14.5 -172t-41.5 -162.5t-66.5 -143.5t-89.5 -114.5t-109.5 -76t-127.5 -27.5q-61 0 -118 27.5t-106.5 74.5t-91 109.5 t-71 132.5t-45.5 142.5t-16 140.5v93zM237 668q0 -143 13 -260.5t46 -201t89.5 -129t145.5 -45.5q61 0 105.5 25t75.5 69t50.5 104.5t30 132t14.5 150.5t4 161q0 63 -1.5 135t-10 144t-27 138t-51 117t-83 81.5t-123.5 30.5q-63 0 -108.5 -30t-76 -80.5t-49 -117t-28.5 -139 t-13 -146.5t-3 -139z" />
<glyph unicode="1" d="M223 32q0 8 8 8q50 3 87 4.5t64 4t45 6t29 9.5q14 8 17 26t3 47v1065q1 2 -22 -16l-58 -45q-37 -27 -84.5 -57.5t-95.5 -53.5q-1 0 -2.5 -0.5t-3.5 -0.5t-4 1t-4 4l-10 17q-2 4 -2 5.5t8 6.5q33 22 76 57l92 77q47 42 94 88.5t86 93.5h56q13 0 16 -4t3 -15v-1199v-21 q0 -14 1.5 -28.5t4.5 -27t8 -15.5q13 -8 35.5 -13.5t50 -9t57 -5t55.5 -1.5q5 0 6.5 -3t1.5 -5v-24q0 -2 -1.5 -5t-6.5 -3h-602q-8 0 -8 8v24z" />
<glyph unicode="2" d="M81 0q-4 0 -4.5 4t-0.5 22t9 32t22 29q62 70 135 143l144 145l139 147q67 73 118.5 145t82.5 142t31 136q0 58 -23 114t-62.5 100t-91 71t-108.5 27q-44 0 -101 -17.5t-106 -59.5q-49 -43 -71.5 -82t-32.5 -69t-14.5 -48t-17.5 -18q-4 0 -11.5 -1.5t-12.5 -1.5 q-10 0 -10 6q0 5 7 37t21.5 74t35.5 85t48 71q40 41 80 69t80 45t81 24.5t84 7.5q90 0 164 -30.5t126 -84t80.5 -126.5t28.5 -158q0 -65 -26.5 -126.5t-76 -124t-119.5 -128t-156 -138.5l-37 -34l-63 -61l-75 -74l-73 -73l-55 -58q-21 -24 -21 -28h563q40 0 64 10t39 30.5 t24.5 52t21.5 75.5h38l-43 -270q-2 -10 -7 -18.5t-16 -14.5h-832z" />
<glyph unicode="3" d="M65 131q0 37 25.5 52t57.5 15q14 0 33 -12t42 -30l51 -39q27 -21 58.5 -39t67.5 -30.5t77 -12.5q71 4 126.5 42t93.5 94.5t57.5 124.5t19.5 133q0 79 -21.5 135.5t-56 92t-78 52t-87.5 16.5q-12 0 -30 -3t-37.5 -9.5t-37.5 -16.5t-28 -23q-2 -3 -5 -3q-6 0 -13 8t-7 16 q0 4 6.5 10.5t15.5 13.5l18 15q9 7 13 11l83 72q42 37 76 78.5t55.5 88.5t21.5 101q0 37 -17.5 70.5t-46 59t-65 40.5t-74.5 15q-66 0 -115 -24t-84 -57.5t-57.5 -68.5t-34.5 -57q-1 -1 -8 -1q-3 0 -8 1.5t-10.5 4t-9.5 5t-4 5.5q0 2 3 10q2 4 4 9q24 61 65.5 112.5 t91.5 89.5t104.5 59.5t104.5 21.5q71 0 128 -16.5t96.5 -47t60.5 -74t21 -96.5q0 -67 -34 -126t-88 -113l-24 -18l-33 -22l-28 -22q-13 -9 -13 -12v-1h3q6 1 13.5 1.5t14.5 0.5q31 0 60 -5.5t45 -12.5q66 -29 108 -71t65 -89t31.5 -95t8.5 -88q0 -71 -23 -135.5t-61.5 -120 t-89.5 -100.5t-107 -77t-114.5 -49t-111.5 -17q-29 0 -64.5 2t-72.5 8t-73.5 17t-67.5 28.5t-53.5 42.5t-32.5 60z" />
<glyph unicode="4" d="M63 415q0 8 0.5 13.5t3.5 10.5l624 917q11 17 19.5 20t19.5 3q16 0 27.5 -3t11.5 -23v-822q0 -19 2.5 -22t16.5 -3h167q11 0 21 -2t10 -16v-68q0 -24 -20 -24h-182q-11 0 -13 -2.5t-2 -17.5v-391q0 -5 -4 -13.5t-13 -8.5h-108q-14 0 -17 9t-3 14v380q0 11 -0.5 17t-4.5 9 t-12 3.5t-23 0.5h-497q-8 0 -16 2.5t-8 16.5zM182 518q0 -8 6.5 -10t25.5 -2h388q13 0 16.5 6t5.5 14v554q0 14 -3.5 26.5t-20.5 12.5q-8 0 -16 -7l-13 -14l-378 -563q-2 -2 -3.5 -4.5t-3.5 -5.5q-2 -4 -4 -7z" />
<glyph unicode="5" d="M104 98q0 35 23.5 56.5t53.5 21.5q31 0 64 -23.5t66.5 -52t68 -52t68.5 -23.5q57 0 102 18t80 48t60 68.5t41 78.5t23.5 79t7.5 71q0 75 -18.5 130t-48 93.5t-66.5 62t-75 36.5t-73.5 17.5t-60.5 4.5q-40 0 -76 -12t-64.5 -26.5t-47 -27t-22.5 -14.5q-2 -1 -5.5 -2.5 t-5.5 -1.5q-10 0 -10 15l30 675h509q20 0 31.5 3t17.5 8.5t9 13t8 16.5h41l-24 -169h-525q-5 0 -13 -1t-8 -6q-1 -10 -2 -35.5t-2.5 -59.5t-3.5 -73t-3.5 -77t-2.5 -71.5t-2 -55.5q0 -12 1 -11q6 6 26.5 15.5t51 18t69 15t80.5 6.5q39 0 87.5 -11t98.5 -33t97 -55.5 t83.5 -79t59 -104t22.5 -129.5q0 -95 -23.5 -168t-63 -127.5t-92 -92t-111 -60t-119 -32.5t-115.5 -10q-16 0 -43 2t-59 7.5t-64.5 14.5t-60.5 23t-47 33t-23 45z" />
<glyph unicode="6" d="M80 502q19 110 46 197t65 158t89.5 130t120 113.5t156 108.5t198.5 115q9 5 29 14t41.5 17.5t40.5 15t26 6.5q11 0 17.5 -2.5t6.5 -14.5q0 -8 -22 -22t-52 -30l-60 -34q-30 -16 -47 -28q-24 -16 -59 -41.5t-73.5 -56.5t-77 -66.5t-69.5 -72.5t-50.5 -73t-20.5 -69 q8 0 18.5 5t25.5 11t36 11t50 5q97 0 179.5 -36.5t142.5 -99t94 -146.5t34 -180q0 -97 -34.5 -181.5t-95.5 -147.5t-143 -99t-178 -36q-104 0 -185 46t-136.5 120.5t-84 169.5t-28.5 193zM247 444q0 -44 5.5 -92t19 -94.5t34.5 -88.5t52 -73.5t72.5 -50.5t95.5 -19 q72 0 121.5 35.5t81 91.5t45.5 124t14 133q0 82 -14.5 159.5t-49.5 137.5t-93.5 96.5t-146.5 36.5q-69 0 -114 -30t-72 -82.5t-38.5 -122.5t-12.5 -150v-11z" />
<glyph unicode="7" d="M291 -4l167 374l126 282l90 203l62 138l38 86l19.5 47.5t8 23t2.5 11.5q0 5 -6 10t-12 5h-550q-20 0 -37.5 -16t-23.5 -34l-54 -154q-3 -11 -8.5 -14.5t-13.5 -3.5t-13.5 2t-5.5 13l60 348q2 5 5.5 13t10.5 8h796q11 0 19.5 -6t8.5 -24q0 -8 -1 -19.5t-3 -24t-5.5 -25 t-7.5 -22.5l-560 -1244h-112v23z" />
<glyph unicode="8" d="M162 308q0 68 26 134t74 115q12 12 36 31l50 36l42.5 34.5t18.5 21.5q0 3 -0.5 7t-4.5 6l-77 79q-37 39 -65.5 81.5t-45.5 91t-17 107.5q0 73 23.5 133t66 103t103 67t134.5 24q65 0 125 -22.5t105.5 -63t73 -97t27.5 -123.5q0 -43 -13.5 -87.5t-36.5 -81.5 q-18 -27 -48.5 -55t-60.5 -51l-50 -38q-22 -15 -22 -18q0 -5 5.5 -10t8.5 -7l94 -82q45 -40 78.5 -86t53 -102.5t19.5 -130.5q0 -71 -27.5 -134.5t-75 -111.5t-110.5 -76t-135 -28q-71 0 -138.5 23.5t-120 67t-84.5 105.5t-32 138zM289 301q0 -57 18 -108.5t51 -90.5 t79 -61.5t102 -22.5q34 0 72 15.5t69.5 49.5t52 87t20.5 127q0 27 -11.5 55.5t-28.5 55.5t-38 51.5t-39 42.5q-11 11 -33 35t-48.5 48.5t-54 43t-48.5 18.5q-18 0 -32 -17l-26 -29q-56 -60 -80.5 -132.5t-24.5 -155.5v-12zM320 1126q0 -52 20 -96.5t52.5 -84.5t73.5 -77 l83 -71q8 -7 19.5 -10.5t19.5 -3.5q17 0 25.5 5t23.5 20q25 25 44 57t32.5 66.5t20.5 71t7 71.5q0 49 -13 96.5t-40 84.5t-68 59.5t-96 22.5q-46 0 -83.5 -17t-64.5 -45.5t-41.5 -67t-14.5 -81.5z" />
<glyph unicode="9" d="M103 -19q0 11 6 17t14 11q67 29 136.5 66.5t134 83t122 98t102.5 111.5q9 11 21.5 28.5t24 35.5t19.5 33t8 20q0 3 -1 5.5t-8 2.5l-102 -25q-50 -13 -106 -13q-95 0 -169 39.5t-126 103t-79 143.5t-27 162q0 89 30 174.5t85.5 152.5t134 108t174.5 41q111 0 200 -42.5 t151 -115t95.5 -168.5t33.5 -202q0 -140 -45 -262t-124.5 -223.5t-188 -181.5t-235.5 -135l-58 -25q-32 -13 -67.5 -24t-73 -18t-76.5 -7q-6 0 -6 6zM253 887q0 -66 19.5 -133t57 -120.5t91.5 -87.5t122 -34q24 0 51 3.5t53 11t49.5 17.5t40.5 24q20 16 31 52.5t16 80.5 t6 87.5t1 73.5q0 43 -3.5 94.5t-14.5 103t-30.5 99.5t-51 85t-77 59.5t-107.5 22.5q-52 0 -91.5 -19.5t-67.5 -52t-46.5 -75t-29.5 -88.5t-15 -92t-4 -86v-26z" />
<glyph unicode=":" horiz-adv-x="520" d="M130 799q0 26 10.5 49.5t28 41.5t41 28.5t50.5 10.5t50.5 -10.5t41.5 -28.5t28 -42t10 -50q0 -28 -10 -51.5t-28 -41t-41.5 -27t-50.5 -9.5t-50.5 10t-41 27t-28 41t-10.5 52zM130 103q0 26 10.5 49.5t28 41.5t41 28.5t50.5 10.5t50.5 -10.5t41.5 -28.5t28 -42t10 -50 q0 -28 -10 -51.5t-28 -41t-41.5 -27t-50.5 -9.5t-50.5 10t-41 27t-28 41t-10.5 52z" />
<glyph unicode=";" horiz-adv-x="520" d="M130 799q0 26 10.5 49.5t28 41.5t41 28.5t50.5 10.5t50.5 -10.5t41.5 -28.5t28 -42t10 -50q0 -28 -10 -51.5t-28 -41t-41.5 -27t-50.5 -9.5t-50.5 10t-41 27t-28 41t-10.5 52zM149 -260q0 8 6 15.5t14 13.5t15.5 11t11.5 9q17 15 36 34t34.5 41t26 45.5t10.5 49.5 q0 6 -0.5 13t-4 13.5t-11 10.5t-21.5 4q-29 0 -55 6.5t-46 20.5t-32 37.5t-12 58.5q0 24 10 44.5t26.5 35.5t38 24t43.5 9q40 0 70 -18t50 -47t30 -64.5t10 -69.5q0 -46 -13 -87.5t-36 -78.5t-54.5 -69t-69.5 -59q-14 -10 -31 -20t-31 -10q-10 0 -12.5 9.5t-2.5 17.5z" />
<glyph unicode="&#x3c;" d="M368 626l508 -303v-154l-703 418v72l703 411v-149z" />
<glyph unicode="=" d="M959 859v-127h-870v127h870zM959 519v-127h-870v127h870z" />
<glyph unicode="&#x3e;" d="M174 921v149l700 -414v-71l-700 -416v154l505 303z" />
<glyph unicode="?" horiz-adv-x="778" d="M272 358q-8 0 -19.5 13t-23.5 34.5t-23.5 47.5t-21 52.5t-16 50.5t-7.5 40q0 42 11.5 72.5t31.5 52t47 36.5t57 27t62.5 22.5t64.5 23.5q31 13 61.5 36t55 53.5t39.5 66t15 73.5q0 61 -24 99t-74 59t-127 28.5t-183 7.5q-18 1 -37 5.5t-34.5 13t-26 22.5t-10.5 35 q0 30 18.5 47t45.5 26t56 11t50 2q84 0 156 -29t124.5 -80.5t82.5 -123t30 -156.5q0 -59 -18 -112.5t-50 -99.5t-76 -83t-96 -62q-25 -12 -56.5 -22t-59.5 -24.5t-47 -36.5t-19 -58q0 -21 7 -39.5t17 -37.5l19 -39q10 -19 16 -41q0 -5 -6.5 -9t-11.5 -4zM153 90q0 23 9 44 t24.5 36.5t36.5 25t45 9.5t44.5 -9.5t36 -25t24.5 -36.5t9 -44q0 -24 -9 -45t-24.5 -37t-36 -25.5t-44.5 -9.5t-45 9.5t-36.5 25.5t-24.5 37t-9 45z" />
<glyph unicode="@" horiz-adv-x="1991" d="M1891 173q-51 -132 -129.5 -241.5t-183.5 -190t-235 -128.5t-282 -58q-130 0 -248 30t-219 85.5t-183 135t-140 178.5t-89.5 215.5t-31.5 246.5t31.5 253.5t89.5 234t140 203t183 159t219 104t248 37.5q121 0 224 -27t186 -75.5t146 -114.5t105.5 -144t64 -164.5 t21.5 -175.5q0 -107 -23 -201t-62.5 -173t-93 -141.5t-115 -106t-128.5 -66.5t-132 -23q-27 0 -63.5 2.5t-69 13.5t-55 35t-22.5 68q0 33 3 56t7 41.5t8 35t6 34.5q0 5 -1 10.5t-7 5.5q-8 0 -22 -11q-14 -10 -40 -33l-57 -51l-67 -58q-36 -30 -69.5 -54.5t-63 -40.5 t-48.5 -16q-38 0 -60.5 30t-34.5 71.5t-16 84.5t-4 70q0 46 12.5 95t29.5 91q43 104 116.5 192.5t167.5 153.5t203 102t222 37q13 0 15 -9.5t2 -18.5l-151 -692l-2 -16q-1 -7 -1.5 -13.5t-0.5 -11.5q0 -60 34 -92.5t88 -32.5q58 0 111.5 27t100.5 73t85.5 107t66 128 t42.5 137t15 135q0 127 -42 242t-126.5 204t-210.5 144t-294 61q-119 -3 -227.5 -38.5t-201.5 -97.5t-168 -146.5t-128.5 -185.5t-82 -215t-28.5 -233q0 -179 63.5 -329t175.5 -258t265 -168.5t332 -60.5q138 0 254.5 38.5t211 109.5t166.5 171.5t121 223.5h77zM712 329 q0 -21 2 -48t10.5 -51t25.5 -40t48 -16q37 0 68 20t63.5 52t70 73.5t86.5 85.5l99 455q0 11 -9 13.5t-18 2.5q-49 0 -100 -13.5t-97.5 -38t-86 -59t-65.5 -76.5q-50 -80 -71 -173.5t-26 -186.5z" />
<glyph unicode="A" horiz-adv-x="1457" d="M5 32q0 8 8 8q19 1 44.5 5.5t52 19t51.5 43t42 78.5l408 1181q0 -1 0.5 1t0.5 4q0 7 -5.5 17.5t-5.5 15.5t4 5h200q2 -1 5.5 -2t5.5 -6l423 -1187q14 -27 22.5 -49t19.5 -40.5t29 -34t50 -28.5q14 -7 38 -15t46 -8q5 0 6.5 -3t1.5 -6v-23q0 -2 -1.5 -5t-6.5 -3h-612 q-5 0 -6.5 3t-1.5 5v24q0 2 1.5 5t6.5 3q4 0 8 0.5t6 0.5q11 1 31.5 2t44.5 3.5t48.5 8t44.5 16t33 27.5t13 42q0 6 -2 14l-151 426q-1 2 -3.5 9t-8 14.5t-14 13.5t-20.5 6h-355q-13 0 -22 -6t-15 -13t-9.5 -14t-3.5 -8l-150 -439v-9q0 -4 2 -9q8 -25 29.5 -41.5t49.5 -26 t57.5 -13.5t52.5 -4h26q5 0 6.5 -3t1.5 -5v-24q0 -2 -1.5 -5t-6.5 -3h-511q-8 0 -8 8v24zM522 767q-2 -5 -3 -10t-1 -10q0 -6 3 -9.5t12 -3.5h295q11 0 14.5 4.5t3.5 10.5q0 5 -1 9t-3 9l-149 410q-10 27 -15 27t-8 -8l-8 -20z" />
<glyph unicode="B" horiz-adv-x="1392" d="M10 32q0 2 1.5 5t6.5 3q19 0 48 2t61.5 7.5t65.5 15.5t59 25t42.5 36t16.5 50v1055q-4 51 -19.5 79.5t-40 42.5t-57 17.5t-71.5 3.5h-57q-5 0 -6.5 3t-1.5 5v25q0 2 1.5 5t6.5 3q1 0 10.5 0.5t33.5 0.5t65 0.5t107 0.5q14 0 41.5 1t62 2t72.5 2.5t73 2.5t63 2t44 1 q51 0 113.5 -3.5t126 -15.5t123.5 -34.5t106.5 -60t74.5 -92.5t28 -132q0 -46 -14.5 -84t-37 -67.5t-48.5 -51t-48.5 -36t-39 -21.5t-18.5 -8q57 -32 108.5 -70t90.5 -85.5t61.5 -104.5t22.5 -126q0 -81 -22 -143t-58 -108t-82.5 -77.5t-95.5 -52t-97.5 -32t-88.5 -16.5 t-67.5 -6t-35.5 -1h-722q-5 0 -6.5 3t-1.5 5v24zM511 221q0 -39 20 -68t51 -49t69.5 -30t76.5 -10q70 0 133.5 28.5t111.5 77t76 113t28 135.5q0 85 -30.5 152.5t-83.5 114t-125 71t-155 24.5h-159q-10 0 -11.5 -3.5t-1.5 -7.5v-548zM509 861q0 -3 3 -11t20 -8h246 q48 0 89.5 19t72 52t48 77t17.5 94q0 76 -24.5 130t-68 88.5t-103 51t-130.5 16.5q-52 -3 -85 -2.5t-52 -2.5t-26 -13t-7 -33v-458z" />
<glyph unicode="C" horiz-adv-x="1566" d="M105 696q0 112 28 211.5t79 183.5t123 151t159.5 113.5t187.5 71.5t209 25q92 0 177.5 -16.5t176.5 -38.5q15 -4 31 -10l32 -11q14 -6 26 -10t18 -4q2 0 13.5 4t16.5 4h31q12 0 12 -17v-311q0 -6 -4.5 -8t-19.5 -2q-3 0 -8 0.5t-8 5.5q-2 3 -5 10l-6 13l-7.5 13t-4.5 9 q-75 150 -190 225.5t-265 75.5q-142 0 -251 -48t-183.5 -132t-112.5 -199.5t-38 -250.5q0 -95 19 -184.5t55.5 -168.5t90.5 -144.5t124.5 -113t157 -74t187.5 -26.5q85 0 161 28t139.5 74t113.5 105t84 121q2 5 4.5 5.5t7.5 0.5h13q3 0 6.5 -2.5t3.5 -10.5q0 -3 -0.5 -8 t-5.5 -14l-138 -304q-2 -3 -6 -5t-7 -2q-23 6 -32.5 7t-20.5 1q-30 0 -77 -11l-102 -22q-55 -12 -111 -22.5t-102 -10.5q-105 0 -204 23t-186 66.5t-159 107t-124 143.5t-80.5 176.5t-28.5 206.5z" />
<glyph unicode="D" horiz-adv-x="1664" d="M53 0q-6 0 -7 3.5t-1 4.5v28q0 1 1 4.5t7 3.5h22q21 0 52 2.5t60 14t49.5 35t20.5 64.5v1096q0 31 -13.5 52.5t-34 35t-45.5 19.5t-47 6h-64q-6 0 -7 3.5t-1 4.5v28q0 1 1 4.5t7 3.5h22l321 7q58 2 126 2h125q63 0 113 -1.5t96 -6t93 -11.5t105 -19q111 -23 206.5 -85 t165 -150t109 -195t39.5 -219q0 -108 -30 -204.5t-83.5 -178t-127 -147t-161.5 -111t-187 -70t-203 -24.5h-729zM452 125q0 -29 18.5 -45t49 -23.5t71.5 -8.5t86 -1q160 0 286.5 46t215 133t135.5 211.5t47 281.5q0 138 -43 257.5t-122.5 208t-192.5 139.5t-254 51h-272 q-15 0 -20 -6.5t-5 -20.5v-1223z" />
<glyph unicode="E" horiz-adv-x="1264" d="M7 36q0 1 1 4.5t7 3.5h22q42 3 86 3.5t80 11t59 37t23 82.5v1054q0 39 -16 63.5t-42 39.5t-59 22.5t-67 12.5h-21q-5 0 -6.5 3t-1.5 5v24q0 2 1.5 5t6.5 3h951q18 0 26 -6.5t10 -28.5l18 -290q0 -5 -5 -7.5t-12 -2.5q-8 0 -12 2t-7 6q-7 10 -10 29l-7 44q-3 24 -9.5 50 t-19.5 48t-35.5 38.5t-57.5 22.5h-417q-13 0 -13 -13v-517q0 -10 10 -10h346q25 0 49.5 6.5t43 23.5t30 47.5t11.5 78.5q0 8 8 8h24q8 0 8 -8v-428q0 -5 -3 -6.5t-5 -1.5h-24q-5 0 -6.5 3t-1.5 5q0 56 -11.5 90.5t-30.5 54t-43.5 26t-51.5 6.5h-343q-10 0 -10 -10v-487 q0 -29 9 -46.5t24.5 -26.5t35.5 -12t42 -3h333q58 0 97 26.5t63 64.5t35.5 79t14.5 70q3 28 30 28q5 0 8.5 -4t3.5 -9l-33 -336q-2 -5 -5.5 -9.5t-8.5 -4.5h-1114q-6 0 -7 3.5t-1 4.5v28z" />
<glyph unicode="F" horiz-adv-x="1167" d="M858 809q14 0 37 2.5t44.5 15t37 39t15.5 74.5q0 8 8 8h24q8 0 8 -8v-372q0 -5 -3 -6.5t-5 -1.5h-24q-5 0 -6.5 3t-1.5 5q0 54 -15.5 83.5t-36.5 43.5t-43.5 16.5t-36.5 2.5h-394q-12 0 -18 -7.5t-6 -19.5v-514q0 -27 10.5 -45.5t29 -32t43.5 -23.5t55 -19q15 -5 32 -9 t28 -4q6 0 7 -3.5t1 -4.5v-24q0 -2 -1.5 -5t-6.5 -3h-546q-5 0 -6.5 3t-1.5 5v24q0 2 1 5t7 3q11 0 28.5 4.5t26.5 8.5q43 19 70.5 50.5t27.5 76.5v1080q0 38 -21 60t-47.5 33t-50 14t-29.5 3h-4q-5 0 -6.5 3t-1.5 5v24q0 2 1.5 5t6.5 3h943q12 -2 18 -5.5t6 -17.5v-242 q0 -12 -3.5 -15t-12.5 -3h-12q-2 1 -5.5 17.5t-9.5 39t-14.5 45t-19.5 35.5q-14 15 -27 25t-29 16t-37 8t-51 2h-379q-20 0 -20 -20v-463q0 -23 24 -23h392z" />
<glyph unicode="G" horiz-adv-x="1621" d="M115 717q0 101 27 194t76 174.5t117.5 148t150.5 114.5t175.5 74t192.5 26q79 0 155 -14t137 -31t100 -31t44 -14h12q8 0 12.5 1.5t8 3.5t7.5 3.5t12 1.5h25q2 0 6.5 -1.5t4.5 -9.5v-333q0 -11 -6.5 -15t-15.5 -4h-4q-9 1 -14 10t-8 20t-4.5 21t-2.5 15 q-100 313 -422 313q-90 0 -167 -25.5t-139.5 -70.5t-111 -106.5t-81 -134.5t-49.5 -153.5t-17 -162.5q0 -85 16.5 -169.5t49.5 -161t82 -142t113.5 -113.5t144 -75t173.5 -27q33 0 74 4t81 13.5t74.5 26t53.5 42.5v274q0 43 -10.5 76.5t-38.5 56.5t-76 35t-123 12 q-6 0 -8.5 5.5t-2.5 13.5q0 5 2.5 11.5t8.5 6.5h610q8 0 9.5 -6t1.5 -12q0 -5 -2 -10t-9 -9q-27 -11 -55.5 -19t-52.5 -21t-39.5 -35.5t-15.5 -61.5v-325q0 -8 -6.5 -13t-20.5 -11q-56 -27 -120 -49.5t-130.5 -39t-133.5 -26t-128 -9.5q-155 0 -290 51.5t-236 148 t-159 234.5t-58 310z" />
<glyph unicode="H" horiz-adv-x="1712" d="M68 0q-5 0 -6.5 3t-1.5 5v24q0 2 1.5 5t6.5 3q31 0 62.5 4.5t57.5 19.5t42.5 43t16.5 76v1067q0 34 -11 57t-31 37.5t-48 21.5t-62 9q-8 0 -8 8v19q0 8 7 8h502q5 0 6.5 -3t1.5 -5v-19q0 -6 -8 -6q-30 0 -58 -5.5t-49 -20.5t-34 -42.5t-13 -72.5v-462q0 -10 3 -13t13 -3 h788q10 0 13 3t3 13v478q-2 9 -2.5 16.5t-1.5 14.5q-5 24 -29 41t-56.5 28t-68 16t-64.5 7q-8 0 -8 8v19q0 8 7 8h577q5 0 6.5 -3t1.5 -5v-19q0 -6 -8 -6q-30 0 -58.5 -5.5t-51 -20.5t-36 -42.5t-13.5 -72.5v-1055q0 -26 7.5 -46.5t23.5 -40.5q16 -22 52.5 -37t103.5 -17 q8 0 8 -8v-24q0 -8 -8 -8h-636q-5 0 -6.5 3t-1.5 5v24q0 2 1.5 5t6.5 3q30 0 73 4t83.5 17.5t69 39t28.5 69.5v477q0 10 -3 13t-13 3h-788q-10 0 -13 -3t-3 -13v-487q0 -34 15 -57t39.5 -37t56.5 -20t66 -6q6 0 7 -3t1 -5v-24q0 -2 -1 -5t-6 -3h-552z" />
<glyph unicode="I" horiz-adv-x="699" d="M447 160q0 -34 10.5 -57t30 -37t48 -20t63.5 -6q8 0 8 -8v-24q0 -3 -1 -5.5t-7 -2.5h-501q-5 0 -6.5 3t-1.5 5v24q0 2 1.5 5t6.5 3q35 0 63.5 4.5t48.5 19.5t31 43t11 76v1067q0 34 -10.5 57t-30 37t-48 20t-63.5 6q-8 0 -8 8v24q0 8 8 8h501q5 0 6.5 -3t1.5 -5v-24 q0 -2 -1.5 -5t-6.5 -3q-35 0 -63.5 -4.5t-48.5 -19.5t-31 -43t-11 -76v-1067z" />
<glyph unicode="J" horiz-adv-x="693" d="M246 1250q0 38 -13.5 61.5t-38.5 36.5t-61 17.5t-81 4.5q-8 0 -8 8v24q0 8 8 8h543q5 0 6.5 -3t1.5 -5v-24q0 -2 -1.5 -5t-6.5 -3q-31 0 -59 -4.5t-49 -19.5t-33.5 -43t-12.5 -76v-1237q0 -66 -14.5 -139t-42.5 -143t-69.5 -133t-96 -111t-122 -76t-146.5 -28 q-29 0 -63.5 8t-64.5 22t-51 33t-21 42q0 21 9.5 38t24 29t32.5 18.5t36 6.5q30 0 52 -7t38.5 -17.5t29 -23t26 -23t28 -17.5t35.5 -7q45 0 76.5 19t52 51.5t32 75.5t17 91.5t6.5 100t1 100.5v1350z" />
<glyph unicode="K" horiz-adv-x="1524" d="M248 1250q0 34 -18.5 57t-47.5 37.5t-64.5 21.5t-69.5 9q-8 0 -8 8v19q0 8 7 8h588q5 0 6.5 -3t1.5 -5v-19q0 -6 -8 -6q-29 0 -62.5 -5t-62.5 -19t-48 -39t-19 -66v-441q0 -42 3 -65t14 -23q6 0 11.5 0.5t10.5 3.5q57 26 105 65.5t89 86t77 97.5l69 103l38 57 q20 28 36.5 55.5t27.5 53t11 49.5q0 31 -13 48t-33 25t-43 10t-43 2h-10q-5 0 -6.5 3t-1.5 5v19q0 2 1 5t7 3h578q5 0 6.5 -3t1.5 -5v-19q0 -3 -3 -7.5t-9 -4.5q-61 -2 -111.5 -11.5t-92.5 -30.5t-77.5 -56t-66.5 -87q-53 -90 -97 -154.5t-78.5 -109t-61.5 -72.5l-44 -46 l-28 -30q-11 -11 -13 -22q5 -10 23 -26l48 -44l70 -67q41 -40 93 -98.5t115 -138t136 -183.5q35 -51 88 -89.5t119 -52.5q34 -8 54 -12t32 -5.5t19.5 -2t16.5 -0.5q5 0 6.5 -3t1.5 -5v-17q0 -8 -8 -8h-654q-8 0 -8 8v19q0 7 8 8q13 2 36.5 4t46 8t39.5 19t17 38 q-2 17 -22.5 50t-50.5 72.5t-65 80.5l-63 74q-35 39 -73.5 86.5t-80 89.5t-84.5 70t-85 28h-19q-8 0 -9 -3.5t-1 -10.5v-468q0 -45 18.5 -72.5t47 -42.5t62.5 -20t64 -5q5 0 6.5 -3t1.5 -5v-17q0 -2 -1.5 -5t-6.5 -3h-588q-7 0 -7 8v19q0 8 8 8q34 1 69.5 8.5t64.5 22 t47.5 37.5t18.5 57v1090z" />
<glyph unicode="L" horiz-adv-x="1239" d="M48 0q-5 0 -6.5 3t-1.5 5v24q0 2 1 5t7 3h24q3 0 19.5 1.5t38 5t44.5 9.5t39 15q35 20 52 51.5t17 70.5v1058q0 36 -23.5 59t-56 36.5t-66 18.5t-53.5 5h-22q-5 0 -6.5 3.5t-1.5 4.5v24q0 2 1.5 5t6.5 3h677q5 0 6.5 -3t1.5 -5v-24q0 -2 -1.5 -5t-6.5 -3h-43 q-56 0 -104 -9t-78 -20q-23 -8 -29.5 -26.5t-6.5 -63.5v-1109q2 -17 18 -32t36 -15h395q35 0 66.5 15t58.5 38.5t50 51.5t42 54l34 46q15 21 26 30q5 3 9.5 6t9.5 3q10 0 10 -13q0 -6 -3 -12l-151 -296q-4 -8 -9 -13t-12 -5h-1009z" />
<glyph unicode="M" horiz-adv-x="1929" d="M26 32q0 2 1.5 5t6.5 3q66 0 102.5 18.5t54 50t21.5 72.5t6 85q6 129 14 254l18 246q8 121 13.5 239t5.5 234v37q0 23 -15 40.5t-35.5 29.5t-41.5 18t-33 6q-8 0 -8 8v24q0 2 1 5t7 3h289q11 -2 18 -7.5t13 -14.5l469 -1045q5 -7 8 -12t10 -5q11 1 15.5 5.5t7.5 12.5 l464 1026q10 19 19 29.5t19 10.5h291q6 0 7 -3t1 -5v-24q0 -2 -1.5 -5t-6.5 -3q-2 0 -23.5 -4t-47 -15.5t-46.5 -33t-21 -56.5l60 -1105q1 -29 15.5 -49t35.5 -33t44.5 -19.5t44 -10t35 -4t15.5 -0.5q5 0 6.5 -3t1.5 -5v-24q0 -2 -1.5 -5t-6.5 -3h-568q-8 0 -8 8v24q0 8 8 8 q24 0 54.5 2.5t58.5 11.5t47 26.5t19 46.5l-53 955q-1 10 -6 10q-4 0 -7 -9l-497 -1076q-4 -7 -23 -7q-6 0 -13 1t-9 7l-490 1078l-4 10q-2 4 -6 4q-7 0 -7 -13q0 -30 -3.5 -99t-9.5 -158l-11 -189l-11 -193q-6 -93 -9.5 -169.5t-3.5 -118.5v-41q4 -19 20 -34t40 -25t53 -15 t61 -5q5 0 5.5 -3t0.5 -5v-24q0 -8 -6 -8h-467q-8 0 -8 8v24z" />
<glyph unicode="N" horiz-adv-x="1747" d="M68 0q-2 0 -5 2.5t-3 5.5v24q0 8 8 8h25q14 0 27.5 1t24.5 2t17 4q25 12 41 32t24.5 46t11.5 57t3 66v1039q0 27 -21.5 43.5t-50 25t-58 11.5t-44.5 3q-5 0 -6.5 3t-1.5 5v24q0 2 1.5 5t6.5 3h366l949 -1049q5 -5 7 -7.5t5 -2.5q4 0 5 3t1 6v689q0 99 -7 162t-26 98 t-51 48t-82 13h-51q-5 0 -6.5 3t-1.5 5v24q0 2 1.5 5t6.5 3h520q6 0 7 -3t1 -5v-24q0 -2 -1.5 -5t-6.5 -3q-20 0 -51.5 -8t-61.5 -23t-51.5 -37t-21.5 -50v-1223q0 -22 -6 -31.5t-31 -9.5q-20 0 -31 9t-26 26l-1031 1143q-7 7 -10 8.5t-8 1.5t-5 -10v-998q0 -28 13.5 -48.5 t34.5 -35t46.5 -23t50 -13.5t44 -6.5t29.5 -1.5q5 0 7 -4q1 -2 1 -4v-24q0 -2 -1.5 -5t-6.5 -3h-520z" />
<glyph unicode="O" horiz-adv-x="1770" d="M874 -27q-45 0 -119 11.5t-159 42t-171.5 83.5t-156.5 135t-114 197.5t-44 271.5q0 104 28 199.5t79 177.5t124 148.5t163 114t195.5 73t221.5 25.5q100 0 194 -25.5t176 -71.5t149.5 -111.5t116.5 -145.5t76 -172.5t27 -192.5q0 -94 -26 -187t-75 -177.5t-119 -156.5 t-157.5 -125.5t-190.5 -83.5t-218 -30zM320 752q0 -84 18.5 -169t53.5 -163t87 -146.5t118.5 -118.5t148 -79t175.5 -29q135 0 234.5 53.5t164.5 142.5t97 204.5t32 238.5q0 135 -40.5 260.5t-117.5 222.5t-188.5 155.5t-253.5 58.5q-85 0 -157.5 -25t-131.5 -68.5 t-104 -103.5t-75 -130.5t-45.5 -147.5t-15.5 -156z" />
<glyph unicode="P" horiz-adv-x="1211" d="M92 32q0 1 1 4.5t7 3.5q12 0 31.5 6t29.5 8q57 13 79.5 42.5t22.5 73.5v1056q0 50 -10 78.5t-29.5 43t-49 18t-68.5 3.5h-45q-11 0 -16 7.5t-5 16.5q0 5 2 10t11 7h7q5 0 19 0.5t37.5 1t61.5 1.5q111 2 221.5 7t221.5 5h101q87 -6 163.5 -39t132.5 -88t88.5 -129 t32.5 -161q0 -54 -16 -107t-43.5 -100.5t-64 -87.5t-78 -69t-86 -44.5t-86.5 -13.5l-284 12h-8q-7 0 -10 -2t-4 -4t-1 -8v-411q0 -27 7 -47t23.5 -34.5t43 -23.5t64.5 -14q6 -1 19 -3l29 -5q16 -2 30.5 -4t23.5 -2q6 0 7 -3t1 -5v-24q0 -2 -1.5 -5t-6.5 -3h-598q-5 0 -6.5 4 t-1.5 16v12zM460 681q1 -8 4.5 -14.5t14.5 -7.5q4 0 14.5 -1t24.5 -2t30.5 -2t32.5 -1q82 0 148.5 29.5t113 80.5t71.5 120t25 149q0 82 -25 146.5t-71 108t-110.5 66.5t-143.5 23h-26l-24 -2q-12 0 -25.5 -0.5t-30.5 -1.5q-6 0 -15.5 -2.5t-9.5 -13.5v-645z" />
<glyph unicode="Q" horiz-adv-x="1767" d="M773 -17q-139 21 -260 82.5t-210.5 156t-141 218t-51.5 267.5q0 165 60 301.5t165 235t248.5 152.5t310.5 54q107 0 205 -24.5t182.5 -69.5t154 -110.5t118.5 -146.5t75.5 -177.5t26.5 -204.5q0 -104 -28.5 -195.5t-80 -171.5t-123 -148t-157.5 -125q-6 -4 -29 -15 l-48 -24l-46.5 -24t-20.5 -14q0 -4 6 -6l109 -80l94 -72l72 -58l41 -32q40 -32 82.5 -62t89.5 -48q7 -3 22 -6t30 -7t26.5 -9t11.5 -11q0 -14 -11.5 -21.5t-29.5 -11t-39 -4t-39 -0.5q-74 0 -135.5 20t-124.5 54l-68 45l-64 45l-64 46l-70 52q-28 21 -51.5 43.5t-47 42 t-49 34t-56.5 19.5q-19 3 -42 5t-43 5zM318 748q2 -88 22 -174t57 -164t90 -144.5t120.5 -115t149.5 -76t177 -27.5q109 0 204 45t165 127.5t110 199.5t40 260q0 132 -36 255t-109.5 220t-185.5 158.5t-264 70.5q-125 0 -225 -51t-170 -137.5t-107.5 -202t-37.5 -244.5z" />
<glyph unicode="R" horiz-adv-x="1419" d="M44 32q0 1 1 4.5t7 3.5t19 2l27 4q14 2 26 4l17 4q57 13 79.5 42.5t22.5 73.5v1056q0 50 -21 79t-48.5 43.5t-53 18t-34.5 3.5h-38q-5 0 -6.5 3t-1.5 5v24q0 2 1 4.5t7 3.5h4q4 0 15 0.5t32 1t59 1.5q111 2 221.5 7t221.5 5h101q86 -6 162 -39t132.5 -88t89 -129 t32.5 -161q0 -62 -18 -110.5t-49.5 -86.5t-75 -67t-94.5 -52l303 -495q38 -63 92 -110t120 -73q8 -2 9.5 -5.5t1.5 -8.5q0 -15 -8 -20t-25 -5q-85 0 -158 23t-139 82q-32 29 -61 66.5t-58 84.5l-256 402q-3 3 -5 4l-236 11h-8q-7 0 -10 -2t-4 -4t-1 -8v-461q0 -27 7 -47 t23.5 -34.5t43 -23.5t64.5 -14l18 -3l24 -5l27 -4t22 -2q6 0 7 -3t1 -5v-24q0 -2 -1.5 -5t-6.5 -3h-615q-5 0 -6.5 4t-1.5 16v12zM440 718q1 -8 4.5 -14.5t14.5 -7.5q4 0 14.5 -1t24.5 -2t30.5 -2t32.5 -1q99 0 167.5 24t111 68t61 107.5t18.5 142.5q0 82 -27 146t-74 107.5 t-111 66t-138 22.5h-26l-24 -2q-12 0 -25.5 -0.5t-30.5 -1.5q-6 0 -15.5 -2.5t-9.5 -13.5v-606z" />
<glyph unicode="S" horiz-adv-x="1026" d="M135 27q-13 0 -16 21l-17 146q-6 52 -8.5 78t-3 33.5t-0.5 10.5q0 11 2.5 16.5t16.5 5.5q7 0 14.5 -9.5t14.5 -23t12 -27t7 -20.5q52 -111 137 -168t212 -57q54 0 103 17t86.5 49t59.5 77t22 102q0 71 -28.5 128t-74.5 105t-105 91l-121 84q-62 42 -121 86.5t-105 96.5 t-74.5 114.5t-28.5 141.5q0 76 32.5 136.5t85.5 103t120 65t136 22.5q37 0 74.5 -6.5t74 -15.5t73.5 -19.5t73 -19.5l56 7q5 0 7.5 -7.5t2.5 -14.5l26 -213l2 -10q2 -10 2 -12q0 -9 -15 -9q-6 0 -12.5 1.5t-8.5 3.5q-3 3 -7 13l-9 21l-12 24q-5 12 -11 20q-22 38 -55.5 70.5 t-73.5 56t-84.5 37t-89.5 13.5q-39 0 -80 -14t-74.5 -38.5t-55 -59.5t-21.5 -77q0 -66 27.5 -120t72.5 -100t103 -88l118 -85q61 -42 120 -88t106.5 -101.5t78 -122.5t35.5 -152q0 -89 -37.5 -158.5t-98.5 -117t-139 -72.5t-159 -25q-68 0 -118.5 10t-87 22.5t-61.5 22.5 t-42 10q-6 0 -9 -1z" />
<glyph unicode="T" horiz-adv-x="1502" d="M653 1287q0 21 -8.5 23.5t-20.5 4.5h-384q-37 -8 -60.5 -29.5t-38.5 -50.5t-23 -63l-15 -64q-2 -9 -4 -21.5t-4 -14.5q-2 -3 -7 -3h-18q-6 0 -6 4v33l37 312q2 11 5.5 21t18.5 10q7 0 12 -4t9 -9l10 -11q4 -5 10 -7q12 -5 22.5 -6.5t23.5 -1.5h1078q13 0 23.5 1.5 t22.5 6.5q6 2 10 7l10 11q4 5 9 9t12 4q15 0 18.5 -10t5.5 -21l37 -312v-33q0 -4 -6 -4h-18q-5 0 -7 3q-2 2 -4 14.5t-4 21.5l-15 64q-8 34 -23 63t-38.5 50.5t-60.5 29.5h-385q-12 -2 -20.5 -4.5t-8.5 -23.5v-1107q0 -30 15 -53.5t40.5 -41.5t60 -29t73.5 -15q11 -1 28 -1 h29q5 0 6.5 -3t1.5 -5v-24q0 -2 -1.5 -5t-6.5 -3h-687q-5 0 -6.5 3t-1.5 5v24q0 2 1.5 5t6.5 3h29q17 0 28 1q39 4 73.5 15t60 29t40.5 41.5t15 53.5v1107z" />
<glyph unicode="U" horiz-adv-x="1672" d="M211 1250q0 29 -13.5 51.5t-36.5 37.5t-53 23t-64 8q-8 0 -8 8v24q0 8 7 8h542q5 0 6.5 -3t1.5 -5v-24q0 -2 -1.5 -5t-6.5 -3q-30 0 -61.5 -4t-58 -18t-43 -40.5t-16.5 -71.5v-716q0 -78 21 -146.5t61.5 -124t99.5 -96t136 -63.5q1 0 3.5 -0.5t4.5 -0.5q3 -1 6 -1 q9 -2 27 -5t38.5 -5.5t39.5 -4.5t30 -2q102 0 191 28t154.5 83t103 135.5t37.5 185.5v636q0 34 -2.5 70t-16.5 68t-44 55.5t-85 32.5q-25 4 -41.5 4.5t-21.5 0.5q-8 0 -8 8v24q0 8 8 8h492q5 0 6.5 -3t1.5 -5v-24q0 -2 -2 -5t-6 -3q-36 0 -63.5 -5.5t-41.5 -11.5 q-17 -7 -31 -22.5t-23.5 -33.5t-14.5 -35t-5 -26v-655q0 -141 -37 -253.5t-111.5 -191t-187.5 -121t-264 -42.5q-72 0 -148.5 12t-149 36.5t-136.5 63t-112 91.5t-76 121t-28 153v800z" />
<glyph unicode="V" horiz-adv-x="1505" d="M737 -27q-24 0 -31 22l-527 1277q-9 22 -24 37.5t-31 26t-30.5 16t-23.5 7.5q-7 2 -16 4t-17.5 3.5t-15.5 2.5t-8 1q-8 0 -8 8v24q0 8 8 8h590q6 0 7 -2.5t1 -5.5v-24q0 -2 -1.5 -5t-6.5 -3h-15q-25 -4 -57.5 -8t-61 -14.5t-48 -31t-19.5 -56.5q0 -13 4.5 -30t9.5 -28 l379 -922q1 -2 3 -4l3 -3q2 -2 4 -3q5 0 11 11l348 942q7 20 7 40q0 35 -23 60.5t-64 32.5q-6 1 -19.5 3t-28.5 4.5t-29 4.5t-20 2q-8 0 -8 8v24q0 2 1 5t7 3h505q6 0 7 -3t1 -5v-24q0 -3 -1 -5.5t-7 -2.5h-37q-55 -11 -90 -42.5t-58 -74t-39 -91t-33 -93.5l-393 -1061 q-9 -25 -22 -30t-36 -5h-47z" />
<glyph unicode="W" horiz-adv-x="2262" d="M1152 649l-273 -641q-11 -24 -23 -29.5t-35 -5.5h-47q-24 0 -31 23l-530 1276q-6 15 -25.5 29t-43 25.5t-46 19.5t-34.5 11q-7 2 -17 4.5t-19.5 4.5t-17.5 3t-10 1q-8 0 -8 8v24q0 8 8 8h570q6 0 7 -2.5t1 -5.5v-24q0 -2 -1.5 -5t-6.5 -3h-18q-39 0 -62.5 -9t-36.5 -22.5 t-17 -28.5t-4 -27q0 -22 6.5 -41t11.5 -40l383 -922q5 -10 19 -10q6 0 9 3t6 8l221 520l-195 471q-6 15 -25.5 29t-43 25.5t-46 19.5t-34.5 11q-14 5 -32 9t-23 4q-8 0 -8 8v24q0 8 8 8h916q6 0 7 -3t1 -5v-24q0 -3 -1 -5.5t-7 -2.5h-37q-36 0 -62 -10t-46.5 -31t-37.5 -53 t-35 -75l-130 -305l256 -616q5 -10 19 -10q6 0 9 3t6 8l423 995q12 28 12 47q0 26 -26.5 36.5t-88.5 10.5h-62q-8 0 -8 8v24q0 2 1 5t7 3h445q6 0 7 -3t1 -5v-24q0 -3 -1 -5.5t-7 -2.5h-47q-24 0 -41 -9.5t-31 -28.5t-27 -48l-31 -69l-514 -1207q-11 -24 -23 -29.5t-35 -5.5 h-47q-24 0 -32 22zM1302 1323q0 23 -20 33.5t-66 12.5q-34 -2 -54.5 -11.5t-31.5 -22t-14.5 -27t-3.5 -25.5q0 -22 6.5 -41t11.5 -40l63 -153l97 227q12 28 12 47z" />
<glyph unicode="X" horiz-adv-x="1611" d="M5 32q0 8 8 8h39q57 7 103 35t85.5 66t74 82t68.5 82l315 415l-305 393q-29 37 -56 75t-58.5 71t-69.5 58t-88 37q-10 4 -24.5 7t-30 5t-29.5 3t-24 1q-5 0 -6.5 3t-1.5 5v24q0 2 1.5 5t6.5 3h659q6 0 7 -3t1 -5v-24q0 -2 -1 -5t-7 -3q-36 0 -67 -1t-54 -6.5t-36 -18 t-13 -35.5q0 -8 6.5 -22.5t10.5 -20.5l278 -369q6 -6 7 -8t7 -2q9 0 16.5 7.5t14.5 15.5l270 346q19 23 19 51q0 24 -16.5 36.5t-39.5 18.5t-49 7t-45 1q-8 0 -8 8v25q0 2 1 4.5t7 2.5h537q6 0 7 -2.5t1 -5.5v-24q0 -3 -1 -5.5t-7 -2.5q-52 0 -95.5 -15.5t-81.5 -41 t-71.5 -58.5t-64.5 -69q-2 -2 -15 -17l-26 -33l-24 -32q-11 -15 -11 -18l-97 -124l-66 -84l-42 -52l-21 -28q-7 -10 -9.5 -12.5t-3.5 -4.5q1 -1 4 -6.5t17 -24.5l43 -59l80 -108l132 -173l196 -256q13 -17 30.5 -33t37.5 -30t41.5 -24t42.5 -14q12 -6 28 -7l30 -2 q14 -1 24 -5t10 -16q0 -16 -12.5 -19.5t-26.5 -3.5h-551q-5 0 -6.5 3t-1.5 5v24q0 2 1 4q1 3 7 4q9 2 31 1.5t44 3.5t39 16t17 39q0 8 -4.5 19t-7.5 16l-352 465q-4 5 -7 7.5t-10 2.5q-8 0 -10.5 -2.5t-6.5 -7.5l-345 -455q-9 -12 -11.5 -20.5t-2.5 -19.5q0 -31 21.5 -43 t50 -15t56 -2t38.5 -5q8 -4 8 -8v-24q0 -2 -1.5 -5t-6.5 -3h-543q-5 0 -6.5 3t-1.5 5v24z" />
<glyph unicode="Y" horiz-adv-x="1527" d="M492 30q0 6 7 10.5t17.5 7t22.5 4t21 2.5q76 8 107 37.5t31 88.5v331q0 4 -0.5 7t-2.5 8l-409 652q-17 27 -36.5 54.5t-43 52t-51 43t-59.5 26.5q-5 1 -16 3.5t-23 4.5l-23 4q-11 2 -16 3q-10 1 -12 7.5t-2 15.5q0 5 2 11.5t13 6.5h572q11 0 14 -5t3 -13q0 -22 -17 -22 l-44 -4q-24 -3 -45 -10.5t-35.5 -22t-14.5 -41.5q0 -24 12 -43l338 -540q11 -16 13.5 -20.5t10.5 -4.5q7 0 13 8t14 21l270 459q12 24 27.5 51.5t15.5 56.5q0 28 -12 44.5t-30 25.5t-40 13t-43 7q-11 1 -14 7t-3 15q0 7 2.5 12.5t14.5 5.5h467q8 0 11 -6.5t3 -11.5 q0 -10 -4.5 -15t-12 -7.5t-16.5 -4t-18 -3.5q-50 -12 -86.5 -37t-71.5 -63q-5 -5 -14.5 -16t-10.5 -13l-395 -680v-373q0 -54 30.5 -85t107.5 -41q7 -1 18.5 -2.5t22.5 -4t19 -6.5t8 -10v-11q0 -14 -10 -17t-24 -3h-539q-14 0 -24 3t-10 17v10z" />
<glyph unicode="Z" horiz-adv-x="1460" d="M95 0q-7 0 -10.5 4.5t-5 11.5t-2 14.5t-0.5 12.5q0 11 4 22.5t12 20.5l935 1209q4 5 4 10q0 8 -7 9t-13 1h-607q-23 0 -48 -6.5t-47.5 -19t-40 -31.5t-26.5 -43q-3 -11 -10 -41.5t-19 -91.5q-2 -10 -6 -14.5t-21 -4.5q-12 0 -16 6l15 307q0 3 1 10.5t3 12.5q3 8 11 10 q4 1 8 1h1086q3 0 5.5 -5t5 -11.5t4 -14t1.5 -12.5q0 -21 -13 -40l-899 -1163q-3 -5 -11.5 -17t-8.5 -20q0 -14 16 -20.5t30 -6.5h705q28 0 51 11t42 27q30 24 49 57t30.5 69.5t16.5 74.5t8 74q2 11 7.5 13t14.5 2q5 0 10 -3.5t5 -8.5v-47l-21 -310q-1 -11 -1 -21.5 t-2.5 -18.5t-8 -13.5t-17.5 -5.5h-1219z" />
<glyph unicode="[" horiz-adv-x="740" d="M702 1731v-86h-271q-73 0 -73 -73v-1755q0 -73 73 -73h294v-86h-520v2073h497z" />
<glyph unicode="\" horiz-adv-x="665" d="M136.032 1452h-129.992l524.968 -1479h128.992z" />
<glyph unicode="]" horiz-adv-x="740" d="M15 -342v86h296q38 0 55 17.5t17 55.5v1755q0 38 -17 55.5t-55 17.5h-274v86h498v-2073h-520z" />
<glyph unicode="^" d="M529 1186l-305 -507h-148l421 700h63l412 -700h-148z" />
<glyph unicode="_" horiz-adv-x="1014" d="M-16 -205h1046v-115h-1046v115z" />
<glyph unicode="`" horiz-adv-x="700" d="M478 1067q-4 -4 -8 -4q-2 0 -6 4l-269 217q-20 17 -37.5 40t-17.5 54q0 29 20.5 51.5t51.5 22.5q18 0 37 -11.5t38 -37.5l213 -295q4 -4 4 -6t-4 -6z" />
<glyph unicode="a" horiz-adv-x="885" d="M411 24l-31 -20q-14 -9 -28.5 -15.5t-32 -10t-39.5 -3.5q-38 0 -75.5 14.5t-67.5 41t-48.5 64t-18.5 84.5q0 39 12.5 70t46.5 58t92.5 51t151.5 48q50 13 81 28l56 29q17 9 19.5 16t2.5 13v192q0 33 -10 64.5t-29.5 55.5t-48.5 39t-67 15q-18 0 -39.5 -7t-41 -22 t-32.5 -38t-13 -56q0 -3 0.5 -9t1.5 -12.5t2 -11.5t1 -6q-2 -4 -21.5 -14.5t-44.5 -21.5l-48 -22q-24 -10 -34 -12q-11 0 -13.5 11.5t-2.5 22.5q0 44 24.5 86t61.5 76t79 58.5t77 33.5q49 13 102 13q84 0 149 -52q44 -35 73.5 -79t29.5 -104v-527q0 -26 24.5 -41.5 t55.5 -15.5q18 0 31 5t22.5 11.5t16 11.5t12.5 5q8 0 9 -6.5t1 -11.5q0 -17 -4.5 -24.5t-15.5 -15.5l-107 -78q-17 -13 -44 -22.5t-52 -9.5q-21 0 -36 11t-26.5 27t-19.5 34.5t-13.5 34.5t-8.5 26t-5 9zM227 199q0 -27 10.5 -50t27.5 -39.5t38.5 -25.5t44.5 -9q21 0 52 10.5 t60.5 28t50.5 40t21 45.5v203q0 11 -8 11q-2 0 -4 -1l-232 -108l-26 -18q-11 -9 -19 -20.5t-12 -27t-4 -39.5z" />
<glyph unicode="b" horiz-adv-x="1099" d="M282 1639q4 2 8.5 4t6.5 2q17 0 17 -24v-784q0 -10 2.5 -20.5t12.5 -10.5q3 0 23 10l44 22q27 14 60 33q40 17 69.5 28t51.5 17t38.5 8.5t31.5 2.5q79 0 142 -40t107.5 -104.5t68.5 -145.5t24 -162q0 -100 -33 -191t-95.5 -160t-152 -110t-201.5 -41q-60 0 -105 4.5 t-82.5 12t-72.5 17.5t-75 20q-9 2 -11.5 8.5t-2.5 15.5v1348q0 24 -13 37.5t-33 20.5t-43 11.5t-44 10.5q-6 2 -9.5 5.5t-3.5 14.5q0 5 3 10t12 10zM326 741q-8 -5 -10 -10.5t-2 -13.5v-473q5 -47 26.5 -83t54.5 -60.5t74.5 -37t85.5 -12.5q72 0 126 34t90.5 87t55 119 t18.5 131q0 66 -18 134t-56 123.5t-97 90.5t-141 35q-55 0 -107.5 -18.5t-99.5 -45.5z" />
<glyph unicode="c" horiz-adv-x="934" d="M90 395q1 151 39 253.5t105.5 164.5t159 88.5t199.5 26.5q32 0 68.5 -1.5t70.5 -9t62.5 -25t46.5 -48.5q5 -8 9.5 -18t4.5 -19q0 -38 -23.5 -54t-57.5 -16q-25 0 -44.5 9.5t-36.5 23.5t-32.5 30.5t-32.5 30.5t-37 23.5t-45 9.5q-26 0 -55.5 -10.5t-50.5 -24.5 q-48 -27 -81.5 -65.5t-55 -84t-31.5 -97t-10 -103.5q0 -78 17.5 -149.5t56.5 -126t101 -87t150 -32.5q45 0 86 15t76 40q16 11 31.5 26t27.5 29l22 24q8 9 11 9q9 0 16 -6t7 -14q0 -4 -0.5 -10t-5.5 -11q-72 -100 -168 -156.5t-217 -56.5q-87 0 -157.5 35t-121 93.5 t-77.5 134.5t-27 159z" />
<glyph unicode="d" horiz-adv-x="1090" d="M884 1639q4 2 8.5 4t6.5 2q17 0 17 -24v-1424q5 -44 25 -63t65 -19l58 4q4 0 5 -5.5t1 -11.5q0 -2 -2.5 -5t-12.5 -8l-266 -110q-2 -1 -10 -3.5t-9 -2.5q-7 0 -8.5 8.5t-1.5 16.5v91q0 10 -7 10q-3 0 -9 -3l-72 -42q-37 -22 -75.5 -40t-79 -29.5t-82.5 -11.5 q-90 0 -156 40t-109 103.5t-64 143t-21 158.5q0 98 36.5 185.5t101 153.5t151.5 105t188 39q31 0 61.5 -3.5t61.5 -12.5q12 -3 29 -9t34 -6q3 0 5 1q1 0 3 1l4 11v516q0 24 -13 37.5t-33 20.5t-43 11.5t-44 10.5q-6 2 -9.5 5.5t-3.5 14.5q0 5 3 10t12 10zM236 463 q0 -72 19.5 -141.5t59.5 -123.5t99.5 -87t139.5 -33q7 0 25.5 3.5t41.5 9t47.5 13.5t45 17.5t33.5 19t13 19.5v516q0 3 -2 10t-4 10q-2 2 -9.5 12t-10.5 13q-37 51 -89.5 80.5t-115.5 29.5q-75 0 -130 -33t-91 -85.5t-54 -118.5t-18 -131z" />
<glyph unicode="e" horiz-adv-x="930" d="M70 405q0 98 28 192t82.5 167.5t135.5 118t187 44.5q46 0 89 -8t83 -33q15 -8 33 -27t35.5 -43.5t34 -53t29.5 -56t20.5 -52t7.5 -40.5q0 -14 -5 -25.5t-19 -11.5h-580q-10 0 -13.5 -18t-3.5 -44q0 -24 2 -52.5t5 -54t6 -44t4 -22.5q13 -57 44 -104t74 -81t96 -52.5 t110 -18.5q35 0 67.5 11t62.5 28.5t58 38.5l54 43q2 2 5 2h5q6 0 11.5 -9.5t10.5 -12.5q-32 -39 -75.5 -77.5t-94 -69t-104 -49t-105.5 -18.5q-84 0 -154 37.5t-120.5 98.5t-78 138.5t-27.5 157.5zM242 643q0 -8 5 -13.5t13 -5.5h367q26 0 26 23q0 39 -15.5 77t-42.5 67.5 t-62.5 48t-75.5 18.5t-75.5 -16.5t-64 -44.5t-48 -65t-27.5 -77v-12z" />
<glyph unicode="f" horiz-adv-x="624" d="M40 16q0 9 10 13q13 6 37 9.5t48 14t42 33t18 66.5v606q0 11 -12 11h-109q-12 0 -23 7.5t-11 21.5q0 11 11.5 18t28.5 12.5t37.5 11t37.5 13.5t28.5 18.5t11.5 27.5v33q0 100 13.5 200.5t48.5 190.5t94 163.5t151 119.5q60 30 114 48t120 18q14 0 44 -6.5t61 -18.5 t54 -29.5t23 -39.5q0 -8 -2.5 -14t-5.5 -15q-2 -5 -8 -17l-12 -26l-13 -27q-6 -13 -8 -18q-2 -4 -7.5 -10t-11.5 -6q-2 0 -4.5 1.5t-12.5 9.5l-47 36q-24 19 -50 34.5t-54 25t-57 9.5q-68 0 -114.5 -18.5t-77 -49t-47 -69t-24.5 -79t-9.5 -79t-1.5 -67.5v-291q0 -6 2.5 -7 t7.5 -1h195q28 0 36.5 -5.5t12.5 -20.5q6 -23 9 -42.5t3 -41.5q0 -13 -5 -17t-21 -4h-227q-2 0 -7.5 -1t-5.5 -9v-587q0 -44 22 -72t57.5 -43.5t80 -21.5t88.5 -6q18 -2 18 -13q0 -5 -2.5 -10.5t-15.5 -5.5h-549q-10 2 -10 16z" />
<glyph unicode="g" horiz-adv-x="1148" d="M819 831q66 0 129.5 6t138.5 6q23 0 30 -5t11 -19q6 -23 9 -42.5t3 -41.5q0 -13 -5 -17t-20 -4h-222l13 -23q7 -12 13.5 -28.5t11 -38t4.5 -50.5q0 -68 -28.5 -131.5t-83.5 -113t-134.5 -79.5t-181.5 -30q-17 0 -30.5 1t-26 3t-26.5 6l-29 9q-15 -16 -40 -29l-49 -28 q-25 -14 -42.5 -30.5t-17.5 -37.5q0 -46 82.5 -66t266.5 -21q104 -1 176 -4.5t123 -13t85 -26.5t62 -45q44 -44 58 -88t14 -83t-18 -84.5t-54.5 -91t-91.5 -87t-129 -73.5t-167.5 -51t-206.5 -19q-95 0 -166 20t-117.5 52.5t-69.5 74.5t-23 87q0 53 25 87.5t63 65.5l85 64 q46 33 88 85q-50 4 -92.5 21t-73.5 41t-49 53t-18 59q0 42 27 66.5t66 42t82 32.5t75 39q-112 44 -173 121.5t-61 181.5q0 79 33 147.5t91 119t136.5 79.5t169.5 29q85 0 154.5 -25t120.5 -73zM222 -323q0 -43 28.5 -86.5t77 -79t114.5 -57.5t141 -22q78 0 151 24t129 64 t90 92.5t34 110.5q0 34 -13.5 60t-36 44t-52.5 28.5t-63 13.5q-16 1 -50 2.5t-77 3t-91 2.5t-92 2.5t-79 3.5t-53 4q-26 -30 -53.5 -53t-51 -46t-38.5 -49t-15 -62zM771 552q0 79 -19 140.5t-53 104t-81.5 64.5t-103.5 22q-35 0 -76 -11.5t-76.5 -43t-59.5 -86t-24 -139.5 q0 -54 14 -113.5t45 -109t80.5 -82t119.5 -32.5q53 0 96.5 21t74 58.5t47 90.5t16.5 116z" />
<glyph unicode="h" horiz-adv-x="1124" d="M496 16q0 -14 -10 -16h-446q-10 2 -10 16q0 9 10 13q13 6 37 9.5t48 14t42 33t18 66.5v1247q0 24 -13 37.5t-33 20.5t-43 11.5t-44 10.5q-6 2 -9.5 5.5t-3.5 14.5q0 5 3 10t12 10l255 120q4 2 8.5 4t6.5 2q17 0 17 -24v-847q0 -4 1 -14t6 -10q7 0 10 3.5t9 9.5 q29 33 58.5 62.5t61.5 52t69.5 35.5t83.5 13q62 0 116.5 -14.5t95 -54t64 -109t23.5 -179.5v-417q0 -44 18 -66.5t42 -33t48 -14t37 -9.5q10 -4 10 -13q0 -14 -10 -16h-446q-10 2 -10 16q0 9 10 13q13 6 37 9.5t48 14t42 33t18 66.5v407q0 58 -3 109t-20.5 89t-56 59.5 t-108.5 21.5q-36 0 -80 -17.5t-83 -47t-65 -68t-26 -80.5v-473q0 -44 18 -66.5t42 -33t48 -14t37 -9.5q10 -4 10 -13z" />
<glyph unicode="i" horiz-adv-x="576" d="M70 0q-10 2 -10 16q0 9 10 13q13 6 37 9.5t48 14t42 33t18 66.5v529q0 24 -13 37.5t-33 20.5t-43 11.5t-44 10.5q-6 2 -9.5 5.5t-3.5 14.5q0 5 3 10t12 10l255 120q4 2 8.5 4t6.5 2q17 0 17 -24v-751q0 -44 18 -66.5t42 -33t48 -14t37 -9.5q10 -4 10 -13q0 -14 -10 -16 h-446zM174 1307q0 46 30 73t76 27q19 0 36 -9t30 -23.5t20.5 -32t7.5 -35.5q0 -20 -7.5 -37.5t-20 -31.5t-29.5 -22t-35 -8q-45 0 -76.5 26t-31.5 73z" />
<glyph unicode="j" horiz-adv-x="577" d="M339 921q4 2 8.5 4t6.5 2q17 0 17 -24v-1030q0 -47 -7 -97t-21.5 -99t-37.5 -94.5t-55 -82.5q-32 -43 -67 -70.5t-75.5 -43t-89 -21t-106.5 -5.5q-24 0 -51 11t-50.5 29t-39.5 41t-18 47q0 15 6.5 31t18.5 28.5t28.5 20.5t36.5 8q2 0 6.5 -1.5t18 -9.5t38.5 -26l68 -51 q20 -15 50.5 -23t84.5 -8q34 8 55 33.5t32.5 58.5t15 69t3.5 65v998q0 24 -13 37.5t-33 20.5t-43 11.5t-44 10.5q-6 2 -9.5 5.5t-3.5 14.5q0 5 3 10t12 10zM160 1307q0 46 30 73t77 27q19 0 36 -9t30 -23.5t20.5 -32t7.5 -35.5q0 -20 -7.5 -37.5t-20 -31.5t-29.5 -22t-35 -8 q-45 0 -77 26t-32 73z" />
<glyph unicode="k" horiz-adv-x="1096" d="M510 17q0 -6 -2 -11.5t-8 -5.5h-446q-10 2 -10 16q0 9 10 13q13 6 37 9.5t48 14t42 33t18 66.5v1247q0 24 -13 37.5t-33 20.5t-43 11.5t-44 10.5q-6 2 -9.5 5.5t-3.5 14.5q0 5 3 10t12 10l255 120q4 2 8.5 4t6.5 2q17 0 17 -24v-998q8 -29 21 -34t26 -5q17 0 43.5 13.5 t57 34.5t61 47t55 51.5t40 47t15.5 33.5q0 20 -19 25.5t-42.5 8t-42.5 8t-19 24.5q0 14 13 18.5t28 4.5h381q4 0 10 -0.5t11.5 -3t9.5 -7t4 -12.5q0 -12 -23 -19t-57 -14.5t-71.5 -19t-65.5 -33.5l-287 -224q0 -8 7 -17.5t12 -14.5l411 -433q26 -27 53 -40t49 -20l36 -10 q14 -4 14 -14q0 -5 -2 -11.5t-14 -6.5h-439q-7 0 -8.5 5.5t-1.5 11.5q0 7 10 12t25.5 8t30 8.5t24.5 14.5t10 26q0 11 -15 29l-28 35l-309 327q0 1 -1 2h-1q-6 0 -9 -15t-3 -34v-278q0 -44 18 -66.5t42 -33t48 -14t37 -9.5q10 -4 10 -12z" />
<glyph unicode="l" horiz-adv-x="521" d="M486 16q0 -14 -10 -16h-446q-10 2 -10 16q0 9 10 13q13 6 37 9.5t48 14t42 33t18 66.5v1247q0 24 -13 37.5t-33 20.5t-43 11.5t-44 10.5q-6 2 -9.5 5.5t-3.5 14.5q0 5 3 10t12 10l255 120q4 2 8.5 4t6.5 2q17 0 17 -24v-1469q0 -44 18 -66.5t42 -33t48 -14t37 -9.5 q10 -4 10 -13z" />
<glyph unicode="m" horiz-adv-x="1732" d="M321 970q4 2 8.5 4t6.5 2q17 0 17 -24v-166q1 -6 8 -6q6 0 14 4q45 24 88 49.5t86.5 46.5t87.5 34t89 13t76 -11t52 -28.5t34.5 -38t23.5 -39.5q1 -3 4 -7.5t7.5 -9.5t9 -8.5t9.5 -3.5q8 1 14 3l15 6l219 110q29 15 65.5 21t67.5 6q49 0 85 -21t60.5 -55.5t40 -79 t23.5 -91t11 -92t3 -82.5q0 -69 -4.5 -138.5t-4.5 -153.5v-58q0 -30 11 -50t28.5 -33t38.5 -19.5t41 -10.5t36.5 -6.5t25.5 -6.5q10 -4 10 -14q0 -14 -10 -16h-482q-10 2 -10 16q0 10 10 14q13 6 37 9.5t48 15t41.5 35.5t17.5 72v2q5 31 6.5 68.5t1.5 82.5t-1 96.5t-1 114.5 q0 32 -2 67.5t-7.5 69.5t-16.5 64.5t-30.5 54t-47.5 37t-68 13.5q-10 0 -25 -2.5t-41.5 -11.5t-68.5 -27t-106 -49q-8 -5 -16.5 -11.5t-9.5 -16.5v-558q0 -45 18 -68.5t42 -34t48 -14t37 -9.5q10 -4 10 -14q0 -14 -10 -16h-446q-10 2 -10 16q0 10 10 14q13 6 37 9.5t48 14 t42 34t18 68.5v498q0 78 -48 127.5t-146 49.5q-23 0 -58 -12.5t-71.5 -31.5t-68 -40t-46.5 -39v-552q0 -45 18 -68.5t42 -34t48 -14t37 -9.5q10 -4 10 -14q0 -14 -10 -16h-446q-10 2 -10 16q0 10 10 14q13 6 37 9.5t48 14t42 33t18 67.5v576q0 24 -13 37.5t-33 20.5 t-43 11.5t-44 10.5q-6 2 -9.5 5.5t-3.5 14.5q0 5 3 10t12 10z" />
<glyph unicode="n" horiz-adv-x="1164" d="M331 970q4 2 8.5 4t6.5 2q17 0 17 -24v-156q3 -10 8 -10t7.5 1t8.5 3l219 110q29 15 65.5 21t67.5 6q49 0 85 -21t60.5 -55.5t40 -79t23.5 -91t11 -92t3 -82.5q0 -69 -4.5 -138.5t-4.5 -153.5v-58q0 -30 11 -50t28.5 -33t38.5 -19.5t41 -10.5t36.5 -6.5t25.5 -6.5 q10 -4 10 -14q0 -14 -10 -16h-482q-10 2 -10 16q0 10 10 14q13 6 37 9.5t48 15t41.5 35.5t17.5 72v2q5 31 6.5 68.5t1.5 82.5t-1 96.5t-1 114.5q0 32 -2 67.5t-7.5 69.5t-16.5 64.5t-30.5 54t-47.5 37t-68 13.5q-10 0 -25 -2.5t-41.5 -11.5t-68.5 -27t-106 -49 q-8 -5 -16.5 -11.5t-9.5 -16.5v-558q0 -45 18 -68.5t42 -34t48 -14t37 -9.5q10 -4 10 -14q0 -14 -10 -16h-446q-10 2 -10 16q0 10 10 14q13 6 37 9.5t48 14t42 34t18 68.5v574q0 24 -13 37.5t-33 20.5t-43 11.5t-44 10.5q-6 2 -9.5 5.5t-3.5 14.5q0 5 3 10t12 10z" />
<glyph unicode="o" horiz-adv-x="1107" d="M75 460q0 93 37.5 177.5t101.5 149.5t149 103.5t179 38.5q99 0 188 -36t156 -100t106.5 -150.5t39.5 -186.5q0 -103 -36 -191t-100 -153t-152 -102t-193 -37q-104 0 -191 38t-150.5 103.5t-99 154.5t-35.5 191zM241 523q0 -83 20.5 -170.5t63 -160t108.5 -119t158 -46.5 q71 0 122 31.5t84 81.5t48.5 112t15.5 124q0 49 -10.5 104.5t-31 110t-50.5 104t-69.5 87.5t-88 60.5t-105.5 22.5q-67 0 -117 -31t-83 -80.5t-49 -110.5t-16 -120z" />
<glyph unicode="p" horiz-adv-x="1090" d="M272 962q2 2 5 3.5t6 3.5h4l4 2q4 2 8.5 4t6.5 2q17 0 17 -24v-127q0 -5 4.5 -8t7.5 -3q11 0 18 7q81 50 152 77t149 27q52 0 96 -21.5t80.5 -57t64.5 -82.5t46.5 -98t28.5 -103t10 -97q0 -72 -19 -137t-54 -121.5t-84 -103.5t-110 -81q-42 -23 -90 -37t-98 -14 q-45 0 -87.5 6t-93.5 17q-17 0 -18.5 -12t-2.5 -25v-427q0 -30 12.5 -49t32 -31.5t43 -19t45.5 -10.5t40 -6.5t27 -6.5q10 -4 10 -13q0 -14 -10 -16h-501q-10 2 -10 16q0 9 10 13q13 6 37 9.5t48 14t42 33t18 66.5v1199q0 24 -13 37.5t-33 20.5t-43 11.5t-44 10.5 q-6 2 -9.5 5.5t-3.5 14.5q0 5 3 10t12 10zM537 822q-54 0 -103.5 -15t-95.5 -49q-2 -1 -4 -4l-5 -4l-6 -6v-562q0 -3 1 -16.5t3 -24.5q2 -14 16.5 -26.5t35.5 -23t46.5 -19t49.5 -14t44.5 -8.5t32.5 -3q66 0 117 26.5t86 71t53 101.5t18 118q0 47 -5.5 98.5t-18.5 101.5 t-35 95.5t-54 81t-75.5 57t-100.5 24.5z" />
<glyph unicode="q" horiz-adv-x="1096" d="M933 -468q0 -44 18 -66.5t42 -33t48 -14t37 -9.5q10 -4 10 -13q0 -14 -10 -16h-536q-10 2 -10 16q0 9 10 13q9 4 29.5 6.5t46.5 6.5t54 10.5t51.5 19t38.5 31.5t15 49v568q0 5 -1 5.5t-3 0.5q-5 0 -18 -8l-93 -53q-41 -23 -77 -39t-71 -24.5t-77 -8.5q-51 0 -96 19.5 t-82 53.5t-67 79t-50 95.5t-31 104t-11 103.5q0 101 37.5 191.5t103 159t153 108.5t187.5 40q66 0 125 -16.5t116 -47.5h7q13 0 26 11t25 24l22 26q9 11 15 11h10q2 0 4 -0.5t2 -5.5v-1397zM251 415q0 -75 27.5 -136t71 -104.5t97 -67t105.5 -23.5q66 0 131 28q10 4 25 12 t29 17t25 17.5t15 13.5v454q0 64 -19.5 110t-52.5 75.5t-75.5 43.5t-87.5 14q-64 0 -117.5 -33t-92 -93t-60 -143t-21.5 -183v-2z" />
<glyph unicode="r" horiz-adv-x="747" d="M331 921q4 2 8.5 4t6.5 2q17 0 17 -24v-162q0 -3 0.5 -7.5t5.5 -4.5t8 3.5t6 6.5l39 53q21 30 44.5 56t49 43.5t51.5 17.5q18 0 48.5 -8.5t60 -20t50.5 -24.5t21 -22t-6 -28.5t-15.5 -39t-22 -34.5t-25.5 -15h-2q-18 6 -36 15l-38 16q-19 9 -38.5 14.5t-39.5 5.5 q-30 0 -59 -17t-51.5 -42.5t-36.5 -54t-14 -50.5v-452q0 -30 12.5 -49t32 -31.5t43 -19t45.5 -10.5t40 -6.5t27 -6.5q10 -4 10 -13q0 -14 -10 -16h-501q-10 2 -10 16q0 9 10 13q13 6 37 9.5t48 14t42 33t18 66.5v529q0 24 -13 37.5t-33 20.5t-43 11.5t-44 10.5 q-6 2 -9.5 5.5t-3.5 14.5q0 5 3 10t12 10z" />
<glyph unicode="s" horiz-adv-x="685" d="M162 6q-9 0 -16 -5t-13.5 -11.5t-12.5 -11.5t-14 -5h-17q-2 0 -6 27.5t-7 65.5l-8 81q-3 42 -3 71q0 11 3.5 13t12.5 2q7 0 12.5 -5t9.5 -12.5t6.5 -15.5t5.5 -14q17 -37 37 -66.5t46 -50.5t59 -32.5t75 -11.5q32 0 58 13t44 35t27.5 49t9.5 56q0 54 -30 93t-74.5 71 t-97 62.5t-97 67.5t-74.5 86t-30 118q0 34 12.5 65t32.5 57t44 47.5t48 36.5t63 30t96 15q31 0 59.5 -5t52 -12t39 -14t20.5 -11q7 -5 11 -12.5t6 -19.5t2.5 -31t0.5 -46v-92q0 -9 -3 -15.5t-15 -6.5q-11 0 -14.5 4t-6.5 13q-12 31 -29.5 62.5t-40.5 56.5t-53.5 40.5 t-68.5 15.5q-28 0 -52.5 -10.5t-42.5 -31t-28.5 -51t-10.5 -69.5q14 -46 45.5 -73t71.5 -52l105 -63q54 -32 98 -71t72 -89.5t28 -120.5q0 -58 -24 -104.5t-64 -78.5t-91.5 -49.5t-106.5 -17.5q-41 0 -80.5 9.5t-77.5 23.5h-4z" />
<glyph unicode="t" horiz-adv-x="647" d="M151 769h-75q-14 0 -22 7t-9 15q0 5 2 11t5 8q40 26 76 58l70 64q10 11 27 33t35.5 43.5t37 38t31.5 16.5q12 0 12 -14q0 -7 -3.5 -21.5t-8.5 -32.5l-11 -38q-6 -20 -11 -39q0 -8 2.5 -13t13.5 -6h255q16 0 22 -5.5t9 -14.5q2 -5 4 -17.5t4 -27.5t3.5 -31t1.5 -28 q0 -6 -8 -6h-301q-5 0 -5.5 -2t-0.5 -7v-552q0 -32 8 -56t20.5 -40t28.5 -24t32 -8q46 0 76.5 13.5t53.5 29.5l40 29q18 14 38 14q8 0 8 -7q0 -14 -2 -21.5t-6 -12.5q-2 -3 -21 -27.5t-51 -52t-74 -50t-90 -22.5q-54 0 -95 20t-68 53.5t-40.5 76.5t-13.5 89v557z" />
<glyph unicode="u" horiz-adv-x="1124" d="M164 736q-3 29 -26.5 49.5t-50.5 26.5q-7 2 -15.5 2.5t-15.5 2t-11.5 5t-4.5 12.5q0 8 2.5 14t13.5 9l229 66q6 2 12.5 3t12.5 1q10 0 10 -17v-691q0 -34 21 -61.5t53.5 -46.5t70.5 -29t72 -10q4 0 22.5 2.5t42 8.5t49 15t44.5 21q12 8 28 17t31 28v572q-3 29 -26.5 49.5 t-50.5 26.5q-7 2 -15.5 2.5t-15.5 2t-11.5 5t-4.5 12.5q0 8 2.5 14t13.5 9l229 66q6 2 12.5 3t12.5 1q7 0 9 -9h1v-721q5 -44 25 -63t65 -19l58 4q4 0 5 -5.5t1 -11.5q0 -2 -2.5 -5t-12.5 -8l-266 -110q-2 -1 -10 -3.5t-9 -2.5q-7 0 -8.5 8.5t-1.5 16.5v96q-3 4 -10 4h-4 q-2 0 -2 -2l-160 -78l-41 -16l-37 -14q-19 -7 -40 -11t-46 -4q-42 0 -86.5 8.5t-80.5 27t-59.5 47.5t-23.5 70v610z" />
<glyph unicode="v" horiz-adv-x="1036" d="M473 -27q-8 0 -13.5 11.5t-8.5 19.5l-265 717q-17 46 -49 80.5t-78 49.5q-7 2 -17 3t-19.5 3t-16 7t-6.5 16q0 20 24 20h445q6 0 7 -7t1 -10q0 -14 -11 -18.5t-27 -5.5t-35 -0.5t-35 -4.5t-27 -17.5t-11 -38.5q0 -3 1 -12.5t1 -11.5l203 -555q2 -5 6.5 -14.5t12.5 -9.5 q4 0 8.5 4.5t7.5 10.5t5 11.5t3 7.5l79 201l53 140l33 91q12 34 18 53.5t7 28.5t1 16q0 35 -22 57.5t-54 34.5q-9 2 -22.5 2t-26 2t-22 8t-9.5 20q0 8 7 12.5t15 4.5h379q8 -2 9.5 -7.5t1.5 -10.5q0 -7 -2 -10.5t-9.5 -6t-21 -4.5t-35.5 -6t-38.5 -20.5t-30 -38.5 t-23.5 -45.5t-19 -42.5l-113 -295l-78 -198l-46 -121l-25 -63q-8 -20 -9.5 -24.5t-3 -8t-7 -14.5t-13.5 -11h-79z" />
<glyph unicode="w" horiz-adv-x="1642" d="M481 -27q-8 0 -13.5 11.5t-8.5 19.5l-265 717q-17 46 -49 80.5t-78 49.5q-7 2 -17 3t-19.5 3t-16 7t-6.5 16q0 20 24 20h445q6 0 7 -7t1 -10q0 -14 -11 -18.5t-27 -5.5t-35 -0.5t-35 -4.5t-27 -17.5t-11 -38.5q0 -3 1 -12.5t1 -11.5l203 -555q2 -5 6.5 -14.5t12.5 -9.5 q4 0 8.5 4.5t7.5 10.5t5 11.5t3 7.5l82 210l55 143l32 89t16 50q-17 46 -49 80.5t-78 49.5q-7 2 -17 3t-19.5 3t-16 7t-6.5 16q0 20 24 20h445q6 0 7 -7t1 -10q0 -14 -11 -18.5t-27 -5.5t-35 -0.5t-35 -4.5t-27 -17.5t-11 -38.5q0 -3 0.5 -11.5t1.5 -12.5l203 -555 q2 -5 6.5 -14.5t12.5 -9.5q4 0 8.5 4.5t7.5 10.5t5 11.5t3 7.5l79 201l53 140l33 91q12 34 18 53.5t7 28.5t1 16q0 35 -22 57.5t-54 34.5q-9 2 -22.5 2t-26 2t-22 8t-9.5 20q0 8 7 12.5t15 4.5h379q8 -2 9.5 -7.5t1.5 -10.5q0 -7 -2 -10.5t-9.5 -6t-21 -4.5t-35.5 -6 t-38.5 -20.5t-30 -38.5t-23.5 -45.5t-19 -42.5l-113 -295l-78 -198l-46 -121l-25 -63q-8 -20 -9.5 -24.5t-3 -8t-7 -14.5t-13.5 -11h-79q-8 0 -13.5 11.5t-8.5 19.5l-222 601l-97 -251l-66 -170l-40 -103l-20 -54l-8 -21q-2 -4 -3.5 -7.5t-7 -14.5t-13.5 -11h-79z" />
<glyph unicode="x" horiz-adv-x="1017" d="M413 900q6 0 7 -7t1 -10q-1 -8 -16 -11.5t-33 -9t-33 -16.5t-15 -33q0 -9 2 -18t7 -14l155 -192l15 -15q7 -7 14 -13h4q3 0 13 8l147 171q13 15 19 26.5t6 30.5q0 30 -16 41.5t-35.5 17t-35.5 10.5t-16 22q0 4 1.5 8t9.5 4h307q6 0 7 -2.5t1 -14.5q0 -4 -1 -10t-7 -9 q-29 -8 -50 -17.5t-39 -22.5t-34.5 -30.5t-36.5 -41.5l-193 -232q-3 -5 -3.5 -7.5t-0.5 -8.5t4.5 -14t10 -15.5t11 -12.5t7.5 -5l340 -406q5 -6 14 -8t18 -4.5t16 -6.5t7 -14q0 -9 -2 -12t-10 -6h-394q-8 0 -9 8t-1 11q0 13 16 15l38 6q20 3 36.5 12t16.5 36q0 14 -8.5 25 t-16.5 20l-172 216q-21 19 -38 19q-11 -5 -18 -11t-15 -14l-157 -204q-9 -11 -12.5 -21t-3.5 -19q0 -18 13.5 -31.5t32.5 -22t38 -12.5t31 -4q4 0 5.5 -5t1.5 -10t-1.5 -9.5t-5.5 -4.5h-321q-11 0 -13.5 4.5t-2.5 13.5q0 2 16 11l35 21l41 25q20 13 31 23l274 330 q0 6 -1.5 8t-6.5 10l-304 375q-8 9 -22.5 16.5t-29.5 14t-25.5 13.5t-10.5 15q2 20 24 20h372z" />
<glyph unicode="y" horiz-adv-x="1082" d="M161 721q-17 46 -49 80.5t-78 49.5q-7 2 -17 3t-19.5 3t-16 7t-6.5 16q0 20 24 20h445q6 0 7 -7t1 -10q0 -14 -11 -18.5t-27 -5.5t-35 -0.5t-35 -4.5t-27 -17.5t-11 -38.5q0 -3 1 -12.5t1 -11.5l259 -555q2 -5 6.5 -14.5t12.5 -9.5q4 0 8.5 4.5t7.5 10.5t5 11.5t3 7.5 l78 201l54 140l33 91q12 34 18 53.5t7 28.5t1 16q0 35 -22 57.5t-54 34.5q-9 2 -22.5 2t-26 2t-22 8t-9.5 20q0 8 7 12.5t15 4.5h379q8 -2 9.5 -7.5t1.5 -10.5q0 -7 -2 -10.5t-9.5 -6t-21 -4.5t-35.5 -6t-38.5 -20.5t-30 -38.5t-23.5 -45.5t-19 -42.5q-2 -6 -3 -8 l-464 -1149l-70 -149q-6 -12 -17 -20t-25.5 -13t-29.5 -7t-28 -2q-35 0 -56 23t-21 58q0 28 15.5 42.5t36.5 23.5t43.5 16.5t37.5 21.5l11 11l14 14l13 15q6 7 8 12l83 189l52 119l26 62q7 18 7 20q0 12 -5 24l-10 23l-87 169z" />
<glyph unicode="z" horiz-adv-x="915" d="M62 20q0 8 0.5 12t5.5 13l503 690l17 24q8 10 8 25q1 3 -13 4.5t-35 2.5t-44 1.5t-39 0.5h-205q-34 0 -56 -15t-36 -37.5t-23 -48.5l-16 -50q-7 -22 -14 -37t-19 -15q-3 0 -6.5 0.5t-3.5 3.5l57 334q2 9 7.5 10.5t13.5 1.5q7 0 11.5 -6t9 -13.5t11.5 -15t19 -10.5 q15 0 38 -1.5t59 -3t88 -2.5t126 -1q60 0 138.5 2t175.5 4q6 -2 8 -9t2 -14q0 -2 -5 -16.5t-11 -19.5l-516 -707l-8 -11q-3 -5 -3 -12q0 -5 0.5 -6.5t5.5 -1.5h385q27 0 47 11.5t35.5 29.5t27.5 38l23 38q11 18 22 29.5t24 11.5q14 0 14 -12l-74 -196q-2 -4 -4 -12 t-5.5 -15.5t-8 -13t-10.5 -5.5h-705q-22 0 -22 20z" />
<glyph unicode="{" horiz-adv-x="1058" d="M206 702q0 20 8.5 31.5t20.5 11.5q72 0 113 38.5t41 125.5q0 57 -13 112l-27 112q-15 58 -27.5 115.5t-12.5 119.5q0 81 36 143t93.5 105t128 67t139.5 29q35 3 63 3.5t44 0.5q37 0 37 -30q0 -19 -6 -30t-21 -11q-14 0 -33.5 -0.5t-38.5 -2.5q-57 -8 -105.5 -28t-84 -53 t-56 -78t-20.5 -103q0 -60 4.5 -118.5t15.5 -125.5q7 -45 12 -87t5 -84q0 -63 -21 -108t-43 -66q-16 -19 -30 -32l-22 -23q-10 -9 -15.5 -17t-5.5 -17t5.5 -17t15.5 -19l24 -24q14 -14 32 -36q10 -11 20.5 -27.5t19.5 -38.5t14.5 -48.5t5.5 -57.5q0 -30 -5 -72.5t-16 -115.5 q-8 -54 -12 -111.5t-4 -109.5q0 -80 27.5 -133.5t68 -87t87.5 -52t85 -27.5q29 -8 50 -9t32 -1q10 0 12.5 -10t2.5 -29q0 -32 -15 -32h-32q-21 0 -44 2q-39 2 -87.5 10t-98.5 25t-97.5 44t-84.5 66.5t-59.5 93t-22.5 123.5q0 59 12.5 117t27.5 115l27 110q13 53 13 103 q0 42 -8 79t-26.5 65.5t-48 46t-71.5 20.5q-12 3 -20.5 13t-8.5 25z" />
<glyph unicode="|" horiz-adv-x="431" d="M150 1645h131v-1680h-131v1680z" />
<glyph unicode="}" horiz-adv-x="1063" d="M852 702q0 -15 -8.5 -25t-20.5 -13q-42 -3 -71.5 -20.5t-48 -46t-26.5 -65.5t-8 -79q0 -50 13 -103l27 -110q15 -57 27.5 -115t12.5 -117q0 -70 -22.5 -123.5t-59.5 -93t-84.5 -66.5t-97.5 -44t-98.5 -25t-87.5 -10q-23 -2 -44 -2h-32q-15 0 -15 32q0 19 2.5 29t12.5 10 q11 0 32 1t50 9q38 9 85 27.5t87.5 52t68 87t27.5 133.5q0 52 -4 109.5t-12 111.5q-11 73 -16 115.5t-5 72.5q0 31 5.5 57.5t14.5 48.5t19.5 38.5t20.5 27.5q18 22 32 36l24 24q10 11 15.5 19t5.5 17t-5.5 17t-15.5 17l-22 23q-14 13 -30 32q-22 21 -43 66t-21 108 q0 42 5 84t12 87q11 67 15.5 125.5t4.5 118.5q0 58 -20.5 103t-56 78t-84 53t-105.5 28q-19 2 -38.5 2.5t-33.5 0.5q-15 0 -21 11t-6 30q0 30 37 30q16 0 44 -0.5t63 -3.5q69 -5 139.5 -29t128 -67t93.5 -105t36 -143q0 -62 -12.5 -119.5t-27.5 -115.5l-27 -112 q-13 -55 -13 -112q0 -26 6 -50.5t23 -46.5t47 -39t78 -28q12 0 20.5 -11.5t8.5 -31.5z" />
<glyph unicode="~" d="M958 781q0 -74 -18 -132.5t-49 -99t-71 -62t-85 -21.5q-52 0 -95.5 21t-90.5 53l-87 58q-35 22 -59.5 33.5t-43 15t-39.5 3.5q-18 0 -37.5 -8.5t-35.5 -29t-26.5 -55t-11.5 -87.5h-119q0 75 18 133.5t49 99t71 61.5t85 21q25 0 48.5 -2t54.5 -13t72 -34.5t100 -66.5 q15 -9 32 -21t35 -22.5t36.5 -17.5t37.5 -7q21 0 41 9.5t35.5 31t25 56t9.5 83.5h118z" />
<glyph unicode="&#xa2;" horiz-adv-x="934" d="M90 395q1 142 35 241t94 161.5t143 92.5t181 36l69 194h130l-69 -194q25 -2 49.5 -6.5t46.5 -14t40.5 -24.5t31.5 -37q5 -8 9.5 -18t4.5 -19q0 -38 -23.5 -54t-57.5 -16q-23 0 -41.5 8t-34.5 21t-31 28l-30 29l-242 -681q36 -28 84 -43t108 -15q45 0 86 15t76 40 q16 11 31.5 26t27.5 29l22 24q8 9 11 9q9 0 16 -6t7 -14q0 -4 -0.5 -10t-5.5 -11q-72 -100 -168 -156.5t-217 -56.5q-70 0 -130 23l-126 -355h-129l148 418q-69 60 -107.5 148t-38.5 188zM262 479q0 -61 10.5 -118t33.5 -106l214 606q-22 -4 -43 -12.5t-37 -19.5 q-48 -27 -81.5 -65.5t-55 -84t-31.5 -97t-10 -103.5z" />
<glyph unicode="&#xa3;" d="M177 623q-11 0 -17.5 4t-6.5 12v24q0 8 6.5 12.5t17.5 4.5h181l-38 78q-19 39 -33.5 79.5t-23.5 83.5t-9 89q0 78 28 145.5t75 117t109.5 78t131.5 28.5t133.5 -18t114 -49.5t79.5 -74t30 -90.5q0 -12 -4 -24t-11 -22.5t-18 -17t-24 -6.5q-22 0 -37 9t-26.5 24t-20.5 34 l-21 38q-21 36 -41.5 63t-45 45t-56 27t-73.5 9q-37 0 -73 -14.5t-65 -40t-47 -60t-18 -73.5q0 -72 17 -132.5t42.5 -115t55 -105.5t53.5 -105h189q11 0 17.5 -4.5t6.5 -12.5v-24q0 -8 -6.5 -12t-17.5 -4h-166q14 -38 22 -78.5t8 -86.5q0 -26 -2 -55.5t-6.5 -60.5t-11 -61 t-15.5 -56q22 -22 49.5 -44t58.5 -39t63 -28t63 -11q47 0 81 24t55.5 54t32 57t10.5 33h40q-2 -36 -17 -87t-48.5 -98t-89.5 -80t-140 -33q-44 0 -82.5 20.5t-68 45.5t-47.5 46.5t-21 22.5q-14 -21 -36 -44.5t-49 -44t-58 -33.5t-64 -13h-7q-44 0 -76 13t-52.5 34.5 t-30.5 50t-10 58.5q0 41 17.5 75t46 58t65.5 37.5t77 13.5q36 0 64 -6.5t47.5 -15t30 -15t12.5 -6.5q5 22 5 41q0 87 -28 163t-65 149h-211zM165 125q0 -20 7.5 -39t22 -34t34.5 -24.5t45 -9.5q38 0 68.5 18.5t53 43t36.5 49t19 36.5q-10 13 -25 29t-34.5 30t-45 23.5 t-56.5 9.5q-25 0 -47.5 -10.5t-40 -28.5t-27.5 -42t-10 -51z" />
<glyph unicode="&#xa5;" horiz-adv-x="1569" d="M312 535q-16 0 -25.5 7t-9.5 18v36q0 11 9.5 18t25.5 7h323l-349 557q-17 27 -36.5 54.5t-43 52t-51 43t-59.5 26.5q-5 1 -16 3.5t-23 4.5l-23 4q-11 2 -16 3q-10 1 -12 7.5t-2 15.5q0 5 2 11.5t13 6.5h572q11 0 14 -5t3 -13q0 -22 -17 -22l-44 -4q-24 -3 -45 -10.5 t-35.5 -22t-14.5 -41.5q0 -24 12 -43l338 -540q11 -16 13.5 -20.5t10.5 -4.5q7 0 13 8t14 21l270 459q12 24 27.5 51.5t15.5 56.5q0 28 -12 44.5t-30 25.5t-40 13t-43 7q-11 1 -14 7t-3 15q0 7 2.5 12.5t14.5 5.5h467q8 0 11 -6.5t3 -11.5q0 -10 -4.5 -15t-12 -7.5t-16.5 -4 t-18 -3.5q-50 -12 -86.5 -37t-71.5 -63q-5 -5 -14.5 -16t-10.5 -13l-356 -612h346q16 0 25.5 -7t9.5 -18v-36q0 -11 -9.5 -18t-25.5 -7h-385v-155h385q16 0 25.5 -7t9.5 -18v-36q0 -11 -9.5 -18t-25.5 -7h-385v-114q0 -54 30.5 -85t107.5 -41q7 -1 18.5 -2.5t22.5 -4 t19 -6.5t8 -10v-11q0 -14 -10 -17t-24 -3h-539q-14 0 -24 3t-10 17v10q0 6 7 10.5t17.5 7t22.5 4t21 2.5q76 8 107 37.5t31 88.5v114h-386q-16 0 -25.5 7t-9.5 18v36q0 11 9.5 18t25.5 7h386v131q0 4 -0.5 7t-2.5 8l-6 9h-377z" />
<glyph unicode="&#xa9;" horiz-adv-x="1717" d="M90 723q0 105 27 202t77 182t119 154t154 119t182 77t202 27t202 -27t182 -77t154 -119t119 -154t77 -182t27 -202t-27 -202t-77 -182t-119 -154t-154 -119t-182 -77t-202 -27t-202 27t-182 77t-154 119t-119 154t-77 182t-27 202zM186 724q0 -92 24 -177t67 -158.5 t103.5 -134.5t134.5 -104t158.5 -67t176.5 -24t177 24t158.5 67t134.5 104t104 134.5t67 158.5t24 177q0 91 -24 176t-67 159t-104 134.5t-134.5 103.5t-158.5 67t-177 24t-176.5 -24t-158.5 -67t-134.5 -103.5t-103.5 -134.5t-67 -159t-24 -176zM358 732q0 110 40.5 201 t110 156.5t163 101.5t200.5 36q60 0 115.5 -10.5t115.5 -25.5q20 -5 41 -14t29 -9q1 0 9 2.5t11 2.5h20q8 0 8 -11v-203q0 -5 -3 -6t-13 -1q-2 0 -5 0.5t-5 3.5q-3 5 -8 15t-7 15q-50 98 -125 147t-173 49q-93 0 -164.5 -31t-119.5 -86.5t-73 -131t-25 -163.5 q0 -93 27.5 -177.5t80 -148t130 -101.5t176.5 -38q56 0 103.5 16.5t88 45.5t74 68.5t60.5 84.5q1 4 8 4h8q7 0 7 -9q0 -2 -1.5 -7t-2.5 -7l-91 -199q-2 -5 -8 -5q-15 5 -21.5 5.5t-13.5 0.5q-19 0 -50 -7l-67 -15q-35 -8 -72 -15t-67 -7q-104 0 -196.5 33.5t-162.5 95 t-111 149t-41 195.5z" />
<glyph unicode="&#xad;" horiz-adv-x="913" d="M828 578v-137h-743v137h743z" />
<glyph unicode="&#xae;" horiz-adv-x="1702" d="M90 723q0 105 27 202t77 182t119 154t154 119t182 77t202 27t202 -27t182 -77t154 -119t119 -154t77 -182t27 -202t-27 -202t-77 -182t-119 -154t-154 -119t-182 -77t-202 -27t-202 27t-182 77t-154 119t-119 154t-77 182t-27 202zM186 724q0 -92 24 -177t67 -158.5 t103.5 -134.5t134.5 -104t158.5 -67t176.5 -24t177 24t158.5 67t134.5 104t104 134.5t67 158.5t24 177q0 91 -24 176t-67 159t-104 134.5t-134.5 103.5t-158.5 67t-177 24t-176.5 -24t-158.5 -67t-134.5 -103.5t-103.5 -134.5t-67 -159t-24 -176zM450 339q0 1 1 3t4 2 q4 0 11.5 1t16 2.5t16 2.5t10.5 2q34 8 47.5 26t13.5 44v634q0 30 -12.5 47t-29 26t-32 11t-20.5 2h-23q-3 0 -4 2t-1 3v14q0 1 0.5 2.5t4.5 2.5q5 0 11.5 0.5t19 0.5t35.5 1q66 1 132.5 4t133.5 3h60q52 -4 97.5 -23.5t79.5 -52.5t53.5 -77.5t19.5 -96.5q0 -37 -11 -66.5 t-30 -52t-45 -40t-57 -31.5l182 -297q23 -38 55.5 -66t71.5 -44q5 -1 6 -3t1 -5q0 -9 -5 -12t-15 -3q-51 0 -94.5 14t-83.5 49q-19 17 -36.5 39.5t-34.5 51.5l-154 241q-2 2 -3 2l-141 7h-5q-4 0 -6 -1q-2 -2 -2.5 -3t-0.5 -5v-276q0 -16 4 -28t14 -21t26 -14.5t39 -8.5 q3 0 10 -1.5t15 -3t16 -2.5t13 -1q4 0 4.5 -2t0.5 -3v-14q0 -1 -1 -3t-4 -2h-369q-3 0 -4 2.5t-1 9.5v7zM688 751q1 -5 3 -9t8 -4q3 0 9 -1t14.5 -1.5t18.5 -1t20 -0.5q59 0 100 14.5t66.5 41t36.5 64.5t11 85q0 49 -16 87.5t-44.5 64.5t-66.5 39.5t-83 13.5h-15 q-7 0 -14.5 -0.5t-15.5 -0.5t-18 -1q-4 0 -9.5 -1.5t-5.5 -8.5v-363z" />
<glyph unicode="&#xb4;" horiz-adv-x="700" d="M172 1096q-4 4 -4 6t4 6l213 295q19 26 38 37.5t37 11.5q31 0 51.5 -22.5t20.5 -51.5q0 -31 -17.5 -54t-37.5 -40l-269 -217q-5 -3 -7 -3h-5l-2 3z" />
<glyph unicode="&#x2000;" horiz-adv-x="866" />
<glyph unicode="&#x2001;" horiz-adv-x="1732" />
<glyph unicode="&#x2002;" horiz-adv-x="866" />
<glyph unicode="&#x2003;" horiz-adv-x="1732" />
<glyph unicode="&#x2004;" horiz-adv-x="577" />
<glyph unicode="&#x2005;" horiz-adv-x="433" />
<glyph unicode="&#x2006;" horiz-adv-x="288" />
<glyph unicode="&#x2007;" horiz-adv-x="288" />
<glyph unicode="&#x2008;" horiz-adv-x="216" />
<glyph unicode="&#x2009;" horiz-adv-x="346" />
<glyph unicode="&#x200a;" horiz-adv-x="96" />
<glyph unicode="&#x2010;" horiz-adv-x="913" d="M828 578v-137h-743v137h743z" />
<glyph unicode="&#x2011;" horiz-adv-x="913" d="M828 578v-137h-743v137h743z" />
<glyph unicode="&#x2013;" horiz-adv-x="1024" d="M85 441v137h854v-137h-854z" />
<glyph unicode="&#x2014;" horiz-adv-x="2048" d="M85 441v137h1878v-137h-1878z" />
<glyph unicode="&#x2018;" horiz-adv-x="700" d="M478 1067q-4 -4 -8 -4q-2 0 -6 4l-269 217q-20 17 -37.5 40t-17.5 54q0 29 20.5 51.5t51.5 22.5q18 0 37 -11.5t38 -37.5l213 -295q4 -4 4 -6t-4 -6z" />
<glyph unicode="&#x2019;" horiz-adv-x="465" d="M195 814q-4 60 -15 136l-22 148l-20 135q-9 62 -9 95q0 16 9.5 31t24.5 26t33.5 18t36.5 7q20 0 39 -7t33.5 -18t23.5 -26t9 -31q0 -34 -8 -96t-19 -135l-23 -148q-11 -75 -18 -135h-75z" />
<glyph unicode="&#x201c;" horiz-adv-x="834" d="M565 817q-2 40 -7.5 87t-13.5 96l-14 100l-14 92q-7 44 -11.5 79.5t-4.5 57.5q0 16 9.5 30.5t25 26t34.5 18t37 6.5q19 0 37.5 -6.5t33 -18t23.5 -26t9 -30.5q0 -34 -8 -96t-19 -135l-22 -146q-12 -75 -19 -135h-76zM199 816q-4 60 -15 135l-22 149l-20 135q-9 62 -9 95 q0 15 9.5 29.5t24.5 26t34 18t39 6.5q19 0 37.5 -6.5t32.5 -18t23 -26t9 -29.5q0 -34 -8 -96t-19 -135l-23 -148q-11 -75 -18 -135h-75z" />
<glyph unicode="&#x201d;" horiz-adv-x="834" d="M565 817q-2 40 -7.5 87t-13.5 96l-14 100l-14 92q-7 44 -11.5 79.5t-4.5 57.5q0 16 9.5 30.5t25 26t34.5 18t37 6.5q19 0 37.5 -6.5t33 -18t23.5 -26t9 -30.5q0 -34 -8 -96t-19 -135l-22 -146q-12 -75 -19 -135h-76zM199 816q-4 60 -15 135l-22 149l-20 135q-9 62 -9 95 q0 15 9.5 29.5t24.5 26t34 18t39 6.5q19 0 37.5 -6.5t32.5 -18t23 -26t9 -29.5q0 -34 -8 -96t-19 -135l-23 -148q-11 -75 -18 -135h-75z" />
<glyph unicode="&#x2026;" horiz-adv-x="1560" d="M1170 103q0 26 10.5 49.5t28 41.5t41 28.5t50.5 10.5t50.5 -10.5t41.5 -28.5t28 -42t10 -50q0 -28 -10 -51.5t-28 -41t-41.5 -27t-50.5 -9.5t-50.5 10t-41 27t-28 41t-10.5 52zM650 103q0 26 10.5 49.5t28 41.5t41 28.5t50.5 10.5t50.5 -10.5t41.5 -28.5t28 -42t10 -50 q0 -28 -10 -51.5t-28 -41t-41.5 -27t-50.5 -9.5t-50.5 10t-41 27t-28 41t-10.5 52zM130 103q0 26 10.5 49.5t28 41.5t41 28.5t50.5 10.5t50.5 -10.5t41.5 -28.5t28 -42t10 -50q0 -28 -10 -51.5t-28 -41t-41.5 -27t-50.5 -9.5t-50.5 10t-41 27t-28 41t-10.5 52z" />
<glyph unicode="&#x202f;" horiz-adv-x="346" />
<glyph unicode="&#x2044;" horiz-adv-x="280" d="M625 1480h130l-1101 -1535h-129z" />
<glyph unicode="&#x205f;" horiz-adv-x="433" />
<glyph unicode="&#x2070;" horiz-adv-x="661" d="M48 968q0 74 24 147.5t63 132t87.5 95t98.5 36.5q72 0 126.5 -37t91 -97t55.5 -136.5t19 -155.5q0 -78 -20 -153t-57 -133.5t-89.5 -94.5t-116.5 -36q-58 0 -109 36t-89.5 91t-61 121.5t-22.5 127.5v56zM149 953q0 -86 8.5 -158t29 -124.5t56.5 -81.5t92 -29 q57 0 92 34.5t53.5 90t24.5 126.5t6 145q0 38 -1 82t-6.5 88t-17 85t-32.5 72.5t-52.5 50.5t-77.5 19q-40 0 -68.5 -18.5t-47.5 -50t-31 -72.5t-18 -85.5t-8 -89.5t-2 -84z" />
<glyph unicode="&#x2122;" horiz-adv-x="3431" d="M1528 32q0 2 1.5 5t6.5 3q66 0 102.5 18.5t54 50t21.5 72.5t6 85q6 129 14 254l18 246q8 121 13.5 239t5.5 234v37q0 23 -15 40.5t-35.5 29.5t-41.5 18t-33 6q-8 0 -8 8v24q0 2 1 5t7 3h289q11 -2 18 -7.5t13 -14.5l469 -1045q5 -7 8 -12t10 -5q11 1 15.5 5.5t7.5 12.5 l464 1026q10 19 19 29.5t19 10.5h291q6 0 7 -3t1 -5v-24q0 -2 -1.5 -5t-6.5 -3q-2 0 -23.5 -4t-47 -15.5t-46.5 -33t-21 -56.5l60 -1105q1 -29 15.5 -49t35.5 -33t44.5 -19.5t44 -10t35 -4t15.5 -0.5q5 0 6.5 -3t1.5 -5v-24q0 -2 -1.5 -5t-6.5 -3h-568q-8 0 -8 8v24q0 8 8 8 q24 0 54.5 2.5t58.5 11.5t47 26.5t19 46.5l-53 955q-1 10 -6 10q-4 0 -7 -9l-497 -1076q-4 -7 -23 -7q-6 0 -13 1t-9 7l-490 1078l-4 10q-2 4 -6 4q-7 0 -7 -13q0 -30 -3.5 -99t-9.5 -158l-11 -189l-11 -193q-6 -93 -9.5 -169.5t-3.5 -118.5v-41q4 -19 20 -34t40 -25t53 -15 t61 -5q5 0 5.5 -3t0.5 -5v-24q0 -8 -6 -8h-467q-8 0 -8 8v24zM653 1287q0 21 -8.5 23.5t-20.5 4.5h-384q-37 -8 -60.5 -29.5t-38.5 -50.5t-23 -63l-15 -64q-2 -9 -4 -21.5t-4 -14.5q-2 -3 -7 -3h-18q-6 0 -6 4v33l37 312q2 11 5.5 21t18.5 10q7 0 12 -4t9 -9l10 -11 q4 -5 10 -7q12 -5 22.5 -6.5t23.5 -1.5h1078q13 0 23.5 1.5t22.5 6.5q6 2 10 7l10 11q4 5 9 9t12 4q15 0 18.5 -10t5.5 -21l37 -312v-33q0 -4 -6 -4h-18q-5 0 -7 3q-2 2 -4 14.5t-4 21.5l-15 64q-8 34 -23 63t-38.5 50.5t-60.5 29.5h-385q-12 -2 -20.5 -4.5t-8.5 -23.5 v-1107q0 -30 15 -53.5t40.5 -41.5t60 -29t73.5 -15q11 -1 28 -1h29q5 0 6.5 -3t1.5 -5v-24q0 -2 -1.5 -5t-6.5 -3h-687q-5 0 -6.5 3t-1.5 5v24q0 2 1.5 5t6.5 3h29q17 0 28 1q39 4 73.5 15t60 29t40.5 41.5t15 53.5v1107z" />
</font>
</defs>
</svg>
