<?xml version="1.0" standalone="no"?>
<!DOCTYPE svg PUBLIC "-//W3C//DTD SVG 1.1//EN" "http://www.w3.org/Graphics/SVG/1.1/DTD/svg11.dtd" >
<svg xmlns="http://www.w3.org/2000/svg">
<metadata>
This is a custom SVG webfont generated by Font Squirrel.
Designer    : Santiago Orozco
Foundry     : Santiago Orozco
</metadata>
<defs>
<font id="webfontywsmfDvZ" horiz-adv-x="960" >
<font-face units-per-em="2048" ascent="1536" descent="-512" />
<missing-glyph horiz-adv-x="614" />
<glyph unicode=" "  horiz-adv-x="614" />
<glyph unicode="&#x09;" horiz-adv-x="614" />
<glyph unicode="&#xa0;" horiz-adv-x="614" />
<glyph unicode="!" horiz-adv-x="411" d="M168 340v1196h72v-1196h-72zM205 35q-27 0 -46.5 18.5t-19.5 46.5q0 27 20.5 46.5t45 19.5t44 -19.5t19.5 -46.5q0 -29 -19 -47t-44 -18z" />
<glyph unicode="&#x22;" horiz-adv-x="614" d="M401 967v508h76l-8 -508h-68zM129 967v508h76l-8 -508h-68z" />
<glyph unicode="#" horiz-adv-x="1169" d="M614 0l52 440h-306l-51 -440h-71l51 440h-232l9 68h231l37 303h-230l7 72h231l53 434h72l-53 -434h305l53 434h72l-53 -434h266l-6 -72h-269l-37 -303h267l-8 -68h-267l-51 -440h-72zM406 811l-37 -303h305l37 303h-305z" />
<glyph unicode="$" horiz-adv-x="1161" d="M870 1319l-47 -62q-104 94 -229 109v-590q84 -27 137 -50.5t122 -69.5t103.5 -114.5t34.5 -160.5q0 -168 -113.5 -276.5t-283.5 -118.5v-125h-76v125q-205 14 -366 184l53 55q145 -154 313 -168v662l-2 2q-307 92 -319 338q-8 141 74.5 254.5t246.5 126.5v125h76v-125 q145 -10 276 -121zM915 375q0 70 -27.5 125t-79.5 92t-101.5 60.5t-112.5 43.5v-637q133 12 227 98.5t94 217.5zM274 1079.5q0 -110.5 63.5 -173t178.5 -103.5q0 -2 2 -2v565q-117 -12 -180.5 -94t-63.5 -192.5z" />
<glyph unicode="%" horiz-adv-x="1486" d="M414 0l610 1024h72l-611 -1024h-71zM446 567q-96 0 -163.5 66.5t-67.5 163.5q0 94 67.5 160.5t163.5 66.5q94 0 163 -66.5t69 -160.5q0 -96 -69 -163t-163 -67zM446.5 633q69.5 0 111.5 47t42 117q0 72 -42 116.5t-111.5 44.5t-112.5 -45t-43 -116q0 -70 43 -117 t112.5 -47zM1049 0q-96 0 -164 66.5t-68 162.5q0 94 67.5 161t164.5 67q94 0 162.5 -66.5t68.5 -161.5q0 -96 -68.5 -162.5t-162.5 -66.5zM1048.5 66q69.5 0 111.5 47t42 116q0 72 -42 117t-111.5 45t-112.5 -45t-43 -117q0 -70 43 -116.5t112.5 -46.5z" />
<glyph unicode="&#x26;" horiz-adv-x="1433" d="M1108 2l-61 -41l-113 180q-119 -160 -320 -159q-166 0 -282.5 117.5t-116.5 283.5q0 147 95.5 259t236.5 134l-146 240q-80 121 -56 257t153 214q186 115 432 -43l-27 -51q-66 37 -117 57t-122.5 20t-131.5 -36q-104 -66 -120.5 -172.5t51.5 -206.5l465 -760q12 41 12 88 v143q0 143 44 192.5t130 49.5h96v-74h-90q-66 0 -86 -38t-20 -167v-106q0 -98 -35 -170zM614 49q190 0 281 158l-309 506q-131 -8 -213 -101.5t-82 -228.5q0 -141 91 -237.5t232 -96.5z" />
<glyph unicode="'" horiz-adv-x="262" d="M129 967v508h76l-8 -508h-68z" />
<glyph unicode="(" horiz-adv-x="817" d="M279 598q0 287 97 533.5t240 398.5l54 -47q-133 -152 -224.5 -383.5t-91.5 -501.5t91.5 -501.5t224.5 -383.5l-54 -47q-143 152 -240 398.5t-97 533.5z" />
<glyph unicode=")" horiz-adv-x="819" d="M596 590q0 -287 -97.5 -533.5t-240.5 -398.5l-53 47q133 152 224 383t91 501.5t-91 502t-224 383.5l53 47q143 -152 240.5 -398.5t97.5 -533.5z" />
<glyph unicode="*" horiz-adv-x="686" d="M578 1001l-203 115l-2 -227h-68v227l-196 -112l-39 67l196 109l-196 114l39 68l196 -119v232h76l-4 -232l205 113l32 -60l-202 -116l200 -119z" />
<glyph unicode="+" horiz-adv-x="1112" d="M510 104v336h-334v68h334v334h68v-334h335v-68h-335v-336h-68z" />
<glyph unicode="," horiz-adv-x="409" d="M287 176l-176 -422h-64l158 422h82z" />
<glyph unicode="-" horiz-adv-x="614" d="M109 356v68h376v-68h-376z" />
<glyph unicode="." horiz-adv-x="333" d="M174 -2q-27 0 -46 18.5t-19 46.5q0 27 20.5 46.5t45 19.5t44 -19.5t19.5 -46.5q0 -29 -19.5 -47t-44.5 -18z" />
<glyph unicode="/" horiz-adv-x="679" d="M35 -39l569 1546h72l-570 -1546h-71z" />
<glyph unicode="0" horiz-adv-x="1261" d="M152 668q-2 -256 136 -435.5t333 -181.5q193 -2 334 177.5t143 435.5q0 96 -24.5 196.5t-77 197.5t-147.5 159.5t-220 62.5q-100 0 -183.5 -41t-136.5 -105.5t-89 -148.5t-52 -162.5t-16 -154.5zM76 670q2 307 159.5 493.5t393 184.5t391.5 -190.5t154 -495.5 q-2 -299 -169 -489.5t-384 -188.5q-219 2 -383 194.5t-162 491.5z" />
<glyph unicode="1" horiz-adv-x="518" d="M70 1118v74l268 156v-1348h-76v1229z" />
<glyph unicode="2" horiz-adv-x="1021" d="M256 743l-53 -49q-102 106 -103 262q0 170 99.5 281t275.5 111q164 0 266.5 -114t102.5 -288q0 -88 -36 -185t-78 -170t-134 -184.5t-142 -164.5l-165 -174h647v-68h-827l169 171l149 159q89 96 140 163.5t102.5 147.5t75 148.5t23.5 132.5q0 186 -91 272t-202 86 q-84 0 -146.5 -33t-93 -84t-45 -103t-14.5 -104q0 -129 80 -213z" />
<glyph unicode="3" horiz-adv-x="1124" d="M377 786l24 31l347 447h-467v67h591l-348 -450q174 0 307.5 -122t133.5 -321q0 -205 -132.5 -329.5t-308.5 -124.5q-182 0 -313 120l51 56q104 -109 262 -109q160 0 262.5 111.5t102.5 275.5q0 166 -106.5 270.5t-258.5 104.5q-75 0 -147 -27z" />
<glyph unicode="4" horiz-adv-x="1042" d="M76 375l749 973v-906h199v-67h-199v-375h-75v375h-674zM750 1135l-531 -693h531v693z" />
<glyph unicode="5" horiz-adv-x="1112" d="M287 735v596h614v-67h-539v-412q70 29 162 29q174 0 307.5 -122t133.5 -321q0 -205 -132.5 -329.5t-308.5 -124.5q-182 0 -313 120l51 56q104 -109 262 -109q160 0 262.5 111.5t102.5 275.5q0 166 -106.5 270.5t-258.5 104.5q-135 0 -237 -78z" />
<glyph unicode="6" horiz-adv-x="1064" d="M102 403q0 115 44 226.5t103.5 195.5t161 180.5t177.5 156.5l192 143l43 -56q-377 -250 -557 -520q117 90 256 90q174 0 299 -120.5t125 -295t-125 -297t-299 -122.5t-297 122.5t-123 296.5zM178 403q0 -143 99.5 -247.5t240.5 -104.5q143 0 247.5 104.5t104.5 248 t-103 246t-249 102.5q-143 0 -241.5 -102t-98.5 -247z" />
<glyph unicode="7" d="M29 1264v67h825l-598 -1331h-76l572 1264h-723z" />
<glyph unicode="8" horiz-adv-x="1044" d="M219 1047q0 125 88 213t211 88q125 0 213 -88.5t88 -212.5q0 -80 -41 -148t-108 -106q123 -43 199.5 -149.5t76.5 -240.5q0 -174 -125 -296.5t-299 -122.5t-297 122.5t-123 296.5q0 131 74 236.5t195 151.5q-70 39 -111 106.5t-41 149.5zM178 403q0 -143 99.5 -247.5 t240.5 -104.5q143 0 247.5 104.5t104.5 248t-103 246t-249 102.5q-143 0 -241.5 -102t-98.5 -247zM295 1042q0 -94 65.5 -158.5t161.5 -64.5q94 0 157.5 63.5t63.5 160t-63.5 167t-157.5 70.5t-160.5 -71t-66.5 -167z" />
<glyph unicode="9" horiz-adv-x="1075" d="M946 885q0 -115 -44 -226.5t-103.5 -195.5t-160.5 -180.5t-177 -155.5l-193 -143l-43 55q377 250 557 520q-117 -90 -256 -90q-174 0 -299 121t-125 295t125 297t299 123t297 -123t123 -297zM870 885q0 143 -99 247.5t-241 104.5q-143 0 -247.5 -104.5t-104.5 -248 t103.5 -245.5t248.5 -102q143 0 241.5 101.5t98.5 246.5z" />
<glyph unicode=":" horiz-adv-x="358" d="M174 512q-27 0 -46 18.5t-19 47.5q0 27 20.5 46t45 19t44 -19.5t19.5 -45.5q0 -29 -19.5 -47.5t-44.5 -18.5zM174 -2q-27 0 -46 18.5t-19 46.5q0 27 20.5 46.5t45 19.5t44 -19.5t19.5 -46.5q0 -29 -19.5 -47t-44.5 -18z" />
<glyph unicode=";" horiz-adv-x="411" d="M256 176l-176 -422h-64l158 422h82zM238 512q-27 0 -46.5 18.5t-19.5 47.5q0 27 20.5 46t45 19t44 -19.5t19.5 -45.5q0 -29 -19 -47.5t-44 -18.5z" />
<glyph unicode="&#x3c;" horiz-adv-x="1392" d="M1133 45v-74l-895 516l895 517v-74l-766 -443z" />
<glyph unicode="=" horiz-adv-x="1449" d="M1241 750v-66h-1036v66h1036zM1241 352v-65h-1036v65h1036z" />
<glyph unicode="&#x3e;" horiz-adv-x="1331" d="M238 -29v74l766 442l-766 443v74l895 -517z" />
<glyph unicode="?" horiz-adv-x="925" d="M416 29q-27 0 -46.5 18.5t-19.5 46.5q0 27 20.5 46.5t45 19.5t44 -19.5t19.5 -46.5q0 -29 -19 -47t-44 -18zM135 1208l-72 19q41 121 144.5 196.5t234.5 75.5q168 0 285 -116.5t117 -282.5q0 -203 -201 -355q-12 -8 -58 -36.5t-66.5 -46t-42 -62.5t-21.5 -104v-160h-72 v199q0 61 25.5 108t54.5 69.5t92 61.5t94 64q119 106 119 262q0 143 -91 237.5t-235 94.5q-113 0 -194.5 -61t-112.5 -163z" />
<glyph unicode="@" horiz-adv-x="2027" d="M1743 385q0 309 -217 526t-524.5 217t-523.5 -217t-216 -526q0 -307 216 -523t523 -216q233 0 429 135l49 -60q-215 -154 -478 -153q-340 0 -579.5 239.5t-239.5 579.5t240 579.5t579.5 239.5t579.5 -240.5t240 -580.5q-6 -201 -91 -293t-208 -92h-97q-55 0 -75.5 28.5 t-22.5 94.5l6 92q-43 -104 -133 -168.5t-207 -64.5q-166 0 -282.5 117.5t-116.5 283.5q0 164 116.5 281.5t282.5 117.5q119 0 205 -61.5t129 -163.5l10 211h66v-637q0 -37 8 -49t39 -12h72q92 0 153.5 74.5t67.5 240.5zM993 49q143 0 234.5 96.5t91.5 237.5q0 143 -91 237.5 t-235 94.5q-141 0 -232 -94.5t-91 -237.5q0 -141 91 -237.5t232 -96.5z" />
<glyph unicode="A" horiz-adv-x="1515" d="M1395 0h-80l-260 614h-590l-260 -614h-80l635 1499zM739 1262l-245 -578h530l-244 578l-20 65z" />
<glyph unicode="B" horiz-adv-x="1095" d="M164 0v1434h309q199 0 310.5 -87t111.5 -272q0 -131 -65.5 -225t-192.5 -129q133 -29 222 -120t89 -232q0 -174 -129 -271.5t-309 -97.5h-346zM240 688v-620h270q156 0 259 78.5t103 222.5q0 158 -115.5 238.5t-281.5 80.5h-235zM240 1366v-610h264q143 0 229 88t86 231 q0 291 -319 291h-260z" />
<glyph unicode="C" horiz-adv-x="1372" d="M1171 139l58 -55q-172 -100 -371 -100q-303 0 -517 214t-214 517q0 305 214 520t517 215q201 0 369 -98l-53 -60q-152 82 -316 82q-270 0 -462.5 -194.5t-192.5 -465t192.5 -463t462.5 -192.5q166 0 313 80z" />
<glyph unicode="D" horiz-adv-x="1335" d="M168 0v1434h285q309 0 522 -199t213 -518q0 -129 -45 -250t-136.5 -228.5t-253 -173t-372.5 -65.5h-213zM244 1366v-1298h172q301 0 498.5 179t197.5 470t-197.5 470t-498.5 179h-172z" />
<glyph unicode="E" horiz-adv-x="1230" d="M186 0v1434h838v-68h-762v-610h682v-68h-682v-620h791v-68h-867z" />
<glyph unicode="F" horiz-adv-x="1202" d="M186 0v1434h838v-68h-762v-610h682v-68h-682v-688h-76z" />
<glyph unicode="G" horiz-adv-x="1417" d="M1257 1333l-55 -57q-160 98 -344 98q-270 0 -462.5 -194.5t-192.5 -465t192.5 -463t462.5 -192.5q160 0 303 74v350q0 37 -8 49.5t-39 12.5h-260v69h283q57 0 77.5 -28.5t20.5 -93.5v-402q-168 -106 -377 -106q-303 0 -517 214t-214 517q0 305 214 520t517 215 q217 0 399 -117z" />
<glyph unicode="H" horiz-adv-x="1433" d="M205 0v1434h76v-678h872v678h76v-1434h-76v688h-872v-688h-76z" />
<glyph unicode="I" horiz-adv-x="483" d="M203 1434h76v-1434h-76v1434z" />
<glyph unicode="J" horiz-adv-x="614" d="M358 186v1248h76v-1248q-2 -164 -116.5 -276.5t-280.5 -112.5v66q139 0 228 92t93 231z" />
<glyph unicode="K" horiz-adv-x="1228" d="M1120 0h-88l-639 809l-168 -160v-649h-75v1434h75v-652l-6 -65l39 47l703 670h88l-607 -578z" />
<glyph unicode="L" horiz-adv-x="1214" d="M186 0v1434h76v-1366h791v-68h-867z" />
<glyph unicode="M" horiz-adv-x="1918" d="M1704 1499v-1499h-76v1231l6 65l-37 -55l-643 -840l-643 840l-37 55l7 -65v-1231h-76v1499l749 -973z" />
<glyph unicode="N" horiz-adv-x="1665" d="M1456 1434v-1500l-1143 1326l-39 53l7 -66v-1247h-76v1499l1143 -1325l38 -53l-6 65v1248h76z" />
<glyph unicode="O" horiz-adv-x="1720" d="M127 715q0 305 214 520t517 215q305 0 520 -215t215 -520q0 -303 -215 -517t-520 -214q-303 0 -517 214t-214 517zM203 714.5q0 -270.5 192.5 -463t462.5 -192.5t465 192.5t195 463t-195 465t-465 194.5t-462.5 -194.5t-192.5 -465z" />
<glyph unicode="P" horiz-adv-x="929" d="M205 0v1434h295q90 0 182 -35t166 -123t74 -211q0 -178 -111 -281.5t-311 -103.5h-219v-680h-76zM281 748h208q100 0 173 29.5t111 78.5t55.5 100.5t17.5 108.5q0 121 -103.5 211t-250.5 90h-211v-618z" />
<glyph unicode="Q" horiz-adv-x="1724" d="M127 715q0 305 214 520t517 215q305 0 520 -215t215 -520q0 -205 -104.5 -376t-278.5 -265h428v-76h-634q-82 -14 -146 -14q-303 0 -517 214t-214 517zM203 714.5q0 -270.5 192.5 -463t462.5 -192.5t465 192.5t195 463t-195 465t-465 194.5t-462.5 -194.5t-192.5 -465z " />
<glyph unicode="R" horiz-adv-x="1214" d="M942 0h-78l-317 680h-266v-680h-76v1434h295q90 0 182 -35t166 -123t74 -211q0 -147 -78 -245.5t-223 -129.5zM281 748h208q100 0 173 29.5t111 78.5t55.5 100.5t17.5 108.5q0 121 -103.5 211t-250.5 90h-211v-618z" />
<glyph unicode="S" horiz-adv-x="1161" d="M870 1319l-47 -62q-117 111 -270 111q-133 0 -206 -84t-73 -205q0 -111 63.5 -173t178.5 -103l68 -23q51 -16 79.5 -26.5t76.5 -31t78 -39.5t67 -51t57.5 -67t34.5 -82t14 -102q0 -178 -125 -287.5t-307 -109.5q-227 0 -407 186l53 55q160 -168 348 -168q145 0 253.5 88 t108.5 230q0 66 -29.5 121t-63.5 86.5t-102.5 63.5t-99.5 42l-104 33q-307 92 -319 338q-8 152 84 267.5t276 115.5q172 0 313 -123z" />
<glyph unicode="T" horiz-adv-x="1132" d="M1133 1434v-68h-529v-1366h-76v1366h-528v68h1133z" />
<glyph unicode="U" horiz-adv-x="1335" d="M670 -16q-209 0 -339 126t-130 353v971h75v-965q0 -197 109 -307.5t285 -110.5t285.5 110.5t109.5 307.5v965h76v-971q0 -227 -132 -353t-339 -126z" />
<glyph unicode="V" horiz-adv-x="1478" d="M1300 1434h80l-635 -1500l-634 1500h79l537 -1266l18 -62l19 62z" />
<glyph unicode="W" horiz-adv-x="2269" d="M2062 1434h80l-635 -1500l-362 854l-19 62l-18 -62l-363 -854l-634 1500h79l537 -1266l18 -62l19 62l321 760l-213 506h80l537 -1266l18 -62l19 62z" />
<glyph unicode="X" horiz-adv-x="1433" d="M190 0l478 731l-457 703h84l395 -609l27 -55l26 55l390 596h84l-457 -702l469 -719h-86l-406 625l-28 57l-27 -57l-406 -625h-86z" />
<glyph unicode="Y" horiz-adv-x="1306" d="M690 539l-2 -539h-74v539l-530 895h76l467 -781l24 -55h2l23 55l465 781h76z" />
<glyph unicode="Z" horiz-adv-x="1433" d="M297 1434h954v-68l-989 -1298h1049v-68h-1145v68l989 1298h-866q-68 0 -95.5 18.5t-27.5 73.5v78h70v-55q0 -31 12 -39t49 -8z" />
<glyph unicode="[" horiz-adv-x="692" d="M170 -305v1833h344v-68h-268v-1698h268v-67h-344z" />
<glyph unicode="\" horiz-adv-x="677" d="M72 1507l569 -1546h-72l-569 1546h72z" />
<glyph unicode="]" horiz-adv-x="700" d="M514 1528v-1833h-344v67h268v1698h-268v68h344z" />
<glyph unicode="^" horiz-adv-x="962" d="M475 1352l246 -371h-68l-178 250l-178 -250h-68z" />
<glyph unicode="_" horiz-adv-x="1228" d="M1024 0h-819v68h819v-68z" />
<glyph unicode="`" horiz-adv-x="409" d="M14 1253l185 -272h-68l-192 272h75z" />
<glyph unicode="a" horiz-adv-x="1128" d="M909 0h-75v123l6 92q-43 -104 -133.5 -168.5t-206.5 -64.5q-166 0 -283 117.5t-117 283.5q0 164 117 281.5t283 117.5q119 0 205 -61.5t129 -163.5l10 211h65v-768zM500 49q143 0 234 96.5t91 237.5q0 143 -91 237.5t-234 94.5q-141 0 -232.5 -94.5t-91.5 -237.5 q0 -141 91.5 -237.5t232.5 -96.5z" />
<glyph unicode="b" horiz-adv-x="1150" d="M205 0v1536h76v-979q43 102 129 163.5t204 61.5q166 0 283 -117.5t117 -281.5q0 -166 -117 -283.5t-283 -117.5q-117 0 -207 64.5t-133 168.5l7 -92v-123h-76zM614 49q141 0 232.5 96.5t91.5 237.5q0 143 -91 237.5t-233 94.5q-143 0 -234 -94.5t-91 -237.5 q0 -141 91 -237.5t234 -96.5z" />
<glyph unicode="c" horiz-adv-x="788" d="M57 383q0 164 117 281.5t283 117.5q154 0 266 -102l-41 -51q-92 86 -225 86q-141 0 -232.5 -94.5t-91.5 -237.5t91 -237.5t233 -94.5q133 0 225 86l41 -51q-113 -102 -266 -102q-166 0 -283 117.5t-117 281.5z" />
<glyph unicode="d" horiz-adv-x="1071" d="M909 0h-75v123l6 92q-43 -104 -133.5 -168.5t-206.5 -64.5q-166 0 -283 117.5t-117 283.5q0 164 117 281.5t283 117.5q119 0 205 -61.5t129 -163.5v979h75v-1536zM500 49q143 0 234 96.5t91 237.5q0 143 -91 237.5t-234 94.5q-141 0 -232.5 -94.5t-91.5 -237.5 q0 -141 91.5 -237.5t232.5 -96.5z" />
<glyph unicode="e" horiz-adv-x="923" d="M834 504l-656 -254q37 -92 116 -147.5t185 -55.5q131 0 221 84l52 -41q-115 -111 -273 -110q-166 0 -282.5 117.5t-116.5 283.5q0 164 116.5 281.5t282.5 117.5q131 0 222.5 -75.5t132.5 -200.5zM156 381q0 -23 4 -64l585 228q-84 168 -266 168q-141 0 -232 -94.5 t-91 -237.5z" />
<glyph unicode="f" horiz-adv-x="575" d="M575 1548v-65q-139 0 -228 -92.5t-93 -231.5v-391h238v-68h-238v-700h-76v700h-133v68h133v391q2 164 116.5 276.5t280.5 112.5z" />
<glyph unicode="g" horiz-adv-x="1060" d="M201 -391l53 43q104 -100 258 -101q139 0 230.5 93.5t91.5 230.5v248l6 92q-43 -104 -133.5 -168.5t-206.5 -64.5q-166 0 -283 117.5t-117 283.5q0 164 117 281.5t283 117.5q119 0 205 -61.5t129 -163.5l10 211h65v-893q-2 -164 -116.5 -276.5t-280.5 -112.5 q-184 0 -311 123zM500 49q143 0 234 96.5t91 237.5q0 143 -91 237.5t-234 94.5q-141 0 -232.5 -94.5t-91.5 -237.5q0 -141 91.5 -237.5t232.5 -96.5z" />
<glyph unicode="h" horiz-adv-x="1003" d="M877 0h-76v553q-4 68 -51.5 113t-137.5 49q-135 0 -233 -82t-98 -205v-428h-76v1536h76v-975q43 100 130 159.5t199 61.5q119 0 190.5 -63.5t76.5 -165.5v-553z" />
<glyph unicode="i" horiz-adv-x="368" d="M225 0h-75v768h75v-768zM197 1001q-27 0 -46.5 18.5t-19.5 47.5q0 27 20.5 46.5t45 19.5t44 -19.5t19.5 -46.5q0 -29 -19 -47.5t-44 -18.5z" />
<glyph unicode="j" horiz-adv-x="460" d="M145 -512l-51 47q106 96 109 246v987h76v-987q-5 -178 -134 -293zM246 1001q-27 0 -46.5 18.5t-19.5 47.5q0 27 20.5 46.5t45 19.5t44 -19.5t19.5 -46.5q0 -29 -19 -47.5t-44 -18.5z" />
<glyph unicode="k" horiz-adv-x="919" d="M776 0h-86l-309 422l-156 -146v-276h-75v1536h73v-1163l459 426l45 -49l-293 -277z" />
<glyph unicode="l" horiz-adv-x="378" d="M227 0h-73v1536h73v-1536z" />
<glyph unicode="m" horiz-adv-x="1630" d="M1473 0h-76v553q-4 68 -51.5 113t-137.5 49q-133 0 -232 -79t-99 -196v-440h-76v553q-4 68 -51.5 113t-137.5 49q-135 0 -233 -82t-98 -205v-428h-76v766h67l9 -205q43 100 130 159.5t199 61.5q119 0 190.5 -63.5t76.5 -165.5q43 104 129 165.5t200 63.5 q119 0 190.5 -63.5t76.5 -165.5v-553z" />
<glyph unicode="n" horiz-adv-x="1013" d="M877 0h-76v553q-4 68 -51.5 113t-137.5 49q-135 0 -233 -82t-98 -205v-428h-76v766h67l9 -205q43 100 130 159.5t199 61.5q119 0 190.5 -63.5t76.5 -165.5v-553z" />
<glyph unicode="o" d="M473 -18q-166 0 -282.5 117.5t-116.5 283.5q0 164 116.5 281.5t282.5 117.5q168 0 284.5 -116.5t116.5 -282.5t-116.5 -283.5t-284.5 -117.5zM473 49q143 0 234.5 96.5t91.5 237.5q0 143 -91.5 237.5t-234.5 94.5q-141 0 -232 -94.5t-91 -237.5q0 -141 91 -237.5 t232 -96.5z" />
<glyph unicode="p" horiz-adv-x="1075" d="M137 -512v1280h68l8 -209q43 102 129 163.5t205 61.5q166 0 282.5 -117.5t116.5 -281.5t-116.5 -281.5t-282.5 -117.5q-119 0 -205 61.5t-129 163.5v-723h-76zM547 51q141 0 232 96.5t91 237.5q0 143 -91 237.5t-232 94.5q-143 0 -234.5 -94.5t-91.5 -237.5 q0 -141 91.5 -237.5t234.5 -96.5z" />
<glyph unicode="q" horiz-adv-x="1048" d="M926 -512h-78v727q-43 -104 -133 -168.5t-207 -64.5q-166 0 -282.5 117.5t-116.5 283.5q0 164 116.5 281.5t282.5 117.5q119 0 205 -61.5t129 -163.5l10 211h74v-1280zM508 49q143 0 234.5 96.5t91.5 237.5q0 143 -91.5 237.5t-234.5 94.5q-141 0 -232.5 -94.5 t-91.5 -237.5q0 -141 91.5 -237.5t232.5 -96.5z" />
<glyph unicode="r" horiz-adv-x="677" d="M205 766h67l9 -205q43 98 127 157.5t194 63.5l-2 -67q-127 -4 -215 -84t-104 -203v-428h-76v766z" />
<glyph unicode="s" horiz-adv-x="817" d="M616 690l-38 -53q-20 25 -70.5 49.5t-97.5 24.5q-55 0 -97.5 -33t-42.5 -100q0 -55 30 -83t91 -49q53 -18 88 -33.5t79 -43t66.5 -67.5t22.5 -91q0 -86 -62.5 -156.5t-178.5 -70.5q-160 0 -236 96l45 55q29 -39 89.5 -63.5t107.5 -20.5q57 4 108 43t51 113q0 39 -14 66.5 t-45 47t-54.5 28.5t-66.5 24q-2 0 -28.5 9t-33.5 11t-31 13.5t-33 18.5t-25.5 22.5t-23.5 32t-13 39t-6 48.5q0 98 64.5 154.5t148.5 56.5q128 0 206 -88z" />
<glyph unicode="t" horiz-adv-x="577" d="M295 0h-76v700h-133v68h133v500h76v-500h235v-68h-235v-700z" />
<glyph unicode="u" horiz-adv-x="1083" d="M877 0h-76v123l6 92q-43 -98 -132 -154.5t-204 -60.5q-119 0 -190.5 63.5t-75.5 165.5v539h76v-539q4 -68 51 -112.5t137 -48.5q135 0 233.5 81.5t98.5 204.5v428h76v-782z" />
<glyph unicode="v" horiz-adv-x="1024" d="M522 106l332 662h80l-412 -815l-411 815h79z" />
<glyph unicode="w" horiz-adv-x="1581" d="M1081 106l332 662h80l-412 -815l-280 553l-279 -553l-411 815h79l332 -662l240 478l-92 184h80z" />
<glyph unicode="x" horiz-adv-x="819" d="M86 768h86l242 -334l239 332h84l-278 -385l276 -381h-84l-239 332l-240 -332h-86l276 383z" />
<glyph unicode="y" horiz-adv-x="999" d="M283 -512h-78l270 543l-371 737h80l332 -662l332 662h80z" />
<glyph unicode="z" horiz-adv-x="923" d="M217 768h602v-68l-637 -632h637v-68h-733v68l637 632h-514q-68 0 -95.5 18.5t-27.5 74.5v77h70v-55q0 -31 12 -39t49 -8z" />
<glyph unicode="{" horiz-adv-x="573" d="M61 578v67q61 2 100.5 51t50.5 104.5t11 121.5v364q0 143 45 192.5t131 49.5h97v-68h-90q-63 0 -85 -40t-22 -171v-362q0 -190 -133 -277q133 -86 133 -274v-363q0 -131 21.5 -171t85.5 -40h90v-67h-97q-86 0 -131 49t-45 193v364q0 66 -11 121t-50.5 104.5t-100.5 51.5z " />
<glyph unicode="|" horiz-adv-x="466" d="M186 -475v1909h76v-1909h-76z" />
<glyph unicode="}" horiz-adv-x="567" d="M496 645v-67q-61 -2 -100.5 -51.5t-50.5 -104.5t-11 -121v-364q0 -143 -45 -192.5t-131 -49.5h-97v67h91q63 0 84.5 40t21.5 171v363q0 188 133 274q-133 86 -133 277v362q0 131 -21.5 171t-84.5 40h-91v68h97q86 0 131 -49t45 -193v-364q0 -66 11 -121.5t50.5 -104.5 t100.5 -51z" />
<glyph unicode="~" horiz-adv-x="1001" d="M616 930q-55 0 -118 63q-55 53 -86 54q-78 0 -88 -97l-58 6q4 74 45 111t103 37q49 0 121 -66q53 -51 83 -51q78 0 89 96l57 -6q-4 -74 -45.5 -110.5t-102.5 -36.5z" />
<glyph unicode="&#xa1;" horiz-adv-x="409" d="M168 -430v1196h72v-1196h-72zM205 1071q25 0 44 -18.5t19 -46.5q0 -27 -19.5 -46.5t-44 -19.5t-45 19.5t-20.5 46.5q0 29 19.5 47t46.5 18z" />
<glyph unicode="&#xa2;" horiz-adv-x="788" d="M395 -137v127q-145 23 -241.5 134.5t-96.5 258.5t96.5 259t241.5 134v121h76v-115q141 -6 252 -102l-41 -51q-90 80 -211 86v-664q121 2 211 86l41 -51q-106 -96 -252 -102v-121h-76zM133 383q0 -127 71.5 -217t190.5 -111v654q-119 -20 -190.5 -109.5t-71.5 -216.5z" />
<glyph unicode="&#xa3;" horiz-adv-x="1175" d="M780 0h-721v74h91q66 0 86 38t20 167v335h-133v68h133v342q0 139 92 206.5t254 67.5q231 0 324 -186l-52 -31q-47 84 -104 119t-168 35q-135 0 -203.5 -47t-68.5 -164v-342h239v-68h-239v-372q0 -111 -29 -168h442q131 0 171 21.5t40 84.5v90h68v-96q0 -86 -49.5 -130 t-192.5 -44z" />
<glyph unicode="&#xa4;" horiz-adv-x="1024" d="M225 739.5q0 96.5 60 171.5l-68 70l47 47l68 -70q78 61 174 62q94 0 170 -59l67 67l48 -47l-66 -66q61 -78 61 -176q0 -96 -61 -174l68 -65l-48 -47l-67 65q-76 -59 -172 -59t-176 59l-66 -65l-47 47l68 67q-60 76 -60 172.5zM307 737q0 -82 59.5 -141t141.5 -59 q84 0 143.5 58t59.5 142t-59.5 143.5t-143.5 59.5t-142.5 -59.5t-58.5 -143.5z" />
<glyph unicode="&#xa5;" horiz-adv-x="1306" d="M989 270v-65h-301v-205h-76v205h-305v65h305l2 269h-307v65h268l-491 830h76l491 -820h2l488 820h76l-488 -830h260v-65h-299l-2 -269h301z" />
<glyph unicode="&#xa6;" horiz-adv-x="440" d="M262 717h-76v717h76v-717zM262 -477h-76v717h76v-717z" />
<glyph unicode="&#xa7;" horiz-adv-x="1024" d="M565 1149l170 -293q49 -84 23.5 -180t-111.5 -146q-84 -49 -174 -26l102 -176q49 -86 56.5 -146.5t-15 -92.5t-71.5 -58l-84 -49l-37 65l80 45q55 29 54 73t-66 157q-170 291 -173 294q-49 86 -23 182.5t112 145.5q78 47 174 27l-101 172q-49 86 -56 146.5t15.5 92 t71.5 58.5l84 49l37 -66l-80 -45q-55 -29 -54.5 -72.5t66.5 -156.5zM387 653q35 -59 100.5 -78.5t125 15.5t76 101.5t-18.5 126t-101.5 81t-128.5 -11.5q-57 -35 -72.5 -106t19.5 -128z" />
<glyph unicode="&#xa8;" horiz-adv-x="757" d="M209 1001q-27 0 -46.5 18.5t-19.5 47.5q0 27 20.5 46.5t45 19.5t44 -19.5t19.5 -46.5q0 -29 -19 -47.5t-44 -18.5zM547 1001q-27 0 -46.5 18.5t-19.5 47.5q0 27 20.5 46.5t45 19.5t44 -19.5t19.5 -46.5q0 -29 -19 -47.5t-44 -18.5z" />
<glyph unicode="&#xa9;" horiz-adv-x="1624" d="M500 766q0 137 98 235.5t238 98.5q125 0 221 -86l-41 -47q-82 66 -180 65q-119 0 -192 -74.5t-73 -191.5t73 -190.5t192 -73.5q111 0 180 67l41 -49q-94 -84 -221 -84q-139 0 -237.5 96.5t-98.5 233.5zM819 236q-217 0 -370.5 150.5t-153.5 371.5q0 225 153.5 374.5 t370.5 149.5t370.5 -149.5t153.5 -374.5q0 -221 -153.5 -371.5t-370.5 -150.5zM819.5 299q194.5 0 325.5 131t131 328q0 199 -131 330t-325.5 131t-326 -131.5t-131.5 -329.5q0 -197 131.5 -328t326 -131z" />
<glyph unicode="&#xaa;" horiz-adv-x="1198" d="M774 627h-53v88l4 67q-33 -76 -97.5 -122t-148.5 -46q-119 0 -204 85t-85 204t85 204t204 85q172 0 242 -164l6 152h47v-553zM479.5 662q102.5 0 169 69.5t66.5 171.5q0 104 -65.5 172t-170.5 68q-102 0 -167.5 -67.5t-65.5 -172.5q0 -102 65.5 -171.5t168 -69.5z" />
<glyph unicode="&#xab;" horiz-adv-x="1230" d="M940 158l-350 331l350 330v-74l-252 -256l252 -258v-73zM590 158l-350 331l350 330v-74l-252 -256l252 -258v-73z" />
<glyph unicode="&#xac;" horiz-adv-x="1144" d="M874 303v137h-669v68h737v-205h-68z" />
<glyph unicode="&#xad;" horiz-adv-x="614" d="M109 356v68h376v-68h-376z" />
<glyph unicode="&#xae;" horiz-adv-x="1640" d="M680 471v621h131q61 0 128 -49.5t67 -127.5q0 -63 -41 -116.5t-101 -67.5l109 -201q8 -14 28 -14h21v-45h-51q-25 0 -33 12l-127 244h-78v-256h-53zM733 782h72q80 0 114.5 40t34.5 93q0 49 -43 87t-104 38h-74v-258zM819 240q-217 0 -370.5 150.5t-153.5 371.5 q0 225 153.5 374.5t370.5 149.5t370.5 -149.5t153.5 -374.5q0 -221 -153.5 -371.5t-370.5 -150.5zM819.5 303q194.5 0 325.5 131t131 328q0 199 -131 330t-325.5 131t-326 -131t-131.5 -330q0 -197 131.5 -328t326 -131z" />
<glyph unicode="&#xaf;" horiz-adv-x="817" d="M174 989v68h471v-68h-471z" />
<glyph unicode="&#xb0;" horiz-adv-x="577" d="M283 983q-70 0 -118 47t-48 117t48 117t118 47q68 0 115.5 -47t47.5 -117t-47.5 -117t-115.5 -47zM282.5 1032q49.5 0 79 32t29.5 83t-28.5 82t-80 31t-81 -31t-29.5 -82q0 -49 30.5 -82t80 -33z" />
<glyph unicode="&#xb1;" horiz-adv-x="1073" d="M913 258h-737v68h737v-68zM510 834v333h68v-333h335v-68h-335v-336h-68v336h-334v68h334z" />
<glyph unicode="&#xb2;" horiz-adv-x="815" d="M283 1141l-31 -29q-51 51 -51 131q0 84 49 138.5t135 54.5q82 0 133 -56.5t51 -144.5q0 -70 -44 -150.5t-89 -133t-133 -142.5h311v-41h-417l165 169q56 60 109 144t53 144q0 92 -42 131t-97 39q-80 0 -109.5 -46t-29.5 -106q0 -65 37 -102z" />
<glyph unicode="&#xb3;" horiz-adv-x="858" d="M301 1221l14 16l195 250h-262v39h332l-195 -254q96 0 172 -68.5t76 -179.5q0 -115 -74 -184.5t-174 -69.5q-106 0 -176 68l29 30q57 -61 147 -61t147.5 62.5t57.5 154.5q0 94 -60.5 152.5t-144.5 58.5q-39 0 -84 -14z" />
<glyph unicode="&#xb4;" horiz-adv-x="464" d="M205 981l184 272h76l-193 -272h-67z" />
<glyph unicode="&#xb5;" horiz-adv-x="1116" d="M877 0h-76v123l6 92q-43 -98 -132 -154.5t-204 -60.5q-119 0 -190 61v-473h-76v1180h76v-539q4 -68 51 -112.5t137 -48.5q131 0 223 80.5t109 205.5v428h76v-782z" />
<glyph unicode="&#x3bc;" horiz-adv-x="1116" d="M877 0h-76v123l6 92q-43 -98 -132 -154.5t-204 -60.5q-119 0 -190 61v-473h-76v1180h76v-539q4 -68 51 -112.5t137 -48.5q131 0 223 80.5t109 205.5v428h76v-782z" />
<glyph unicode="&#xb6;" horiz-adv-x="1021" d="M485 0h-73v866q-139 0 -236.5 97.5t-97.5 236.5t97 237.5t237 98.5h407v-1536h-74v1468h-260v-1468z" />
<glyph unicode="&#xb7;" horiz-adv-x="344" d="M174 512q-27 0 -46 18.5t-19 47.5q0 27 20.5 46t45 19t44 -19.5t19.5 -45.5q0 -29 -19.5 -47.5t-44.5 -18.5z" />
<glyph unicode="&#xb8;" horiz-adv-x="925" d="M395 0h76v-14q0 -27 9 -45.5t19.5 -26.5t29 -18.5t26.5 -16.5q74 -55 74 -160q0 -88 -54.5 -150.5t-152.5 -62.5q-70 0 -125 38t-80 110l70 16q12 -43 49 -70.5t86 -27.5q63 0 103 42t40 105q0 66 -51 115q-14 10 -42 27.5t-41 28t-24.5 31t-11.5 46.5v33z" />
<glyph unicode="&#xb9;" horiz-adv-x="489" d="M139 1311v51l123 72v-613h-59v527z" />
<glyph unicode="&#xba;" d="M475 614q-119 0 -204 85t-85 204t85 204t204 85q121 0 205 -85t84 -204t-84 -204t-205 -85zM475.5 662q102.5 0 168 69.5t65.5 171.5q0 104 -65.5 172t-168 68t-168 -67.5t-65.5 -172.5q0 -102 65.5 -171.5t168 -69.5z" />
<glyph unicode="&#xbb;" horiz-adv-x="1130" d="M590 489l-350 -331v73l252 258l-252 256v74zM940 489l-350 -331v73l252 258l-252 256v74z" />
<glyph unicode="&#xbc;" horiz-adv-x="1982" d="M524 -39l570 1546h71l-569 -1546h-72zM1026 279l557 725v-674h148v-51h-148v-279h-55v279h-502zM1528 846l-395 -516h395v516zM248 1274v51l190 111v-957h-53v873z" />
<glyph unicode="&#xbd;" horiz-adv-x="2189" d="M248 1274v51l190 111v-957h-53v873zM524 -39l570 1546h71l-569 -1546h-72zM1227 526l-39 -34q-72 72 -72 184q0 121 70.5 199.5t193.5 78.5q115 0 188.5 -80.5t73.5 -203.5q0 -78 -29.5 -155t-101 -170t-115.5 -142l-147 -158h459v-47h-586l178 182q60 64 140 160 t114.5 171t34.5 140q0 133 -65.5 194.5t-143.5 61.5q-113 0 -162 -72.5t-49 -158.5q1 -93 58 -150z" />
<glyph unicode="&#xbe;" horiz-adv-x="2613" d="M475 1034l21 23l264 342h-357v51h451l-266 -344q133 0 235.5 -93t102.5 -245q0 -156 -101.5 -251t-236.5 -95q-139 0 -238 92l39 41q82 -82 199 -82q123 0 200.5 85t77.5 210q0 127 -82 207t-196 80q-60 -1 -113 -21zM942 -39l569 1546h72l-569 -1546h-72zM1434 279 l557 725v-674h147v-51h-147v-279h-56v279h-501zM1935 846l-395 -516h395v516z" />
<glyph unicode="&#xbf;" horiz-adv-x="839" d="M436 1075q27 0 46.5 -18.5t19.5 -46.5q0 -27 -20.5 -46.5t-45 -19.5t-44 19.5t-19.5 46.5q0 29 19 47t44 18zM717 -104l71 -19q-41 -121 -144 -196.5t-234 -75.5q-168 0 -285 116.5t-117 282.5q0 205 201 354l58 37q46 29 66.5 46.5t42 62.5t21.5 104v160h72v-199 q0 -61 -25.5 -108t-54.5 -69.5t-92.5 -61.5t-93.5 -64q-119 -106 -119 -262q0 -143 91 -237.5t235 -94.5q113 0 194.5 61t112.5 163z" />
<glyph unicode="&#xc0;" horiz-adv-x="1515" d="M1395 0h-80l-260 614h-590l-260 -614h-80l635 1499zM739 1262l-245 -578h530l-244 578l-20 65zM610 1911l185 -273h-68l-192 273h75z" />
<glyph unicode="&#xc1;" horiz-adv-x="1515" d="M1395 0h-80l-260 614h-590l-260 -614h-80l635 1499zM739 1262l-245 -578h530l-244 578l-20 65zM725 1638l184 273h76l-192 -273h-68z" />
<glyph unicode="&#xc2;" horiz-adv-x="1515" d="M760 2009l246 -371h-68l-178 250l-178 -250h-68zM1395 0h-80l-260 614h-590l-260 -614h-80l635 1499zM739 1262l-245 -578h530l-244 578l-20 65z" />
<glyph unicode="&#xc3;" horiz-adv-x="1515" d="M1395 0h-80l-260 614h-590l-260 -614h-80l635 1499zM739 1262l-245 -578h530l-244 578l-20 65zM741 1679q-55 53 -114 54q-39 0 -75 -21.5t-42 -73.5l-57 7q4 72 57 108.5t119 36.5q78 0 149 -66q55 -53 115 -53q39 0 75 21.5t42 72.5l57 -6q-4 -72 -57.5 -108.5 t-118.5 -36.5q-78 -1 -150 65z" />
<glyph unicode="&#xc4;" horiz-adv-x="1515" d="M1395 0h-80l-260 614h-590l-260 -614h-80l635 1499zM739 1262l-245 -578h530l-244 578l-20 65zM526 1638q-27 0 -46 18.5t-19 47.5q0 27 20.5 46t45 19t44 -19t19.5 -46q0 -29 -19.5 -47.5t-44.5 -18.5zM1004 1638q-27 0 -46.5 18.5t-19.5 47.5q0 27 20.5 46t45 19 t44 -19t19.5 -46q0 -29 -19 -47.5t-44 -18.5z" />
<glyph unicode="&#xc5;" horiz-adv-x="1515" d="M1395 0h-80l-260 614h-590l-260 -614h-80l635 1499zM739 1262l-245 -578h530l-244 578l-20 65zM623 1716.5q0 55.5 41 96t96 40.5t96 -40.5t41 -96t-41 -96.5t-96 -41t-96 41t-41 96.5zM680 1716q0 -35 22.5 -57.5t57.5 -22.5t57.5 22.5t22.5 57.5t-22.5 57.5t-57.5 22.5 t-57.5 -22.5t-22.5 -57.5z" />
<glyph unicode="&#xc6;" horiz-adv-x="1615" d="M760 0v614h-295l-260 -614h-80l606 1434h670v-68h-565v-610h485v-68h-485v-620h594v-68h-670zM741 1268l-247 -584h266v580l2 61z" />
<glyph unicode="&#xc7;" horiz-adv-x="1372" d="M1171 139l58 -55q-160 -94 -350 -100q0 -27 9 -45.5t19.5 -25.5t28.5 -17.5t27 -16.5q74 -55 73 -160q0 -88 -54 -150.5t-153 -62.5q-70 0 -125 38t-79 110l69 16q12 -43 49 -70.5t86 -27.5q63 0 103.5 42t40.5 105q0 66 -51 115q-14 10 -42 27.5t-41.5 28t-24.5 31 t-11 46.5v19q-285 20 -480.5 230t-195.5 499q0 305 214 520t517 215q201 0 369 -98l-53 -60q-152 82 -316 82q-270 0 -462.5 -194.5t-192.5 -465t192.5 -463t462.5 -192.5q166 0 313 80z" />
<glyph unicode="&#xc8;" horiz-adv-x="1230" d="M186 0v1434h838v-68h-762v-610h682v-68h-682v-620h791v-68h-867zM444 1911l185 -273h-68l-192 273h75z" />
<glyph unicode="&#xc9;" horiz-adv-x="1230" d="M186 0v1434h838v-68h-762v-610h682v-68h-682v-620h791v-68h-867zM561 1638l184 273h76l-192 -273h-68z" />
<glyph unicode="&#xca;" horiz-adv-x="1230" d="M186 0v1434h838v-68h-762v-610h682v-68h-682v-620h791v-68h-867zM614 2009l246 -371h-67l-179 250l-178 -250h-67z" />
<glyph unicode="&#xcb;" horiz-adv-x="1230" d="M186 0v1434h838v-68h-762v-610h682v-68h-682v-620h791v-68h-867zM367 1638q-27 0 -46.5 18.5t-19.5 47.5q0 27 20.5 46t45 19t44 -19t19.5 -46q0 -29 -19 -47.5t-44 -18.5zM844 1638q-27 0 -46.5 18.5t-19.5 47.5q0 27 20.5 46t45 19t44 -19t19.5 -46q0 -29 -19 -47.5 t-44 -18.5z" />
<glyph unicode="&#xcc;" horiz-adv-x="483" d="M203 1434h76v-1434h-76v1434zM88 1911l184 -273h-67l-193 273h76z" />
<glyph unicode="&#xcd;" horiz-adv-x="483" d="M203 1434h76v-1434h-76v1434zM205 1638l184 273h76l-193 -273h-67z" />
<glyph unicode="&#xce;" horiz-adv-x="483" d="M203 1434h76v-1434h-76v1434zM240 2009l245 -371h-67l-178 250l-179 -250h-67z" />
<glyph unicode="&#xcf;" horiz-adv-x="483" d="M203 1434h76v-1434h-76v1434zM4 1638q-27 0 -46 18.5t-19 47.5q0 27 20.5 46t45 19t44 -19t19.5 -46q0 -29 -19.5 -47.5t-44.5 -18.5zM481 1638q-27 0 -46 18.5t-19 47.5q0 27 20.5 46t45 19t44 -19t19.5 -46q0 -29 -19.5 -47.5t-44.5 -18.5z" />
<glyph unicode="&#xd0;" horiz-adv-x="1323" d="M45 688v68h123v678h285q309 0 522 -199t213 -518q0 -129 -45 -250t-136.5 -228.5t-253 -173t-372.5 -65.5h-213v688h-123zM244 1366v-610h418v-68h-418v-620h172q301 0 498.5 179t197.5 470t-197.5 470t-498.5 179h-172z" />
<glyph unicode="&#xd1;" horiz-adv-x="1665" d="M1456 1434v-1500l-1143 1326l-39 53l7 -66v-1247h-76v1499l1143 -1325l38 -53l-6 65v1248h76zM819 1679q-55 53 -114 54q-39 0 -75 -21.5t-42 -73.5l-58 7q4 72 57.5 108.5t119.5 36.5q78 0 149 -66q55 -53 115 -53q39 0 74.5 21.5t41.5 72.5l58 -6q-4 -72 -57.5 -108.5 t-118.5 -36.5q-78 -1 -150 65z" />
<glyph unicode="&#xd2;" horiz-adv-x="1718" d="M127 715q0 305 214 520t517 215q305 0 520 -215t215 -520q0 -303 -215 -517t-520 -214q-303 0 -517 214t-214 517zM203 714.5q0 -270.5 192.5 -463t462.5 -192.5t465 192.5t195 463t-195 465t-465 194.5t-462.5 -194.5t-192.5 -465zM705 1911l184 -273h-68l-192 273h76z " />
<glyph unicode="&#xd3;" horiz-adv-x="1720" d="M127 715q0 305 214 520t517 215q305 0 520 -215t215 -520q0 -303 -215 -517t-520 -214q-303 0 -517 214t-214 517zM203 714.5q0 -270.5 192.5 -463t462.5 -192.5t465 192.5t195 463t-195 465t-465 194.5t-462.5 -194.5t-192.5 -465zM819 1638l185 273h75l-192 -273h-68z " />
<glyph unicode="&#xd4;" horiz-adv-x="1718" d="M850 2009l246 -371h-68l-178 250l-178 -250h-68zM127 715q0 305 214 520t517 215q305 0 520 -215t215 -520q0 -303 -215 -517t-520 -214q-303 0 -517 214t-214 517zM203 714.5q0 -270.5 192.5 -463t462.5 -192.5t465 192.5t195 463t-195 465t-465 194.5t-462.5 -194.5 t-192.5 -465z" />
<glyph unicode="&#xd5;" horiz-adv-x="1718" d="M127 715q0 305 214 520t517 215q305 0 520 -215t215 -520q0 -303 -215 -517t-520 -214q-303 0 -517 214t-214 517zM203 714.5q0 -270.5 192.5 -463t462.5 -192.5t465 192.5t195 463t-195 465t-465 194.5t-462.5 -194.5t-192.5 -465zM846 1679q-55 53 -115 54 q-39 0 -74.5 -21.5t-42.5 -73.5l-57 7q4 72 57.5 108.5t118.5 36.5q78 0 150 -66q55 -53 114 -53q39 0 75 21.5t42 72.5l57 -6q-4 -72 -57 -108.5t-119 -36.5q-77 -1 -149 65z" />
<glyph unicode="&#xd6;" horiz-adv-x="1718" d="M127 715q0 305 214 520t517 215q305 0 520 -215t215 -520q0 -303 -215 -517t-520 -214q-303 0 -517 214t-214 517zM203 714.5q0 -270.5 192.5 -463t462.5 -192.5t465 192.5t195 463t-195 465t-465 194.5t-462.5 -194.5t-192.5 -465zM629 1638q-27 0 -46.5 18.5 t-19.5 47.5q0 27 20.5 46t45 19t44 -19t19.5 -46q0 -29 -19 -47.5t-44 -18.5zM1106 1638q-27 0 -46.5 18.5t-19.5 47.5q0 27 20.5 46t45 19t44 -19t19.5 -46q0 -29 -19 -47.5t-44 -18.5z" />
<glyph unicode="&#xd7;" horiz-adv-x="1024" d="M463 285l-236 235l47 49l236 -237l238 237l49 -47l-238 -237l238 -238l-49 -47l-238 236l-236 -236l-47 49z" />
<glyph unicode="&#xd8;" horiz-adv-x="1720" d="M127 715q0 305 214 520t517 215q252 0 451 -156l131 156l51 -41l-133 -156q236 -219 235 -538q0 -303 -215 -517t-520 -214q-254 0 -446 151l-144 -170l-51 45l143 168q-233 218 -233 537zM203 715q0 -285 207 -477l847 999q-176 137 -399 137q-270 0 -462.5 -194.5 t-192.5 -464.5zM1518 715q0 279 -209 477l-848 -999q176 -133 397 -134q270 0 465 193t195 463z" />
<glyph unicode="&#xd9;" horiz-adv-x="1335" d="M670 -16q-209 0 -339 126t-130 353v971h75v-965q0 -197 109 -307.5t285 -110.5t285.5 110.5t109.5 307.5v965h76v-971q0 -227 -132 -353t-339 -126zM498 1911l184 -273h-68l-192 273h76z" />
<glyph unicode="&#xda;" horiz-adv-x="1335" d="M670 -16q-209 0 -339 126t-130 353v971h75v-965q0 -197 109 -307.5t285 -110.5t285.5 110.5t109.5 307.5v965h76v-971q0 -227 -132 -353t-339 -126zM614 1638l185 273h75l-192 -273h-68z" />
<glyph unicode="&#xdb;" horiz-adv-x="1335" d="M670 -16q-209 0 -339 126t-130 353v971h75v-965q0 -197 109 -307.5t285 -110.5t285.5 110.5t109.5 307.5v965h76v-971q0 -227 -132 -353t-339 -126zM666 2009l245 -371h-67l-178 250l-179 -250h-67z" />
<glyph unicode="&#xdc;" horiz-adv-x="1335" d="M670 -16q-209 0 -339 126t-130 353v971h75v-965q0 -197 109 -307.5t285 -110.5t285.5 110.5t109.5 307.5v965h76v-971q0 -227 -132 -353t-339 -126zM438 1638q-27 0 -46 18.5t-19 47.5q0 27 20.5 46t45 19t44 -19t19.5 -46q0 -29 -19.5 -47.5t-44.5 -18.5zM915 1638 q-27 0 -46 18.5t-19 47.5q0 27 20.5 46t45 19t44 -19t19.5 -46q0 -29 -19.5 -47.5t-44.5 -18.5z" />
<glyph unicode="&#xdd;" horiz-adv-x="1306" d="M690 539l-2 -539h-74v539l-530 895h76l467 -781l24 -55h2l23 55l465 781h76zM614 1638l185 273h75l-192 -273h-68z" />
<glyph unicode="&#xde;" horiz-adv-x="1026" d="M205 1434h76v-338h219q90 0 182 -35t166 -123t74 -211q0 -178 -111 -281.5t-311 -103.5h-219v-342h-76v1434zM281 410h208q100 0 173 29.5t111 78.5t55.5 100.5t17.5 108.5q0 121 -103.5 211t-250.5 90h-211v-618z" />
<glyph unicode="&#xdf;" horiz-adv-x="1173" d="M418 16l31 64q63 -29 131 -29q143 0 247.5 104.5t104.5 247.5q0 141 -99.5 243t-240.5 106v63q92 4 154.5 68.5t62.5 158.5q0 98 -66.5 169t-167.5 71q-139 0 -228 -92t-93 -232v-958h-76v702h-133v68h133v188q2 164 117 277t285 113q125 0 213 -88.5t88 -212.5 q0 -82 -41 -151t-111 -105q125 -43 202 -148.5t77 -239.5q0 -174 -125 -296.5t-299 -122.5q-92 -1 -166 32z" />
<glyph unicode="&#xe0;" horiz-adv-x="1128" d="M909 0h-75v123l6 92q-43 -104 -133.5 -168.5t-206.5 -64.5q-166 0 -283 117.5t-117 283.5q0 164 117 281.5t283 117.5q119 0 205 -61.5t129 -163.5l10 211h65v-768zM500 49q143 0 234 96.5t91 237.5q0 143 -91 237.5t-234 94.5q-141 0 -232.5 -94.5t-91.5 -237.5 q0 -141 91.5 -237.5t232.5 -96.5zM358 1253l185 -272h-68l-192 272h75z" />
<glyph unicode="&#xe1;" horiz-adv-x="1128" d="M909 0h-75v123l6 92q-43 -104 -133.5 -168.5t-206.5 -64.5q-166 0 -283 117.5t-117 283.5q0 164 117 281.5t283 117.5q119 0 205 -61.5t129 -163.5l10 211h65v-768zM500 49q143 0 234 96.5t91 237.5q0 143 -91 237.5t-234 94.5q-141 0 -232.5 -94.5t-91.5 -237.5 q0 -141 91.5 -237.5t232.5 -96.5zM473 981l184 272h76l-192 -272h-68z" />
<glyph unicode="&#xe2;" horiz-adv-x="1128" d="M909 0h-75v123l6 92q-43 -104 -133.5 -168.5t-206.5 -64.5q-166 0 -283 117.5t-117 283.5q0 164 117 281.5t283 117.5q119 0 205 -61.5t129 -163.5l10 211h65v-768zM500 49q143 0 234 96.5t91 237.5q0 143 -91 237.5t-234 94.5q-141 0 -232.5 -94.5t-91.5 -237.5 q0 -141 91.5 -237.5t232.5 -96.5zM535 1352l245 -371h-67l-178 250l-179 -250h-67z" />
<glyph unicode="&#xe3;" horiz-adv-x="1128" d="M909 0h-75v123l6 92q-43 -104 -133.5 -168.5t-206.5 -64.5q-166 0 -283 117.5t-117 283.5q0 164 117 281.5t283 117.5q119 0 205 -61.5t129 -163.5l10 211h65v-768zM500 49q143 0 234 96.5t91 237.5q0 143 -91 237.5t-234 94.5q-141 0 -232.5 -94.5t-91.5 -237.5 q0 -141 91.5 -237.5t232.5 -96.5zM604 940q-55 0 -119 64q-55 53 -86 53q-78 0 -88 -96l-57 6q4 74 45 110.5t102 36.5q49 0 121 -65q53 -51 84 -52q78 0 88 97l58 -7q-4 -74 -45.5 -110.5t-102.5 -36.5z" />
<glyph unicode="&#xe4;" horiz-adv-x="1128" d="M369 1001q-27 0 -46.5 18.5t-19.5 47.5q0 27 20.5 46.5t45 19.5t44 -19.5t19.5 -46.5q0 -29 -19 -47.5t-44 -18.5zM707 1001q-27 0 -46.5 18.5t-19.5 47.5q0 27 20.5 46.5t45 19.5t44 -19.5t19.5 -46.5q0 -29 -19 -47.5t-44 -18.5zM909 0h-75v123l6 92 q-43 -104 -133.5 -168.5t-206.5 -64.5q-166 0 -283 117.5t-117 283.5q0 164 117 281.5t283 117.5q119 0 205 -61.5t129 -163.5l10 211h65v-768zM500 49q143 0 234 96.5t91 237.5q0 143 -91 237.5t-234 94.5q-141 0 -232.5 -94.5t-91.5 -237.5q0 -141 91.5 -237.5 t232.5 -96.5z" />
<glyph unicode="&#xe5;" horiz-adv-x="1128" d="M909 0h-75v123l6 92q-43 -104 -133.5 -168.5t-206.5 -64.5q-166 0 -283 117.5t-117 283.5q0 164 117 281.5t283 117.5q119 0 205 -61.5t129 -163.5l10 211h65v-768zM500 49q143 0 234 96.5t91 237.5q0 143 -91 237.5t-234 94.5q-141 0 -232.5 -94.5t-91.5 -237.5 q0 -141 91.5 -237.5t232.5 -96.5zM375 1108q0 55 41 96t96 41t96 -41t41 -96t-41 -96t-96 -41t-96 41t-41 96zM432 1108q0 -35 22.5 -57.5t57.5 -22.5t57.5 22.5t22.5 57.5t-22.5 57.5t-57.5 22.5t-57.5 -22.5t-22.5 -57.5z" />
<glyph unicode="&#xe6;" horiz-adv-x="1288" d="M217 659l-51 50q39 33 112.5 54t141.5 21q156 0 231 -53q88 49 191 49q131 0 222 -75.5t132 -200.5l-459 -178v-215q0 -33 8 -52q45 -12 97 -12q131 0 221 84l51 -41q-115 -111 -272 -110q-125 0 -221 67q-72 -63 -201 -63q-154 0 -237 49t-83 168q0 102 88 148t222 46 h252v94q0 123 -47.5 175.5t-196.5 52.5q-49 0 -109.5 -17.5t-91.5 -40.5zM662 328h-242q-117 0 -180.5 -26t-63.5 -99q0 -152 250 -152q236 0 236 162v115zM842 713q-82 0 -144 -31q39 -61 39 -184v-99l371 146q-84 168 -266 168z" />
<glyph unicode="&#xe7;" horiz-adv-x="788" d="M57 383q0 164 117 281.5t283 117.5q154 0 266 -102l-41 -51q-92 86 -225 86q-141 0 -232.5 -94.5t-91.5 -237.5t91 -237.5t233 -94.5q133 0 225 86l41 -51q-106 -96 -252 -102q0 -27 9 -45.5t19.5 -25.5t29 -17.5t26.5 -16.5q74 -55 74 -160q0 -88 -54.5 -150.5 t-152.5 -62.5q-70 0 -125 38t-80 110l70 16q12 -43 49 -70.5t86 -27.5q63 0 103 42t40 105q0 66 -51 115q-14 10 -42 27.5t-41 28t-24.5 31t-11.5 46.5v23q-145 23 -241.5 134.5t-96.5 258.5z" />
<glyph unicode="&#xe8;" horiz-adv-x="923" d="M834 504l-656 -254q37 -92 116 -147.5t185 -55.5q131 0 221 84l52 -41q-115 -111 -273 -110q-166 0 -282.5 117.5t-116.5 283.5q0 164 116.5 281.5t282.5 117.5q131 0 222.5 -75.5t132.5 -200.5zM156 381q0 -23 4 -64l585 228q-84 168 -266 168q-141 0 -232 -94.5 t-91 -237.5zM291 1253l184 -272h-67l-193 272h76z" />
<glyph unicode="&#xe9;" horiz-adv-x="923" d="M834 504l-656 -254q37 -92 116 -147.5t185 -55.5q131 0 221 84l52 -41q-115 -111 -273 -110q-166 0 -282.5 117.5t-116.5 283.5q0 164 116.5 281.5t282.5 117.5q131 0 222.5 -75.5t132.5 -200.5zM156 381q0 -23 4 -64l585 228q-84 168 -266 168q-141 0 -232 -94.5 t-91 -237.5zM473 981l184 272h76l-192 -272h-68z" />
<glyph unicode="&#xea;" horiz-adv-x="923" d="M834 504l-656 -254q37 -92 116 -147.5t185 -55.5q131 0 221 84l52 -41q-115 -111 -273 -110q-166 0 -282.5 117.5t-116.5 283.5q0 164 116.5 281.5t282.5 117.5q131 0 222.5 -75.5t132.5 -200.5zM156 381q0 -23 4 -64l585 228q-84 168 -266 168q-141 0 -232 -94.5 t-91 -237.5zM475 1352l246 -371h-68l-178 250l-178 -250h-68z" />
<glyph unicode="&#xeb;" horiz-adv-x="923" d="M834 504l-656 -254q37 -92 116 -147.5t185 -55.5q131 0 221 84l52 -41q-115 -111 -273 -110q-166 0 -282.5 117.5t-116.5 283.5q0 164 116.5 281.5t282.5 117.5q131 0 222.5 -75.5t132.5 -200.5zM156 381q0 -23 4 -64l585 228q-84 168 -266 168q-141 0 -232 -94.5 t-91 -237.5zM319 1001q-27 0 -46 18.5t-19 47.5q0 27 20.5 46.5t45 19.5t44 -19.5t19.5 -46.5q0 -29 -19.5 -47.5t-44.5 -18.5zM657 1001q-27 0 -46 18.5t-19 47.5q0 27 20.5 46.5t45 19.5t44 -19.5t19.5 -46.5q0 -29 -19.5 -47.5t-44.5 -18.5z" />
<glyph unicode="&#xec;" horiz-adv-x="356" d="M14 1253l185 -272h-68l-192 272h75zM199 0h-74v768h74v-768z" />
<glyph unicode="&#xed;" horiz-adv-x="397" d="M199 0h-74v768h74v-768zM133 981l184 272h76l-192 -272h-68z" />
<glyph unicode="&#xee;" horiz-adv-x="489" d="M238 1352l245 -371h-67l-178 250l-179 -250h-67zM272 0h-73v768h73v-768z" />
<glyph unicode="&#xef;" horiz-adv-x="555" d="M113 1001q-27 0 -46.5 18.5t-19.5 47.5q0 27 20.5 46.5t45 19.5t44 -19.5t19.5 -46.5q0 -29 -19 -47.5t-44 -18.5zM451 1001q-27 0 -46.5 18.5t-19.5 47.5q0 27 20.5 46.5t45 19.5t44 -19.5t19.5 -46.5q0 -29 -19 -47.5t-44 -18.5zM324 0h-74v768h74v-768z" />
<glyph unicode="&#xf0;" horiz-adv-x="1009" d="M338 1079l-47 47l145 148v2q-96 109 -186 186l49 49q76 -59 190 -186l142 143l49 -47l-145 -145q131 -162 233 -413t106 -480q0 -166 -116.5 -283.5t-284.5 -117.5q-166 0 -282.5 117.5t-116.5 283.5q0 164 116.5 281.5t282.5 117.5t281 -114q-84 297 -275 553zM473 49 q143 0 234.5 96.5t91.5 237.5q0 143 -91.5 237.5t-234.5 94.5q-141 0 -232 -94.5t-91 -237.5q0 -141 91 -237.5t232 -96.5z" />
<glyph unicode="&#xf1;" horiz-adv-x="1071" d="M877 0h-76v553q-4 68 -51.5 113t-137.5 49q-135 0 -233 -82t-98 -205v-428h-76v766h67l9 -205q43 100 130 159.5t199 61.5q119 0 190.5 -63.5t76.5 -165.5v-553zM674 940q-55 0 -119 64q-55 53 -86 53q-78 0 -88 -96l-57 6q4 74 45 110.5t102 36.5q49 0 121 -65 q53 -51 84 -52q78 0 88 97l57 -7q-4 -74 -45 -110.5t-102 -36.5z" />
<glyph unicode="&#xf2;" d="M473 -18q-166 0 -282.5 117.5t-116.5 283.5q0 164 116.5 281.5t282.5 117.5q168 0 284.5 -116.5t116.5 -282.5t-116.5 -283.5t-284.5 -117.5zM473 49q143 0 234.5 96.5t91.5 237.5q0 143 -91.5 237.5t-234.5 94.5q-141 0 -232 -94.5t-91 -237.5q0 -141 91 -237.5 t232 -96.5zM291 1253l184 -272h-67l-193 272h76z" />
<glyph unicode="&#xf3;" d="M473 -18q-166 0 -282.5 117.5t-116.5 283.5q0 164 116.5 281.5t282.5 117.5q168 0 284.5 -116.5t116.5 -282.5t-116.5 -283.5t-284.5 -117.5zM473 49q143 0 234.5 96.5t91.5 237.5q0 143 -91.5 237.5t-234.5 94.5q-141 0 -232 -94.5t-91 -237.5q0 -141 91 -237.5 t232 -96.5zM473 981l184 272h76l-192 -272h-68z" />
<glyph unicode="&#xf4;" d="M473 -18q-166 0 -282.5 117.5t-116.5 283.5q0 164 116.5 281.5t282.5 117.5q168 0 284.5 -116.5t116.5 -282.5t-116.5 -283.5t-284.5 -117.5zM473 49q143 0 234.5 96.5t91.5 237.5q0 143 -91.5 237.5t-234.5 94.5q-141 0 -232 -94.5t-91 -237.5q0 -141 91 -237.5 t232 -96.5zM475 1352l246 -371h-68l-178 250l-178 -250h-68z" />
<glyph unicode="&#xf5;" d="M473 -18q-166 0 -282.5 117.5t-116.5 283.5q0 164 116.5 281.5t282.5 117.5q168 0 284.5 -116.5t116.5 -282.5t-116.5 -283.5t-284.5 -117.5zM473 49q143 0 234.5 96.5t91.5 237.5q0 143 -91.5 237.5t-234.5 94.5q-141 0 -232 -94.5t-91 -237.5q0 -141 91 -237.5 t232 -96.5zM569 940q-55 0 -118 64q-55 53 -86 53q-78 0 -89 -96l-57 6q4 74 45 110.5t103 36.5q49 0 120 -65q53 -51 84 -52q78 0 88 97l58 -7q-4 -74 -45.5 -110.5t-102.5 -36.5z" />
<glyph unicode="&#xf6;" d="M473 -18q-166 0 -282.5 117.5t-116.5 283.5q0 164 116.5 281.5t282.5 117.5q168 0 284.5 -116.5t116.5 -282.5t-116.5 -283.5t-284.5 -117.5zM473 49q143 0 234.5 96.5t91.5 237.5q0 143 -91.5 237.5t-234.5 94.5q-141 0 -232 -94.5t-91 -237.5q0 -141 91 -237.5 t232 -96.5zM319 1001q-27 0 -46 18.5t-19 47.5q0 27 20.5 46.5t45 19.5t44 -19.5t19.5 -46.5q0 -29 -19.5 -47.5t-44.5 -18.5zM657 1001q-27 0 -46 18.5t-19 47.5q0 27 20.5 46.5t45 19.5t44 -19.5t19.5 -46.5q0 -29 -19.5 -47.5t-44.5 -18.5z" />
<glyph unicode="&#xf7;" horiz-adv-x="1026" d="M514 143q-27 0 -46 18.5t-19 47.5q0 27 20 46t45 19t44.5 -19t19.5 -46q0 -29 -19.5 -47.5t-44.5 -18.5zM514 657q-27 0 -46 18.5t-19 47.5q0 27 20 46t45 19t44.5 -19t19.5 -46q0 -29 -19.5 -47.5t-44.5 -18.5zM877 440h-738v68h738v-68z" />
<glyph unicode="&#xf8;" d="M473 -18q-137 0 -242 79l-81 -96l-52 45l84 99q-109 115 -108 274q0 164 116.5 281.5t282.5 117.5q125 0 225 -67l80 94l51 -41l-79 -94q125 -119 124 -291q0 -166 -116.5 -283.5t-284.5 -117.5zM473 49q143 0 234.5 96.5t91.5 237.5q0 143 -92 240l-433 -510 q82 -64 199 -64zM150 383q0 -133 75 -221l428 502q-76 51 -180 51q-141 0 -232 -94.5t-91 -237.5z" />
<glyph unicode="&#xf9;" horiz-adv-x="1083" d="M877 0h-76v123l6 92q-43 -98 -132 -154.5t-204 -60.5q-119 0 -190.5 63.5t-75.5 165.5v539h76v-539q4 -68 51 -112.5t137 -48.5q135 0 233.5 81.5t98.5 204.5v428h76v-782zM358 1253l185 -272h-68l-192 272h75z" />
<glyph unicode="&#xfa;" horiz-adv-x="1083" d="M877 0h-76v123l6 92q-43 -98 -132 -154.5t-204 -60.5q-119 0 -190.5 63.5t-75.5 165.5v539h76v-539q4 -68 51 -112.5t137 -48.5q135 0 233.5 81.5t98.5 204.5v428h76v-782zM473 981l184 272h76l-192 -272h-68z" />
<glyph unicode="&#xfb;" horiz-adv-x="1083" d="M877 0h-76v123l6 92q-43 -98 -132 -154.5t-204 -60.5q-119 0 -190.5 63.5t-75.5 165.5v539h76v-539q4 -68 51 -112.5t137 -48.5q135 0 233.5 81.5t98.5 204.5v428h76v-782zM545 1352l246 -371h-68l-178 250l-178 -250h-68z" />
<glyph unicode="&#xfc;" horiz-adv-x="1083" d="M877 0h-76v123l6 92q-43 -98 -132 -154.5t-204 -60.5q-119 0 -190.5 63.5t-75.5 165.5v539h76v-539q4 -68 51 -112.5t137 -48.5q135 0 233.5 81.5t98.5 204.5v428h76v-782zM365 999q-27 0 -46.5 18.5t-19.5 47.5q0 27 20.5 46t45 19t44 -19t19.5 -46q0 -29 -19 -47.5 t-44 -18.5zM702 999q-27 0 -46 18.5t-19 47.5q0 27 20.5 46t45 19t44 -19t19.5 -46q0 -29 -19.5 -47.5t-44.5 -18.5z" />
<glyph unicode="&#xfd;" horiz-adv-x="999" d="M494 981l184 272h76l-193 -272h-67zM283 -512h-78l270 543l-371 737h80l332 -662l332 662h80z" />
<glyph unicode="&#xfe;" horiz-adv-x="1140" d="M205 -514v2050h76v-979q43 102 129 163.5t204 61.5q166 0 283 -117.5t117 -281.5q0 -166 -117 -283.5t-283 -117.5q-113 0 -199.5 60t-133.5 159v-715h-76zM614 49q141 0 232.5 96.5t91.5 237.5q0 143 -91 237.5t-233 94.5q-139 0 -233 -90t-100 -228v-28 q6 -137 100 -228.5t233 -91.5z" />
<glyph unicode="&#xff;" horiz-adv-x="999" d="M283 -512h-78l270 543l-371 737h80l332 -662l332 662h80zM354 999q-27 0 -46 18.5t-19 47.5q0 27 20.5 46t45 19t44 -19t19.5 -46q0 -29 -19.5 -47.5t-44.5 -18.5zM692 999q-27 0 -46 18.5t-19 47.5q0 27 20.5 46t45 19t44 -19t19.5 -46q0 -29 -19.5 -47.5t-44.5 -18.5z " />
<glyph unicode="&#x152;" horiz-adv-x="2252" d="M1227 0v82q-174 -98 -369 -98q-303 0 -517 214t-214 517q0 305 214 520t517 215q201 0 369 -98v82h837v-68h-761v-610h682v-68h-682v-620h790v-68h-866zM858 59q201 0 369 113v1085q-168 117 -369 117q-270 0 -462.5 -194.5t-192.5 -465t192.5 -463t462.5 -192.5z" />
<glyph unicode="&#x153;" horiz-adv-x="1464" d="M1335 504l-655 -254q37 -92 115.5 -147.5t185.5 -55.5q131 0 221 84l51 -41q-115 -111 -272 -110q-145 0 -254 90q-109 -88 -254 -88q-166 0 -282.5 117.5t-116.5 283.5q0 164 116.5 281.5t282.5 117.5q143 0 256 -92q111 90 252 90q131 0 222 -75.5t132 -200.5z M582 380.5q0 151.5 100 262.5q-88 72 -209 72q-141 0 -232 -94.5t-91 -237.5q0 -141 91 -237.5t232 -96.5q121 0 207 70q-98 110 -98 261.5zM657 381q0 -23 5 -64l585 228q-84 168 -266 168q-141 0 -232.5 -94.5t-91.5 -237.5z" />
<glyph unicode="&#x178;" horiz-adv-x="1306" d="M690 539l-2 -539h-74v539l-530 895h76l467 -781l24 -55h2l23 55l465 781h76zM485 1638q-27 0 -46 18.5t-19 47.5q0 27 20.5 46t45 19t44 -19t19.5 -46q0 -29 -19.5 -47.5t-44.5 -18.5zM823 1638q-27 0 -46 18.5t-19 47.5q0 27 20.5 46t45 19t44 -19t19.5 -46 q0 -29 -19.5 -47.5t-44.5 -18.5z" />
<glyph unicode="&#x2c6;" horiz-adv-x="753" d="M383 1352l246 -371h-68l-178 250l-178 -250h-68z" />
<glyph unicode="&#x2dc;" horiz-adv-x="790" d="M489 938q-55 0 -118 63q-55 53 -86 54q-78 0 -88 -97l-58 7q4 74 45 110.5t103 36.5q49 0 121 -65q53 -51 84 -52q78 0 88 97l57 -7q-4 -74 -45.5 -110.5t-102.5 -36.5z" />
<glyph unicode="&#x2000;" horiz-adv-x="1004" />
<glyph unicode="&#x2001;" horiz-adv-x="2009" />
<glyph unicode="&#x2002;" horiz-adv-x="1004" />
<glyph unicode="&#x2003;" horiz-adv-x="2009" />
<glyph unicode="&#x2004;" horiz-adv-x="669" />
<glyph unicode="&#x2005;" horiz-adv-x="502" />
<glyph unicode="&#x2006;" horiz-adv-x="334" />
<glyph unicode="&#x2007;" horiz-adv-x="334" />
<glyph unicode="&#x2008;" horiz-adv-x="251" />
<glyph unicode="&#x2009;" horiz-adv-x="401" />
<glyph unicode="&#x200a;" horiz-adv-x="111" />
<glyph unicode="&#x2010;" horiz-adv-x="614" d="M109 356v68h376v-68h-376z" />
<glyph unicode="&#x2011;" horiz-adv-x="614" d="M109 356v68h376v-68h-376z" />
<glyph unicode="&#x2013;" horiz-adv-x="1042" d="M205 356v68h616v-68h-616z" />
<glyph unicode="&#x2014;" horiz-adv-x="1433" d="M203 356v68h1028v-68h-1028z" />
<glyph unicode="&#x2018;" horiz-adv-x="335" d="M197 1208l-43 -49q-125 125 -91 297l66 -14q-28 -142 68 -234z" />
<glyph unicode="&#x2019;" horiz-adv-x="335" d="M156 1159l-43 49q96 92 67 234l66 14q35 -172 -90 -297z" />
<glyph unicode="&#x201a;" horiz-adv-x="299" d="M84 -123l-43 49q96 92 68 234l65 14q35 -172 -90 -297z" />
<glyph unicode="&#x201c;" horiz-adv-x="509" d="M410 1208l-43 -49q-125 125 -91 297l66 -14q-28 -142 68 -234zM197 1208l-43 -49q-125 125 -91 297l66 -14q-28 -142 68 -234z" />
<glyph unicode="&#x201d;" horiz-adv-x="507" d="M84 1159l-43 49q96 92 68 234l65 14q35 -172 -90 -297zM297 1159l-43 49q96 92 68 234l65 14q35 -172 -90 -297z" />
<glyph unicode="&#x201e;" horiz-adv-x="698" d="M84 -123l-43 49q96 92 68 234l65 14q35 -172 -90 -297zM297 -123l-43 49q96 92 68 234l65 14q35 -172 -90 -297z" />
<glyph unicode="&#x2022;" horiz-adv-x="980" d="M293 614q0 84 57.5 141.5t138.5 57.5q84 0 141.5 -58.5t57.5 -140.5t-57.5 -139t-141 -57t-140 57t-56.5 139z" />
<glyph unicode="&#x2026;" horiz-adv-x="1001" d="M174 -2q-27 0 -46 18.5t-19 46.5q0 27 20.5 46.5t45 19.5t44 -19.5t19.5 -46.5q0 -29 -19.5 -47t-44.5 -18zM508 -2q-27 0 -46.5 18.5t-19.5 46.5q0 27 20.5 46.5t45 19.5t44 -19.5t19.5 -46.5q0 -29 -19 -47t-44 -18zM842 -2q-27 0 -46.5 18.5t-19.5 46.5 q0 27 20.5 46.5t45 19.5t44 -19.5t19.5 -46.5q0 -29 -19 -47t-44 -18z" />
<glyph unicode="&#x202f;" horiz-adv-x="401" />
<glyph unicode="&#x2039;" horiz-adv-x="802" d="M590 158l-350 331l350 330v-74l-252 -256l252 -258v-73z" />
<glyph unicode="&#x203a;" horiz-adv-x="802" d="M590 489l-350 -331v73l252 258l-252 256v74z" />
<glyph unicode="&#x205f;" horiz-adv-x="502" />
<glyph unicode="&#x20ac;" horiz-adv-x="1228" d="M985 588v-66h-655q37 -205 164 -337t292 -134q152 0 275 113l47 -55q-143 -125 -322 -125q-188 2 -341.5 150.5t-192.5 387.5h-164v66h156q-2 27 -2 82q0 47 2 69h-156v66h162q37 250 187.5 397.5t357.5 145.5q147 0 268 -80l-43 -56q-102 68 -225 68q-102 0 -187.5 -42 t-139.5 -113.5t-88 -151.5t-50 -168h655v-66h-663q-4 -49 -5 -71q0 -53 2 -80h666z" />
<glyph unicode="&#x2122;" horiz-adv-x="1765" d="M725 1473v-52h-231v-602h-60v602h-227v52h518zM1501 1507v-688h-59v522l-281 -364l-284 369v-527h-60v688l344 -444z" />
</font>
</defs>
</svg>
